<svg width="240" height="240" viewBox="0 0 240 240" fill="none" xmlns="http://www.w3.org/2000/svg">
<path fill-rule="evenodd" clip-rule="evenodd" d="M187.071 52.9289C190.976 56.8342 190.976 63.1658 187.071 67.0711L67.0711 187.071C63.1658 190.976 56.8342 190.976 52.9289 187.071C49.0237 183.166 49.0237 176.834 52.9289 172.929L172.929 52.9289C176.834 49.0237 183.166 49.0237 187.071 52.9289Z" fill="white"/>
<path fill-rule="evenodd" clip-rule="evenodd" d="M52.9289 52.9289C56.8342 49.0237 63.1658 49.0237 67.0711 52.9289L187.071 172.929C190.976 176.834 190.976 183.166 187.071 187.071C183.166 190.976 176.834 190.976 172.929 187.071L52.9289 67.0711C49.0237 63.1658 49.0237 56.8342 52.9289 52.9289Z" fill="white"/>
</svg>
