<?xml version="1.0" encoding="utf-8"?>
<!-- Generator: Adobe Illustrator 22.0.1, SVG Export Plug-In . SVG Version: 6.00 Build 0)  -->
<svg version="1.1" id="Layer_1" xmlns="http://www.w3.org/2000/svg" xmlns:xlink="http://www.w3.org/1999/xlink" x="0px" y="0px"
	 viewBox="0 0 64 64" style="enable-background:new 0 0 64 64;" xml:space="preserve">
<path d="M3.9,16.5c1.6,0.9,23.9,13.1,24.9,13.4c0.9,0.3,1.9,0.6,3.1,0.6c0.9,0,2.2-0.3,3.1-0.6c0.9-0.3,23.3-12.4,24.9-13.4
	c1.6-0.9,3.1-4.4,0.3-4.4H3.9C0.8,12.1,2.4,15.5,3.9,16.5z M60.5,23.6C58.6,24.5,35.9,36.4,35,37c-1.2,0.6-1.9,0.6-3.1,0.6
	c-0.9,0-1.9,0-3.1-0.6C27.5,36.4,5.2,24.5,3.3,23.6c-1.2-0.6-1.2,0-1.2,0.6s0,24.2,0,24.2c0,1.2,1.9,3.4,3.4,3.4h53.2
	c1.6,0,3.4-1.9,3.4-3.4c0,0,0-23.6,0-24.2C61.7,23.9,61.7,23,60.5,23.6z"/>
</svg>
