<?xml version="1.0" encoding="utf-8"?>
<!-- Generator: Adobe Illustrator 22.0.1, SVG Export Plug-In . SVG Version: 6.00 Build 0)  -->
<svg version="1.1" id="Layer_1" xmlns="http://www.w3.org/2000/svg" xmlns:xlink="http://www.w3.org/1999/xlink" x="0px" y="0px"
	 viewBox="0 0 64 64" style="enable-background:new 0 0 64 64;" xml:space="preserve">
<path d="M32,2C15.4,2,2,15.4,2,32c0,16.6,13.4,30,30,30c16.6,0,30-13.4,30-30C62,15.4,48.6,2,32,2z M44.2,26.6c0,0.3,0,0.5,0,0.8
	c0,7.8-5.9,16.8-16.8,16.8c-3.3,0-6.4-1-9.1-2.7c0.5,0.1,0.9,0.1,1.4,0.1c2.8,0,5.3-0.9,7.3-2.5c-2.6,0-4.8-1.8-5.5-4.1
	c0.4,0.1,0.7,0.1,1.1,0.1c0.5,0,1.1-0.1,1.6-0.2c-2.7-0.5-4.7-2.9-4.7-5.8V29c0.8,0.4,1.7,0.7,2.7,0.7c-1.6-1.1-2.6-2.9-2.6-4.9
	c0-1.1,0.3-2.1,0.8-3c2.9,3.6,7.3,5.9,12.2,6.2c-0.1-0.4-0.2-0.9-0.2-1.3c0-3.3,2.6-5.9,5.9-5.9c1.7,0,3.2,0.7,4.3,1.9
	c1.3-0.3,2.6-0.8,3.7-1.4c-0.4,1.4-1.4,2.5-2.6,3.3c1.2-0.1,2.3-0.5,3.4-0.9C46.4,24.7,45.4,25.7,44.2,26.6z"/>
</svg>
