<?xml version="1.0" encoding="utf-8"?>
<!-- Generator: Adobe Illustrator 22.0.1, SVG Export Plug-In . SVG Version: 6.00 Build 0)  -->
<svg version="1.1" id="Layer_1" xmlns="http://www.w3.org/2000/svg" xmlns:xlink="http://www.w3.org/1999/xlink" x="0px" y="0px"
	 viewBox="0 0 1400 1400" style="enable-background:new 0 0 1400 1400;" xml:space="preserve">
<style type="text/css">
	.st0{fill:#00AB4E;}
	.st1{fill:#FFFFFF;}
</style>
<title>visci-vector</title>
<g>
	<path class="st0" d="M1179.8,219.7L700,859.5L220.2,219.7c145.4,57.6,271.1,156,362,283.3c38.6,54.1,70.4,112.8,94.7,174.7
		c4.1,10.4,7.9,20.8,11.5,31.3c4.2,12,8,24.1,11.6,36.4c3.6-12.3,7.4-24.4,11.6-36.4c3.6-10.5,7.4-20.9,11.5-31.3
		C805.3,468.3,970.7,302.5,1179.8,219.7z"/>
	<path class="st0" d="M1072.6,174.2h-0.3c-0.1,0-0.1,0-0.1-0.1h-0.2c-29.7-6.7-60-10.1-90.4-10.1h-3.5
		c-39.4,0.3-78.5,6.3-116.2,17.9V104L700,50l-161.9,54v77.9c-37.7-11.6-76.8-17.6-116.2-17.9h-3.5c-30.7,0-61.3,3.5-91.2,10.4h-0.1
		l-0.6,0.2c8.3,4.4,16.5,8.9,24.7,13.6c100.4,58.1,187,137.5,253.6,232.5c39.6,56.4,71.6,117.8,95.2,182.5
		c23.6-64.7,55.6-126.1,95.2-182.5c66.6-95.1,153.1-174.5,253.6-232.6c8.2-4.7,16.4-9.2,24.7-13.6L1072.6,174.2z M732.5,428.1
		c-21.5-4-43.5-4-65,0c-0.7-1.8-12.2-28.6-13.1-30.5c30-6.5,61.2-6.5,91.2,0C744.7,399.5,733.2,426.3,732.5,428.1z M766.9,357.1
		c-43.8-11.9-90-11.9-133.8,0c-1.2-2-16.3-25.9-18.1-28.5c55.4-17.1,114.6-17.1,170,0C783.2,331.2,768.1,355.1,766.9,357.1z
		 M813.5,291.2c-73.3-26.5-153.7-26.5-227,0c-7.4-8.9-15.1-17.5-23.2-25.8c87.7-35.3,185.7-35.3,273.4,0
		C828.6,273.7,820.9,282.3,813.5,291.2L813.5,291.2z"/>
</g>
<g>
	<path class="st1" d="M756.8,1156.3c-13.9-6.5-81.3-34.8-58.2-70.6c14.9-23,51.7-11.6,76-0.5c13.9,6.4,30.4,2.2,39.5-10.1l17-22.7
		c0,0-46.9-35.9-98.7-35.9c-65.3,0-100.7,42.6-100.7,84.5c0,64.1,65.8,94.7,90.5,106.8c22.7,11.2,66.6,29,48,64.1
		c-14.7,27.8-54,18-79,8.2c-13.6-5.3-29-0.8-37.7,10.9l-20.9,28.1c0,0,31.6,30.9,101.2,30.9c65.8,0,105.7-40.9,105.7-91.7
		C839.5,1190.9,773.2,1164.1,756.8,1156.3z"/>
	<path class="st1" d="M486,1053.7v291.4h64.8v-323.7h-32.4C500.5,1021.4,486.1,1035.8,486,1053.7z"/>
	<path class="st1" d="M1270.1,1021.4c-17.8,0-32.3,14.5-32.3,32.3l0,0v291.4h64.7v-323.7L1270.1,1021.4L1270.1,1021.4z"/>
	<path class="st1" d="M348.4,1041.7l-89,222.5l-89-222.5c-4.9-12.3-16.9-20.3-30.1-20.3H97.5L227,1345.1h64.8l129.5-323.7h-42.9
		C365.2,1021.4,353.3,1029.4,348.4,1041.7z"/>
	<path class="st1" d="M1071,1081.3c13.7,0,27.3,2.7,39.9,8c13.7,5.8,29.5,1.5,38.4-10.4l21.8-29.1c-31-23.2-69-34.9-107.7-33.1
		c-83.5,3.7-152.2,70-158.6,153.4c-7.2,91.8,61.3,172.2,153.2,179.4c40.4,3.2,80.7-8.5,113.1-32.8l-21.8-29.1
		c-8.9-11.9-24.7-16.2-38.4-10.4c-51.9,22-111.7-2.2-133.7-54.1s2.2-111.7,54.1-133.7C1043.8,1084.1,1057.3,1081.3,1071,1081.3z"/>
</g>
</svg>
