<svg id="Layer_1" data-name="Layer 1" xmlns="http://www.w3.org/2000/svg" viewBox="0 0 100 100"><defs><style>.cls-1{fill:#00ab4e;}.cls-2{fill:#fff;}</style></defs><title>visci_icon_5</title><circle class="cls-1" cx="50" cy="50" r="50"/><path class="cls-2" d="M50,31a1.64,1.64,0,0,0,1.64-1.64v-10a1.64,1.64,0,0,0-3.28,0v10A1.65,1.65,0,0,0,50,31Z"/><path class="cls-2" d="M34,36.69a1.64,1.64,0,0,0,1.16.48,1.64,1.64,0,0,0,1.16-2.8l-7.05-7a1.64,1.64,0,0,0-2.32,2.32Z"/><path class="cls-2" d="M30.59,50.42A1.65,1.65,0,0,0,29,48.78H19a1.64,1.64,0,0,0,0,3.28H29A1.64,1.64,0,0,0,30.59,50.42Z"/><path class="cls-2" d="M34,64.15l-7.05,7a1.64,1.64,0,0,0,2.32,2.32l7.05-7A1.64,1.64,0,0,0,34,64.15Z"/><path class="cls-2" d="M66.05,64.15a1.68,1.68,0,0,0-2.32,0,1.64,1.64,0,0,0,0,2.32l7.05,7.06a1.64,1.64,0,0,0,2.32,0,1.64,1.64,0,0,0,0-2.32Z"/><path class="cls-2" d="M81,48.78h-10a1.64,1.64,0,0,0,0,3.28H81a1.64,1.64,0,0,0,0-3.28Z"/><path class="cls-2" d="M64.89,37.18a1.67,1.67,0,0,0,1.16-.48l7-7.06a1.64,1.64,0,0,0,0-2.32,1.68,1.68,0,0,0-2.32,0l-7.05,7.06a1.61,1.61,0,0,0-.48,1.16,1.64,1.64,0,0,0,.48,1.16A1.67,1.67,0,0,0,64.89,37.18Z"/><path class="cls-2" d="M57.91,36.83a15.74,15.74,0,0,0-21.5,21.49l5.25,9.09v6.46A8.37,8.37,0,0,0,57.48,77.7a1,1,0,0,0,.09-.17,8.22,8.22,0,0,0,.85-3.66V67.41l5.25-9.09A15.76,15.76,0,0,0,57.91,36.83Zm-2.77,36.7v.34A5.37,5.37,0,0,1,55,75.06L44.94,73.63V72.08Zm-10.2-4.76v-.16h10.2v1.61Zm9.43-5.92L57,55.43A1.64,1.64,0,1,0,54,54.32L51.19,62a1.49,1.49,0,0,0-.1.55v2.77H49V62.56a1.49,1.49,0,0,0-.1-.55l-2.76-7.69a1.64,1.64,0,0,0-3-.14A1.6,1.6,0,0,0,43,55.43l2.67,7.42v2.48H44.24l-5-8.65a12.45,12.45,0,1,1,21.57,0l-5,8.65H54.37ZM52.91,78.08A5.17,5.17,0,0,1,50,79h0a5.1,5.1,0,0,1-3.93-1.86Z"/><path class="cls-2" d="M59.31,52a1.66,1.66,0,0,0,1.63-1.66A11,11,0,0,0,55.49,41a10.85,10.85,0,0,0-5.44-1.46,1.64,1.64,0,0,0,0,3.28,7.6,7.6,0,0,1,7.6,7.56A1.66,1.66,0,0,0,59.31,52Z"/></svg>