<svg id="Layer_1" data-name="Layer 1" xmlns="http://www.w3.org/2000/svg" viewBox="0 0 100 100"><defs><style>.cls-1{fill:#00ab4e;}.cls-2{fill:#fff;fill-rule:evenodd;}</style></defs><title>visci_icon_2</title><circle class="cls-1" cx="50" cy="50" r="50"/><path class="cls-2" d="M75.91,48a5.31,5.31,0,0,0-2.19.54L60.78,54.73A4,4,0,0,0,57,52.38l-7.42.24a16.76,16.76,0,0,1-4.94-.95,22.58,22.58,0,0,0-6.66-1,28.31,28.31,0,0,0-8.13,1.57V50.59a1.45,1.45,0,0,0-.11-.54,1.39,1.39,0,0,0-.3-.43,1.33,1.33,0,0,0-1-.41H21a1.35,1.35,0,0,0-.52.11,1.54,1.54,0,0,0-.45.3,1.39,1.39,0,0,0-.3.43,1.45,1.45,0,0,0-.11.54V71.12a1.45,1.45,0,0,0,.11.54,1.37,1.37,0,0,0,.3.45,1.31,1.31,0,0,0,.45.28,1.35,1.35,0,0,0,.52.11H28.5a1.45,1.45,0,0,0,.54-.11,1.23,1.23,0,0,0,.43-.28,1.37,1.37,0,0,0,.3-.45,1.45,1.45,0,0,0,.11-.54V69.35c9.08-1.61,14.5,1.14,22.68,1.14,1.7,0,3.48-.83,5.7-2s4.76-2.69,7.33-4.35c5.14-3.32,10.39-7.1,13.13-8.95a3.72,3.72,0,0,0,1.61-2.63,4,4,0,0,0-.71-2.76A4.43,4.43,0,0,0,75.91,48Zm.2,2.7a1.41,1.41,0,0,1,1.25.69,1.33,1.33,0,0,1,.24.88.85.85,0,0,1-.43.67c-2.82,1.91-8,5.64-13.09,8.91-2.53,1.63-5,3.14-7.1,4.22a14.67,14.67,0,0,1-4.42,1.68c-7.4,0-13.21-2.72-22.68-1.16V65.36a1.28,1.28,0,0,0-.09-.51,1.34,1.34,0,0,0-.3-.48,1.37,1.37,0,0,0-.45-.3,1.38,1.38,0,0,0-1.08,0,1.28,1.28,0,0,0-.43.3,1.5,1.5,0,0,0-.3.48,1.3,1.3,0,0,0-.11.51v4.38h-.69V52h.69v4.38a1.27,1.27,0,0,0,.11.54,1.37,1.37,0,0,0,.3.45,1.28,1.28,0,0,0,.43.3,1.38,1.38,0,0,0,1.08,0,1.37,1.37,0,0,0,.45-.3,1.23,1.23,0,0,0,.3-.45,1.43,1.43,0,0,0,.09-.54V55.14A30,30,0,0,1,38,53.4a19.49,19.49,0,0,1,5.91.92,19.17,19.17,0,0,0,5.71,1.06h0l7.46-.24a1.15,1.15,0,0,1,1.21,1.06c0,.51-.48,1-1.31,1l-14.17.61a1.21,1.21,0,0,0-.52.13,1.37,1.37,0,0,0-.45.3,1.25,1.25,0,0,0-.28.47,1.43,1.43,0,0,0-.09.54,1.33,1.33,0,0,0,.13.52,1.35,1.35,0,0,0,.33.45,1.21,1.21,0,0,0,.47.26,1.43,1.43,0,0,0,.54.09L57.13,60a4.23,4.23,0,0,0,3.54-2.15L74.9,51a2.83,2.83,0,0,1,1.21-.32Z"/><path class="cls-2" d="M50,27.5a1.29,1.29,0,0,0-.47.11,1.27,1.27,0,0,0-.43.26l-5.24,5-5.26,5a1.24,1.24,0,0,0-.32.43,1.22,1.22,0,0,0-.11.54,1.42,1.42,0,0,0,.08.54,1.48,1.48,0,0,0,.28.45,1.41,1.41,0,0,0,.46.3,1.38,1.38,0,0,0,.54.13,1.36,1.36,0,0,0,.53-.11,1.41,1.41,0,0,0,.46-.3v9.16a1.35,1.35,0,0,0,.11.52,1.15,1.15,0,0,0,.3.45,1.22,1.22,0,0,0,.43.31,1.44,1.44,0,0,0,.54.1H58.17a1.44,1.44,0,0,0,.54-.1,1.31,1.31,0,0,0,.43-.31,1.27,1.27,0,0,0,.3-.45,1.35,1.35,0,0,0,.11-.52V39.92a1.37,1.37,0,0,0,.45.3,1.45,1.45,0,0,0,.54.11,1.47,1.47,0,0,0,.54-.13,1.19,1.19,0,0,0,.43-.3,1.23,1.23,0,0,0,.3-.45,1.26,1.26,0,0,0,.09-.54,1.38,1.38,0,0,0-.13-.54,1.19,1.19,0,0,0-.3-.43l-3-2.87a1,1,0,0,0,0-.17V29a1.64,1.64,0,0,0-.08-.54,1.51,1.51,0,0,0-.76-.76,1.44,1.44,0,0,0-.54-.1,1.34,1.34,0,0,0-.52.1,1.51,1.51,0,0,0-.45.31,1.27,1.27,0,0,0-.3.45,1.45,1.45,0,0,0-.11.54v3.47L51,27.87a1.22,1.22,0,0,0-.48-.28A1.23,1.23,0,0,0,50,27.5Zm0,3.28,4.31,4.12,1.36,1.31H44.35l1.36-1.31ZM43.23,39H56.79V47.7H53.4V42.16a1.25,1.25,0,0,0-.1-.51,1.44,1.44,0,0,0-.31-.46,1.27,1.27,0,0,0-.45-.3,1.35,1.35,0,0,0-.52-.11H48a1.45,1.45,0,0,0-.54.11,1.48,1.48,0,0,0-.45.3,1.36,1.36,0,0,0-.28.46,1.26,1.26,0,0,0-.11.51V47.7H43.23Z"/></svg>