<svg id="Layer_1" data-name="Layer 1" xmlns="http://www.w3.org/2000/svg" viewBox="0 0 100 100"><defs><style>.cls-1{fill:#00ab4e;}.cls-2{fill:#fff;}</style></defs><title>visci_icon_6</title><circle class="cls-1" cx="50" cy="50" r="50"/><path class="cls-2" d="M80.27,38.67A4.77,4.77,0,0,0,73.78,40L69,47.2a4.17,4.17,0,0,0-3.28,1l-9.83,8.54a8.65,8.65,0,0,0-2.73,4.92l-1.37,9v8.53a1.69,1.69,0,0,0,1.71,1.71H65.38a1.69,1.69,0,0,0,1.71-1.71v-7.3l7-5.46A13.75,13.75,0,0,0,79,58.67l3.28-15A4.55,4.55,0,0,0,80.27,38.67Zm-25,38.85V72.81h8.46v4.71ZM75.69,58A9.62,9.62,0,0,1,72,63.79l-7.16,5.6H55.48l1.09-7.17a4.87,4.87,0,0,1,1.57-2.87l9.77-8.53a.83.83,0,0,1,1.09,0,.77.77,0,0,1,.14,1.09l-1.71,2.73A13,13,0,0,1,65,57.44L62.31,59.9a1.69,1.69,0,0,0,2.25,2.53L67.29,60a19,19,0,0,0,3-3.55L72,53.69a4.34,4.34,0,0,0-.13-4.78l4.64-7a1.34,1.34,0,0,1,1.78-.41A1.47,1.47,0,0,1,78.9,43Z"/><path class="cls-2" d="M46.81,61.68a7.75,7.75,0,0,0-2.73-4.92l-9.77-8.54a4.21,4.21,0,0,0-3.27-1L26.26,40a4.66,4.66,0,0,0-6.49-1.36,4.74,4.74,0,0,0-2.05,5l3.28,15a13.6,13.6,0,0,0,4.91,7.78l7,5.47v7.3A1.69,1.69,0,0,0,34.59,81H46.47a1.69,1.69,0,0,0,1.7-1.71V70.48ZM28,63.79A10.28,10.28,0,0,1,24.28,58L21,43a1.37,1.37,0,0,1,.61-1.44,1.25,1.25,0,0,1,1.78.41l4.64,7a4.23,4.23,0,0,0-.14,4.78l1.71,2.73a16.72,16.72,0,0,0,3,3.55l2.73,2.46a1.69,1.69,0,0,0,2.25-2.53l-2.73-2.46a15.31,15.31,0,0,1-2.39-2.8l-1.71-2.73a.94.94,0,0,1,.14-1.09.83.83,0,0,1,1.09,0l9.77,8.53a5.27,5.27,0,0,1,1.57,2.87l1.23,7.17H35.13Zm8.33,13.73V72.81h8.47v4.71Z"/><path class="cls-2" d="M61.63,45.08l-.69-5.6A8.56,8.56,0,0,0,56,32.72a8,8,0,0,0,2.18-5.53,8.2,8.2,0,0,0-16.39,0A8,8,0,0,0,44,32.72a8.55,8.55,0,0,0-4.92,6.76l-.68,5.6a3,3,0,0,0,2.46,3.42,45,45,0,0,0,9.15,1,45.07,45.07,0,0,0,9.15-1A3.21,3.21,0,0,0,61.63,45.08ZM50,22.48a4.72,4.72,0,1,1-4.71,4.71A4.72,4.72,0,0,1,50,22.48ZM41.89,45.22l.62-5.33a5.15,5.15,0,0,1,5.12-4.5h4.78a5.16,5.16,0,0,1,5.12,4.5l.61,5.33A40.79,40.79,0,0,1,41.89,45.22Z"/></svg>