<svg id="Layer_1" data-name="Layer 1" xmlns="http://www.w3.org/2000/svg" viewBox="0 0 100 100"><defs><style>.cls-1{fill:#00ab4e;}.cls-2{fill:#fff;}</style></defs><title>visci_icon_4</title><circle class="cls-1" cx="50" cy="50" r="50"/><path class="cls-2" d="M47.56,73.71,47.44,77c.84,0,1.7,0,2.56,0s1.75,0,2.61,0l-.13-3.34C50.86,73.76,49.18,73.76,47.56,73.71Z"/><path class="cls-2" d="M37.15,75.85c1.64.34,3.37.61,5.13.81l.38-3.32c-1.67-.18-3.3-.44-4.84-.75Z"/><path class="cls-2" d="M57.39,73.34l.37,3.31c1.76-.2,3.49-.47,5.13-.81l-.67-3.26C60.68,72.89,59.05,73.15,57.39,73.34Z"/><path class="cls-2" d="M27.17,72.55a34.73,34.73,0,0,0,4.92,2l1-3.18a29,29,0,0,1-4.42-1.79Z"/><path class="cls-2" d="M66.93,71.36l1,3.17a33.13,33.13,0,0,0,4.92-2l-1.52-3A29.44,29.44,0,0,1,66.93,71.36Z"/><path class="cls-2" d="M20,63.81a7.9,7.9,0,0,0,2.63,5.57L25,67a4.78,4.78,0,0,1-1.65-3.24Z"/><path class="cls-2" d="M80,63.64l-3.33.11A4.75,4.75,0,0,1,75.05,67l2.36,2.35A7.89,7.89,0,0,0,80,63.75Z"/><path class="cls-2" d="M28.62,58l-1.53-3a17.93,17.93,0,0,0-4.53,3.2l2.37,2.34A14.61,14.61,0,0,1,28.62,58Z"/><path class="cls-2" d="M72.79,54.93l-1.51,3A14.9,14.9,0,0,1,75,60.45l2.35-2.37A17.91,17.91,0,0,0,72.79,54.93Z"/><circle class="cls-2" cx="60.83" cy="33.75" r="4.17"/><path class="cls-2" d="M34.58,32.92a2.08,2.08,0,0,0,2-1.4,5,5,0,0,0,6.92,0,2.08,2.08,0,1,0,2-2.77,2,2,0,0,0-.5.07,5.29,5.29,0,0,0,.08-.9,5,5,0,0,0-10,0,4.5,4.5,0,0,0,.09.9,2.16,2.16,0,0,0-.51-.07,2.09,2.09,0,0,0,0,4.17Z"/><path class="cls-2" d="M64.17,52.08l.83-7.5,2.1,7.92h0a1,1,0,0,0,1,.83,1,1,0,0,0,1-1s0-.06,0-.09h0s-.84-7.07-1.67-9.28c-.69-1.84-2.5-4.17-6.67-4.17s-6.66,4.17-6.66,4.17l-3.43,4.55-2.41-7c-.35-.85-.83-6.67-8.33-6.67s-8,5.82-8.33,6.67l-2.81,8.25a.36.36,0,0,0,0,.11l0,.09h0a1.36,1.36,0,0,0,0,.3,1.25,1.25,0,0,0,2.42.43h0l4.66-9.18-3.33,15H35l.83,12.08a1.25,1.25,0,0,0,2.5,0l.84-12.08h1.66l.84,12.08a1.25,1.25,0,0,0,2.5,0L45,55.42h2.5l-3.33-15,4.66,9.18h0a1.24,1.24,0,0,0,2.09.41h0l5.75-5.43.83,7.5L55.87,66.73a2,2,0,0,0,0,.35,1.67,1.67,0,0,0,3.34,0l1.66-12.5,1.67,12.5a1.67,1.67,0,1,0,3.33,0,1.39,1.39,0,0,0,0-.35Z"/></svg>