<?xml version="1.0" encoding="utf-8"?>
<!-- Generator: Adobe Illustrator 22.0.1, SVG Export Plug-In . SVG Version: 6.00 Build 0)  -->
<svg version="1.1" id="Layer_1" xmlns="http://www.w3.org/2000/svg" xmlns:xlink="http://www.w3.org/1999/xlink" x="0px" y="0px"
	 viewBox="0 0 3800 800" style="enable-background:new 0 0 3800 800;" xml:space="preserve">
<style type="text/css">
	.st0{fill:#00AA4E;}
	.st1{enable-background:new    ;}
	.st2{fill:#FFFFFF;}
	.st3{fill:#606161;}
</style>
<g>
	<rect x="30.3" y="128" class="st0" width="3739.5" height="323.8"/>
	<g class="st1">
		<path class="st2" d="M129.1,231.1c-0.6-1.2-0.6-2.3,0.1-3.2c0.7-1,1.6-1.4,3-1.4h18.3c0.8,0,1.5,0.2,2,0.6s0.8,0.9,1.1,1.3
			l34.6,77.1h0.9l34.6-77.1c0.2-0.5,0.6-0.9,1.1-1.3s1.1-0.6,2-0.6H245c1.3,0,2.3,0.5,3,1.4c0.7,1,0.7,2,0.1,3.2l-55.6,120.7
			c-0.7,1.3-1.7,2-3,2h-1.8c-1.4,0-2.5-0.7-3-2L129.1,231.1z"/>
		<path class="st2" d="M268.8,255c-4.1,0-7.4-1.4-10.1-4.2c-2.7-2.8-4-6.2-4-10.1s1.3-7.3,4-10c2.7-2.7,6.1-4.1,10.1-4.1
			c4.1,0,7.5,1.4,10.2,4.1c2.7,2.8,4.1,6.1,4.1,10s-1.4,7.3-4.1,10.1S272.9,255,268.8,255z M257.9,273.1c0-1.2,0.4-2.2,1.3-2.9
			c0.8-0.7,1.7-1.1,2.7-1.1h14.5c1,0,1.9,0.4,2.7,1.1c0.8,0.7,1.3,1.7,1.3,2.9v75c0,1.1-0.4,2-1.3,2.8c-0.8,0.8-1.7,1.2-2.7,1.2
			h-14.5c-1,0-1.9-0.4-2.7-1.2c-0.8-0.8-1.3-1.7-1.3-2.8V273.1z"/>
		<path class="st2" d="M296.4,310.6c0-5.9,1-11.4,3-16.6s4.9-9.8,8.6-13.7s8.1-7.1,13.2-9.4s10.7-3.5,16.8-3.5
			c5.4,0,10.3,1,14.9,2.9c4.6,1.9,8.6,4.6,12,8c3.4,3.4,6.1,7.4,8,12.1c2,4.7,3,9.8,3,15.4c0,0.6,0,1.5-0.1,2.7s-0.2,2.1-0.3,2.7
			c-0.1,1.1-0.6,2-1.3,2.7s-1.6,1.1-2.6,1.1h-52.9c0,2.5,0.5,4.9,1.6,7.3c1.1,2.3,2.5,4.4,4.3,6.2s3.9,3.2,6.5,4.2
			c2.5,1,5.3,1.5,8.2,1.5c4.2,0,7.7-0.6,10.6-1.9s5.3-2.7,7.2-4.2c1-0.8,1.9-1.3,3-1.3c1-0.1,1.8,0.4,2.4,1.3l7,9.3
			c0.7,0.8,1.1,1.7,1.1,2.6c0,0.9-0.5,1.8-1.4,2.8c-3.6,3.1-7.9,5.8-13,8s-11,3.3-17.8,3.3c-6.2,0-11.9-1.1-17-3.4
			s-9.6-5.4-13.3-9.3c-3.7-3.9-6.6-8.5-8.6-13.8C297.5,322.2,296.4,316.6,296.4,310.6z M353.6,300.2c-0.2-4.1-1.8-7.5-4.8-10.2
			c-2.9-2.7-6.7-4.1-11.2-4.1c-5,0-9.1,1.3-12.1,4s-4.9,6.1-5.5,10.3L353.6,300.2L353.6,300.2z"/>
		<path class="st2" d="M396.9,289.2h-8.1c-1.1,0-2-0.4-2.7-1.3c-0.7-0.8-1.1-1.7-1.1-2.7v-12.1c0-1.2,0.4-2.2,1.1-2.9
			c0.7-0.7,1.6-1.1,2.7-1.1h8.1v-23c0-1.1,0.4-2,1.3-2.8c0.8-0.8,1.7-1.2,2.7-1.2h14.7c1.1,0,2,0.4,2.7,1.2c0.7,0.8,1.1,1.7,1.1,2.8
			v23h19.4c1.1,0,2,0.4,2.8,1.1s1.2,1.7,1.2,2.9v12.2c0,1-0.4,1.9-1.2,2.7c-0.8,0.8-1.7,1.3-2.8,1.3h-19.4v37.5
			c0,2.8,0.6,4.6,1.9,5.5c1.3,0.9,2.9,1.4,4.9,1.4c0.8,0,1.9-0.1,3.1-0.4c1.3-0.2,2.5-0.5,3.7-0.7s2.3-0.5,3.3-0.8s1.8-0.6,2.4-0.8
			c1.2-0.5,2.2-0.5,3,0s1.4,1.2,1.6,2.2l2.3,10.8c0.5,2.1-0.3,3.7-2.3,4.8c-0.7,0.4-1.9,0.9-3.7,1.5c-1.7,0.7-3.7,1.2-5.8,1.8
			c-2.2,0.5-4.5,1-6.9,1.4c-2.5,0.4-4.8,0.6-6.9,0.6c-4.7,0-8.5-0.7-11.5-2.2c-3-1.4-5.4-3.4-7.1-5.8c-1.7-2.4-2.9-5.3-3.6-8.5
			s-1-6.6-1-10.2L396.9,289.2L396.9,289.2z"/>
		<path class="st2" d="M459.4,273.1c0-1.2,0.4-2.2,1.3-2.9c0.8-0.7,1.7-1.1,2.7-1.1h6.8c1.7,0,2.8,0.8,3.4,2.5l3,7.7
			c0.7-0.8,1.8-1.9,3.1-3.3c1.4-1.4,3.1-2.7,5.3-3.9c2.2-1.2,4.8-2.4,7.8-3.3c3-1,6.5-1.4,10.5-1.4c6.6,0,12,1,16.3,3
			c4.3,2,7.7,4.8,10.2,8.3s4.2,7.6,5.2,12.1s1.4,9.3,1.4,14.3v43c0,1.1-0.4,2-1.3,2.8c-0.8,0.8-1.7,1.2-2.7,1.2h-14.5
			c-1.1,0-2-0.4-2.8-1.2c-0.8-0.8-1.2-1.7-1.2-2.8v-42.9c0-5.4-1.1-9.6-3.4-12.7c-2.3-3.1-5.9-4.7-10.9-4.7c-2.8,0-5.1,0.4-7.1,1.3
			c-2,0.8-3.7,1.9-5.1,3.1s-2.6,2.6-3.6,4.1s-1.7,3-2.2,4.4v47.4c0,1.6-0.4,2.6-1.1,3.1s-2.1,0.8-4.1,0.8h-13.3
			c-1,0-1.9-0.4-2.7-1.2c-0.8-0.8-1.3-1.7-1.3-2.8v-74.9H459.4z"/>
		<path class="st2" d="M551.1,325.6c0-3.7,0.7-7.1,2.2-10.3s3.6-5.9,6.5-8.2c2.8-2.3,6.2-4.2,10.3-5.5s8.7-2,14-2c2,0,4,0.2,6,0.4
			c2,0.3,3.7,0.6,5.1,0.8c1.7,0.4,3.3,0.7,4.8,1.1c0.2-5.4-0.5-9.3-2.2-11.8s-4.8-3.8-9.2-3.8c-1.9,0-4,0.1-6.2,0.3
			c-2.2,0.2-4.4,0.4-6.5,0.7c-2.2,0.3-4.2,0.6-6,1c-1.9,0.4-3.4,0.7-4.6,1.1c-1.3,0.5-2.4,0.3-3.1-0.4c-0.8-0.8-1.3-1.8-1.5-3.1
			l-1.8-9.3c-0.4-1.6-0.2-2.7,0.4-3.5c0.6-0.8,1.4-1.3,2.3-1.5c0.5-0.1,1.6-0.4,3.3-0.9s3.9-1,6.5-1.4c2.6-0.5,5.5-0.9,8.7-1.3
			c3.2-0.4,6.5-0.5,9.9-0.5c6.5,0,11.7,0.8,15.8,2.4c4.1,1.6,7.2,4,9.5,7.1c2.3,3.1,3.8,6.9,4.7,11.4c0.8,4.5,1.3,9.5,1.3,15.2v44.5
			c0,1.1-0.4,2-1.2,2.8s-1.7,1.2-2.8,1.2H611c-0.7,0-1.3-0.2-1.9-0.5s-1.1-1.1-1.7-2.3l-2.3-5.6c-2.4,2.4-5.7,4.7-10,7
			c-4.2,2.3-9.6,3.4-16,3.4c-8.2,0-15-2.5-20.2-7.4C553.7,341.6,551.1,334.6,551.1,325.6z M572.6,325.6c0,3.5,1,6.3,3.1,8.4
			c2.1,2.2,5,3.2,8.9,3.2c1.8,0,3.5-0.3,5.2-1s3.2-1.4,4.6-2.3c1.4-0.9,2.5-1.9,3.4-2.9s1.5-1.9,1.7-2.6v-12.2
			c-1.1-0.4-2.3-0.8-3.6-1.3c-1.1-0.2-2.4-0.5-3.9-0.8s-3.1-0.4-4.8-0.4c-4.8,0-8.4,1-10.9,3.1C573.8,319,572.6,321.9,572.6,325.6z"
			/>
		<path class="st2" d="M641.5,273.1c0-1.2,0.4-2.2,1.3-2.9c0.8-0.7,1.7-1.1,2.7-1.1h6.5c1.9,0,3,0.8,3.4,2.3l3,7.9
			c0.8-1,1.9-2.1,3.3-3.5c1.4-1.4,3.1-2.7,5.1-3.9c2-1.3,4.5-2.3,7.3-3.2c2.8-0.9,6-1.3,9.6-1.3c3,0,5.6,0.3,8,0.8
			c2.3,0.5,4.5,1.3,6.4,2.4c1.9,1.1,3.7,2.4,5.4,3.9c1.7,1.6,3.3,3.3,5,5.4c0.8-1,2-2.2,3.6-3.6c1.6-1.4,3.4-2.8,5.6-4.1
			c2.2-1.3,4.7-2.4,7.6-3.4c2.9-1,6.2-1.4,10-1.4c6.6,0,12,1,16.3,3s7.6,4.7,10,8.2s4.1,7.5,5,12.2c1,4.7,1.4,9.7,1.4,15.1v42.2
			c0,1.1-0.4,2-1.2,2.8s-1.8,1.2-3,1.2h-14.3c-1.1,0-2-0.4-2.8-1.2c-0.8-0.8-1.2-1.7-1.2-2.8v-42.9c0-5.4-1.1-9.6-3.2-12.7
			c-2.2-3.1-5.9-4.7-11.2-4.7c-3.1,0-5.7,0.4-7.6,1.3c-1.9,0.9-3.5,1.9-4.7,3c-1.3,1.3-2.4,2.8-3.2,4.3c0,0.8,0.1,1.7,0.2,2.5
			c0,0.7,0,1.6,0.1,2.5c0.1,1,0.1,1.9,0.1,2.9v43.8c0,1.1-0.4,2-1.2,2.8s-1.7,1.2-2.7,1.2h-14.6c-1.2,0-2.1-0.4-2.8-1.2
			c-0.7-0.8-1.1-1.7-1.1-2.8v-42.9c0-5.4-0.9-9.6-2.8-12.7c-1.9-3.1-5.5-4.7-10.8-4.7c-2.5,0-4.7,0.4-6.5,1.3
			c-1.8,0.8-3.3,1.9-4.6,3.1s-2.3,2.6-3,4.1c-0.8,1.5-1.4,3-1.9,4.4v47.4c0,1.1-0.4,2-1.3,2.8c-0.8,0.8-1.7,1.2-2.7,1.2h-14.5
			c-1,0-1.9-0.4-2.7-1.2c-0.8-0.8-1.3-1.7-1.3-2.8L641.5,273.1L641.5,273.1z"/>
		<path class="st2" d="M867.4,353.8c-5.6,0-10.6-0.5-15-1.5s-8.1-2.3-11.3-3.7c-3.2-1.5-5.8-3-8-4.6c-2.2-1.6-3.9-2.9-5.2-4
			c-1-0.7-1.6-1.4-1.8-2.1s0.1-1.8,0.9-3.2l6.5-11.1c0.7-1.3,1.7-2,3-2.1c1.3-0.1,2.3,0.2,3.1,0.8c3.7,2.8,7.7,5.3,11.9,7.6
			c4.2,2.3,9.3,3.5,15.2,3.5c4.7,0,8.5-1.3,11.7-4c3.1-2.7,4.7-6,4.7-9.8c0-4.6-1.9-8.5-5.7-11.9c-3.8-3.4-9.5-6.6-17-9.7
			c-4.2-1.7-8.3-3.7-12.4-5.9c-4.1-2.3-7.7-5-10.8-8.1c-3.2-3.1-5.7-6.7-7.6-10.8c-1.9-4.1-2.9-8.7-2.9-14c0-4,0.8-8,2.3-12.1
			c1.6-4.1,3.9-7.8,7.2-11.1c3.2-3.3,7.4-6,12.5-8.1s11.2-3.1,18.4-3.1c4.5,0,8.8,0.5,12.8,1.5s7.6,2.2,10.7,3.5
			c3.1,1.3,5.7,2.6,7.8,3.9s3.6,2.3,4.6,3c1,0.6,1.5,1.5,1.7,2.7s0,2.3-0.6,3.2l-6.8,10.2c-0.7,1.1-1.7,1.9-2.9,2.4
			s-2.3,0.4-3.4-0.3c-3.8-2.4-7.7-4.6-11.6-6.7c-3.9-2.1-8.3-3.1-13.4-3.1c-5.1,0-9.1,1.2-11.7,3.7c-2.7,2.5-4,5.4-4,8.9
			c0,4.2,1.7,7.8,5.1,10.9c3.4,3.1,8.8,6.2,16,9.1c4.3,1.8,8.7,3.8,13.2,6.1c4.5,2.3,8.5,5,12.1,8.2s6.5,6.9,8.8,11.2
			c2.3,4.3,3.4,9.3,3.4,15.1c0,4.7-1,9.1-2.9,13.4c-1.9,4.2-4.7,8-8.2,11.3c-3.6,3.3-7.9,5.9-13,7.9
			C879.4,352.8,873.7,353.8,867.4,353.8z"/>
		<path class="st2" d="M923.5,273.1c0-1.2,0.4-2.2,1.3-2.9c0.8-0.7,1.7-1.1,2.7-1.1h6.5c1.9,0,3,0.8,3.4,2.3l3,7.9
			c0.8-1,1.9-2.1,3.3-3.5c1.4-1.4,3.1-2.7,5.1-3.9c2-1.3,4.5-2.3,7.3-3.2c2.8-0.9,6-1.3,9.6-1.3c3,0,5.6,0.3,8,0.8
			c2.3,0.5,4.5,1.3,6.4,2.4c1.9,1.1,3.7,2.4,5.4,3.9c1.7,1.6,3.3,3.3,5,5.4c0.8-1,2-2.2,3.6-3.6c1.6-1.4,3.4-2.8,5.6-4.1
			c2.2-1.3,4.7-2.4,7.6-3.4c2.9-1,6.2-1.4,10-1.4c6.6,0,12,1,16.3,3s7.6,4.7,10,8.2s4.1,7.5,5,12.2c1,4.7,1.4,9.7,1.4,15.1v42.2
			c0,1.1-0.4,2-1.2,2.8c-0.8,0.8-1.8,1.2-3,1.2h-14.3c-1.1,0-2-0.4-2.8-1.2c-0.8-0.8-1.2-1.7-1.2-2.8v-42.9c0-5.4-1.1-9.6-3.2-12.7
			c-2.2-3.1-5.9-4.7-11.2-4.7c-3.1,0-5.7,0.4-7.6,1.3c-1.9,0.9-3.5,1.9-4.7,3c-1.3,1.3-2.4,2.8-3.2,4.3c0,0.8,0.1,1.7,0.2,2.5
			c0,0.7,0,1.6,0.1,2.5c0.1,1,0.1,1.9,0.1,2.9v43.8c0,1.1-0.4,2-1.2,2.8s-1.7,1.2-2.7,1.2h-14.6c-1.2,0-2.1-0.4-2.8-1.2
			c-0.7-0.8-1.1-1.7-1.1-2.8v-42.9c0-5.4-0.9-9.6-2.8-12.7c-1.9-3.1-5.5-4.7-10.8-4.7c-2.5,0-4.7,0.4-6.5,1.3
			c-1.8,0.8-3.3,1.9-4.6,3.1s-2.3,2.6-3,4.1c-0.8,1.5-1.4,3-1.9,4.4v47.4c0,1.1-0.4,2-1.3,2.8c-0.8,0.8-1.7,1.2-2.7,1.2h-14.5
			c-1,0-1.9-0.4-2.7-1.2c-0.8-0.8-1.3-1.7-1.3-2.8L923.5,273.1L923.5,273.1z"/>
		<path class="st2" d="M1064.5,325.6c0-3.7,0.7-7.1,2.2-10.3s3.6-5.9,6.5-8.2c2.8-2.3,6.2-4.2,10.3-5.5c4.1-1.3,8.7-2,14-2
			c2,0,4,0.2,6,0.4c2,0.3,3.7,0.6,5.1,0.8c1.7,0.4,3.3,0.7,4.8,1.1c0.2-5.4-0.5-9.3-2.2-11.8s-4.8-3.8-9.2-3.8c-1.9,0-4,0.1-6.2,0.3
			c-2.2,0.2-4.4,0.4-6.5,0.7c-2.2,0.3-4.2,0.6-6,1c-1.9,0.4-3.4,0.7-4.6,1.1c-1.3,0.5-2.4,0.3-3.1-0.4c-0.8-0.8-1.3-1.8-1.5-3.1
			l-1.8-9.3c-0.4-1.6-0.2-2.7,0.4-3.5s1.4-1.3,2.3-1.5c0.5-0.1,1.6-0.4,3.3-0.9c1.7-0.5,3.9-1,6.5-1.4c2.6-0.5,5.5-0.9,8.7-1.3
			c3.2-0.4,6.5-0.5,9.9-0.5c6.5,0,11.7,0.8,15.8,2.4c4.1,1.6,7.2,4,9.5,7.1c2.3,3.1,3.8,6.9,4.7,11.4c0.8,4.5,1.3,9.5,1.3,15.2v44.5
			c0,1.1-0.4,2-1.2,2.8c-0.8,0.8-1.7,1.2-2.8,1.2h-6.1c-0.7,0-1.3-0.2-1.9-0.5s-1.1-1.1-1.7-2.3l-2.3-5.6c-2.4,2.4-5.7,4.7-10,7
			c-4.2,2.3-9.6,3.4-16,3.4c-8.2,0-15-2.5-20.2-7.4C1067.1,341.6,1064.5,334.6,1064.5,325.6z M1086,325.6c0,3.5,1,6.3,3.1,8.4
			c2.1,2.2,5,3.2,8.9,3.2c1.8,0,3.5-0.3,5.2-1s3.2-1.4,4.6-2.3c1.4-0.9,2.5-1.9,3.4-2.9s1.5-1.9,1.7-2.6v-12.2
			c-1.1-0.4-2.3-0.8-3.6-1.3c-1.1-0.2-2.4-0.5-3.9-0.8s-3.1-0.4-4.8-0.4c-4.8,0-8.4,1-10.9,3.1C1087.2,319,1086,321.9,1086,325.6z"
			/>
		<path class="st2" d="M1154.9,273.1c0-1.2,0.4-2.2,1.3-2.9c0.8-0.7,1.7-1.1,2.7-1.1h6.6c1.7,0,2.9,0.9,3.6,2.7l3,8.1
			c0.7-1.1,1.7-2.3,3-3.8c1.3-1.4,3-2.8,4.9-4.1c2-1.3,4.2-2.4,6.7-3.3c2.5-0.9,5.4-1.3,8.6-1.3c2.5,0,4.8,0.2,7,0.5
			c2.2,0.4,3.9,0.9,5.4,1.5c1.4,0.7,2.5,1.5,3.1,2.5c0.7,1,0.7,2.2,0.1,3.5l-5.4,12.2c-1,2.2-2.6,2.8-4.8,1.8c-1-0.5-2-0.9-3.1-1.2
			c-1.1-0.3-2.7-0.4-4.6-0.4c-2.3,0-4.3,0.3-6.1,1c-1.8,0.7-3.3,1.4-4.7,2.3c-1.3,0.9-2.4,1.8-3.2,2.8c-0.8,1-1.4,1.8-1.8,2.5v51.7
			c0,1.6-0.4,2.6-1.3,3.1s-2,0.8-3.3,0.8h-13.8c-1,0-1.9-0.4-2.7-1.2c-0.8-0.8-1.3-1.7-1.3-2.8v-74.9H1154.9z"/>
		<path class="st2" d="M1228,289.2h-8.1c-1.1,0-2-0.4-2.7-1.3c-0.7-0.8-1.1-1.7-1.1-2.7v-12.1c0-1.2,0.4-2.2,1.1-2.9
			c0.7-0.7,1.6-1.1,2.7-1.1h8.1v-23c0-1.1,0.4-2,1.3-2.8c0.8-0.8,1.7-1.2,2.7-1.2h14.7c1.1,0,2,0.4,2.7,1.2c0.7,0.8,1.1,1.7,1.1,2.8
			v23h19.4c1.1,0,2,0.4,2.8,1.1s1.2,1.7,1.2,2.9v12.2c0,1-0.4,1.9-1.2,2.7c-0.8,0.8-1.7,1.3-2.8,1.3h-19.4v37.5
			c0,2.8,0.6,4.6,1.9,5.5c1.3,0.9,2.9,1.4,4.9,1.4c0.8,0,1.9-0.1,3.1-0.4c1.3-0.2,2.5-0.5,3.7-0.7s2.3-0.5,3.3-0.8s1.8-0.6,2.4-0.8
			c1.2-0.5,2.2-0.5,3,0s1.4,1.2,1.6,2.2l2.3,10.8c0.5,2.1-0.3,3.7-2.3,4.8c-0.7,0.4-1.9,0.9-3.7,1.5c-1.7,0.7-3.7,1.2-5.8,1.8
			c-2.2,0.5-4.5,1-6.9,1.4c-2.5,0.4-4.8,0.6-6.9,0.6c-4.7,0-8.5-0.7-11.5-2.2c-3-1.4-5.4-3.4-7.1-5.8c-1.7-2.4-2.9-5.3-3.6-8.5
			s-1-6.6-1-10.2v-38.2H1228z"/>
		<path class="st2" d="M1326.1,325.6c0-3.7,0.7-7.1,2.2-10.3s3.6-5.9,6.5-8.2c2.8-2.3,6.2-4.2,10.3-5.5c4.1-1.3,8.7-2,14-2
			c2,0,4,0.2,6,0.4c2,0.3,3.7,0.6,5.1,0.8c1.7,0.4,3.3,0.7,4.8,1.1c0.2-5.4-0.5-9.3-2.2-11.8s-4.8-3.8-9.2-3.8c-1.9,0-4,0.1-6.2,0.3
			c-2.2,0.2-4.4,0.4-6.5,0.7c-2.2,0.3-4.2,0.6-6,1c-1.9,0.4-3.4,0.7-4.6,1.1c-1.3,0.5-2.4,0.3-3.1-0.4c-0.8-0.8-1.3-1.8-1.5-3.1
			l-1.8-9.3c-0.4-1.6-0.2-2.7,0.4-3.5s1.4-1.3,2.3-1.5c0.5-0.1,1.6-0.4,3.3-0.9c1.7-0.5,3.9-1,6.5-1.4c2.6-0.5,5.5-0.9,8.7-1.3
			c3.2-0.4,6.5-0.5,9.9-0.5c6.5,0,11.7,0.8,15.8,2.4c4.1,1.6,7.2,4,9.5,7.1c2.3,3.1,3.8,6.9,4.7,11.4c0.8,4.5,1.3,9.5,1.3,15.2v44.5
			c0,1.1-0.4,2-1.2,2.8c-0.8,0.8-1.7,1.2-2.8,1.2h-6.1c-0.7,0-1.3-0.2-1.9-0.5s-1.1-1.1-1.7-2.3l-2.3-5.6c-2.4,2.4-5.7,4.7-10,7
			c-4.2,2.3-9.6,3.4-16,3.4c-8.2,0-15-2.5-20.2-7.4C1328.7,341.6,1326.1,334.6,1326.1,325.6z M1347.6,325.6c0,3.5,1,6.3,3.1,8.4
			c2.1,2.2,5,3.2,8.9,3.2c1.8,0,3.5-0.3,5.2-1s3.2-1.4,4.6-2.3c1.4-0.9,2.5-1.9,3.4-2.9s1.5-1.9,1.7-2.6v-12.2
			c-1.1-0.4-2.3-0.8-3.6-1.3c-1.1-0.2-2.4-0.5-3.9-0.8s-3.1-0.4-4.8-0.4c-4.8,0-8.4,1-10.9,3.1
			C1348.9,319,1347.6,321.9,1347.6,325.6z"/>
		<path class="st2" d="M1416.5,273.1c0-1.2,0.4-2.2,1.3-2.9c0.8-0.7,1.7-1.1,2.7-1.1h6.8c1.7,0,2.8,0.8,3.4,2.5l3,7.7
			c0.7-0.8,1.8-1.9,3.1-3.3c1.4-1.4,3.1-2.7,5.3-3.9c2.2-1.2,4.8-2.4,7.8-3.3c3-1,6.5-1.4,10.5-1.4c6.6,0,12,1,16.3,3
			s7.7,4.8,10.2,8.3s4.2,7.6,5.2,12.1s1.4,9.3,1.4,14.3v43c0,1.1-0.4,2-1.3,2.8c-0.8,0.8-1.7,1.2-2.7,1.2H1475c-1.1,0-2-0.4-2.8-1.2
			c-0.8-0.8-1.2-1.7-1.2-2.8v-42.9c0-5.4-1.1-9.6-3.4-12.7c-2.3-3.1-5.9-4.7-10.9-4.7c-2.8,0-5.1,0.4-7.1,1.3
			c-2,0.8-3.7,1.9-5.1,3.1s-2.6,2.6-3.6,4.1s-1.7,3-2.2,4.4v47.4c0,1.6-0.4,2.6-1.1,3.1s-2.1,0.8-4.1,0.8h-13.3
			c-1,0-1.9-0.4-2.7-1.2c-0.8-0.8-1.3-1.7-1.3-2.8v-74.9H1416.5z"/>
		<path class="st2" d="M1508.8,310.6c0-6.1,1-11.8,3-17c2-5.3,4.8-9.8,8.3-13.7c3.6-3.9,7.9-6.9,12.9-9.1s10.6-3.3,16.9-3.3
			c4.2,0,8.1,0.4,11.7,1.2c3.6,0.8,6.3,1.5,8.2,2.2v-40.3c0-1,0.4-1.9,1.3-2.7c0.8-0.8,1.7-1.3,2.7-1.3h14.5c1.1,0,2,0.4,2.8,1.3
			c0.8,0.8,1.2,1.7,1.2,2.7v117.5c0,1.1-0.4,2-1.2,2.8c-0.8,0.8-1.7,1.2-2.8,1.2h-6.6c-1.8,0-3.1-1.3-3.9-3.9l-2.2-6.5
			c-2,2.4-4.4,4.5-7,6.3c-2.4,1.6-5.2,3-8.5,4.2c-3.3,1.3-7.1,1.9-11.6,1.9c-5.6,0-10.8-1.1-15.7-3.2c-4.8-2.2-9-5.2-12.6-9.1
			c-3.5-3.9-6.3-8.5-8.3-13.7C1509.8,322.8,1508.8,316.9,1508.8,310.6z M1569.8,292.5c-1.3-0.8-2.9-1.6-4.7-2.3
			c-1.6-0.6-3.4-1.1-5.5-1.6s-4.5-0.7-7.1-0.7c-3.5,0-6.5,0.6-9.1,1.9s-4.7,3-6.4,5.1c-1.7,2.2-3,4.6-3.9,7.4s-1.3,5.6-1.3,8.4
			s0.4,5.7,1.3,8.4c0.8,2.8,2.1,5.2,3.7,7.4c1.6,2.2,3.6,3.9,6.1,5.2c2.4,1.3,5.3,2,8.5,2c2.6,0,5-0.4,7.1-1.2
			c2.1-0.8,3.9-1.7,5.4-2.9c1.5-1.1,2.7-2.4,3.7-3.7s1.7-2.6,2.2-3.8L1569.8,292.5L1569.8,292.5z"/>
		<path class="st2" d="M1692.6,353.8c-5.6,0-10.6-0.5-15-1.5s-8.1-2.3-11.3-3.7c-3.2-1.5-5.8-3-8-4.6c-2.2-1.6-3.9-2.9-5.2-4
			c-1-0.7-1.6-1.4-1.8-2.1c-0.2-0.7,0.1-1.8,0.9-3.2l6.5-11.1c0.7-1.3,1.7-2,3-2.1c1.3-0.1,2.3,0.2,3.1,0.8
			c3.7,2.8,7.7,5.3,11.9,7.6c4.2,2.3,9.3,3.5,15.2,3.5c4.7,0,8.5-1.3,11.7-4c3.1-2.7,4.7-6,4.7-9.8c0-4.6-1.9-8.5-5.7-11.9
			c-3.8-3.4-9.5-6.6-17-9.7c-4.2-1.7-8.3-3.7-12.4-5.9c-4.1-2.3-7.7-5-10.8-8.1c-3.2-3.1-5.7-6.7-7.6-10.8s-2.9-8.7-2.9-14
			c0-4,0.8-8,2.3-12.1c1.6-4.1,3.9-7.8,7.2-11.1c3.2-3.3,7.4-6,12.5-8.1s11.2-3.1,18.4-3.1c4.5,0,8.8,0.5,12.8,1.5s7.6,2.2,10.7,3.5
			s5.7,2.6,7.8,3.9c2.1,1.3,3.6,2.3,4.6,3c1,0.6,1.5,1.5,1.7,2.7s0,2.3-0.6,3.2l-6.8,10.2c-0.7,1.1-1.7,1.9-2.9,2.4
			c-1.2,0.5-2.3,0.4-3.4-0.3c-3.8-2.4-7.7-4.6-11.6-6.7s-8.3-3.1-13.4-3.1s-9.1,1.2-11.7,3.7c-2.7,2.5-4,5.4-4,8.9
			c0,4.2,1.7,7.8,5.1,10.9c3.4,3.1,8.8,6.2,16,9.1c4.3,1.8,8.7,3.8,13.2,6.1c4.5,2.3,8.5,5,12.1,8.2s6.5,6.9,8.8,11.2
			c2.3,4.3,3.4,9.3,3.4,15.1c0,4.7-1,9.1-2.9,13.4c-1.9,4.2-4.7,8-8.2,11.3c-3.6,3.3-7.9,5.9-13,7.9
			C1704.7,352.8,1699,353.8,1692.6,353.8z"/>
		<path class="st2" d="M1747.9,273.1c0-1.2,0.4-2.2,1.2-2.9c0.8-0.7,1.7-1.1,2.8-1.1h14.5c1.1,0,2,0.4,2.8,1.1s1.2,1.7,1.2,2.9V317
			c0,5.5,1,9.6,3.1,12.4s5.7,4.1,10.8,4.1c2.3,0,4.3-0.5,6-1.4c1.7-1,3.2-2.2,4.3-3.6c1.1-1.4,2.1-3.1,2.8-4.9
			c0.7-1.9,1.3-3.7,1.6-5.5v-45c0-1.7,0.3-2.7,1-3.2s1.8-0.7,3.5-0.7h14c1.1,0,2,0.4,2.8,1.1s1.2,1.7,1.2,2.9v75
			c0,1.1-0.4,2-1.2,2.8c-0.8,0.8-1.7,1.2-2.8,1.2h-6.5c-1,0-1.8-0.3-2.5-0.9c-0.7-0.6-1.2-1.3-1.4-2.2l-2.3-7
			c-1.1,1.1-2.4,2.3-4,3.8c-1.6,1.4-3.5,2.8-5.6,3.9c-2.2,1.2-4.5,2.2-7.2,3c-2.6,0.8-5.6,1.3-8.8,1.3c-6.5,0-11.7-0.9-15.7-2.8
			c-4-1.9-7.2-4.5-9.5-7.8s-3.9-7.3-4.8-11.7c-0.8-4.5-1.3-9.4-1.3-14.6V273.1z"/>
		<path class="st2" d="M1867.1,354c-6.9,0-12.6-0.8-16.9-2.5c-4.4-1.7-7.7-3.3-10.1-5c-0.6-0.4-1-1-1.3-1.8s-0.2-1.7,0.3-2.7
			l5.4-10.8c0.5-1,1.2-1.6,2.1-1.9s1.8-0.1,2.8,0.4c1.9,1.2,4.4,2.4,7.4,3.6s6.6,1.8,10.9,1.8c3.1,0,5.4-0.5,6.9-1.6
			c1.5-1.1,2.2-2.5,2.2-4.3c0-1.9-1.2-3.8-3.7-5.6c-2.5-1.8-6.4-3.8-11.9-5.9c-8-3.1-13.9-6.7-17.6-10.7s-5.6-9.2-5.6-15.5
			c0-3.1,0.6-6.1,1.8-9.1c1.2-2.9,3-5.5,5.5-7.7c2.4-2.2,5.6-4,9.3-5.4c3.8-1.4,8.2-2.1,13.2-2.1c6.1,0,11.1,0.7,15.2,2
			c4,1.3,7.1,2.7,9.4,4.1c1,0.7,1.6,1.6,2.1,2.6c0.4,1,0.3,2.1-0.3,3.1l-4.7,9.5c-0.6,1-1.4,1.6-2.3,1.8c-1,0.2-1.9,0.2-2.9-0.2
			c-2-1-4.4-1.9-7.2-2.8c-2.8-0.9-5.9-1.3-9.3-1.3c-2.8,0-4.8,0.6-6,1.7c-1.3,1.1-1.9,2.4-1.9,3.7c0,1.9,1,3.5,3,4.7s5,2.6,8.8,4.3
			c3.9,1.7,7.6,3.3,11,4.9c3.4,1.6,6.3,3.5,8.7,5.6c2.4,2.2,4.3,4.7,5.6,7.6c1.4,2.9,2.1,6.4,2.1,10.5c0,3.2-0.7,6.3-2.1,9.3
			s-3.4,5.6-6.1,7.9s-6,4.1-10,5.5C1876.8,353.3,1872.3,354,1867.1,354z"/>
		<path class="st2" d="M1920.4,289.2h-8.1c-1.1,0-2-0.4-2.7-1.3c-0.7-0.8-1.1-1.7-1.1-2.7v-12.1c0-1.2,0.4-2.2,1.1-2.9
			c0.7-0.7,1.6-1.1,2.7-1.1h8.1v-23c0-1.1,0.4-2,1.3-2.8c0.8-0.8,1.7-1.2,2.7-1.2h14.7c1.1,0,2,0.4,2.7,1.2c0.7,0.8,1.1,1.7,1.1,2.8
			v23h19.4c1.1,0,2,0.4,2.8,1.1s1.2,1.7,1.2,2.9v12.2c0,1-0.4,1.9-1.2,2.7c-0.8,0.8-1.7,1.3-2.8,1.3h-19.4v37.5
			c0,2.8,0.6,4.6,1.9,5.5c1.3,0.9,2.9,1.4,4.9,1.4c0.8,0,1.9-0.1,3.1-0.4c1.3-0.2,2.5-0.5,3.7-0.7s2.3-0.5,3.3-0.8s1.8-0.6,2.4-0.8
			c1.2-0.5,2.2-0.5,3,0s1.4,1.2,1.6,2.2l2.3,10.8c0.5,2.1-0.3,3.7-2.3,4.8c-0.7,0.4-1.9,0.9-3.7,1.5c-1.7,0.7-3.7,1.2-5.8,1.8
			c-2.2,0.5-4.5,1-6.9,1.4c-2.5,0.4-4.8,0.6-6.9,0.6c-4.7,0-8.5-0.7-11.5-2.2c-3-1.4-5.4-3.4-7.1-5.8c-1.7-2.4-2.9-5.3-3.6-8.5
			s-1-6.6-1-10.2v-38.2H1920.4z"/>
		<path class="st2" d="M1977.2,325.6c0-3.7,0.7-7.1,2.2-10.3s3.6-5.9,6.5-8.2c2.8-2.3,6.2-4.2,10.3-5.5c4.1-1.3,8.7-2,14-2
			c2,0,4,0.2,6,0.4c2,0.3,3.7,0.6,5.1,0.8c1.7,0.4,3.3,0.7,4.8,1.1c0.2-5.4-0.5-9.3-2.2-11.8s-4.8-3.8-9.2-3.8c-1.9,0-4,0.1-6.2,0.3
			c-2.2,0.2-4.4,0.4-6.5,0.7c-2.2,0.3-4.2,0.6-6,1c-1.9,0.4-3.4,0.7-4.6,1.1c-1.3,0.5-2.4,0.3-3.1-0.4c-0.8-0.8-1.3-1.8-1.5-3.1
			l-1.8-9.3c-0.4-1.6-0.2-2.7,0.4-3.5s1.4-1.3,2.3-1.5c0.5-0.1,1.6-0.4,3.3-0.9c1.7-0.5,3.9-1,6.5-1.4c2.6-0.5,5.5-0.9,8.7-1.3
			c3.2-0.4,6.5-0.5,9.9-0.5c6.5,0,11.7,0.8,15.8,2.4c4.1,1.6,7.2,4,9.5,7.1c2.3,3.1,3.8,6.9,4.7,11.4c0.8,4.5,1.3,9.5,1.3,15.2v44.5
			c0,1.1-0.4,2-1.2,2.8c-0.8,0.8-1.7,1.2-2.8,1.2h-6.1c-0.7,0-1.3-0.2-1.9-0.5s-1.1-1.1-1.7-2.3l-2.3-5.6c-2.4,2.4-5.7,4.7-10,7
			c-4.2,2.3-9.6,3.4-16,3.4c-8.2,0-15-2.5-20.2-7.4C1979.8,341.6,1977.2,334.6,1977.2,325.6z M1998.7,325.6c0,3.5,1,6.3,3.1,8.4
			c2.1,2.2,5,3.2,8.9,3.2c1.8,0,3.5-0.3,5.2-1s3.2-1.4,4.6-2.3c1.4-0.9,2.5-1.9,3.4-2.9s1.5-1.9,1.7-2.6v-12.2
			c-1.1-0.4-2.3-0.8-3.6-1.3c-1.1-0.2-2.4-0.5-3.9-0.8s-3.1-0.4-4.8-0.4c-4.8,0-8.4,1-10.9,3.1C2000,319,1998.7,321.9,1998.7,325.6z
			"/>
		<path class="st2" d="M2078.5,255c-4.1,0-7.4-1.4-10.1-4.2c-2.7-2.8-4-6.2-4-10.1s1.3-7.3,4-10s6.1-4.1,10.1-4.1
			c4.1,0,7.5,1.4,10.2,4.1c2.7,2.8,4.1,6.1,4.1,10s-1.4,7.3-4.1,10.1C2086,253.6,2082.6,255,2078.5,255z M2067.6,273.1
			c0-1.2,0.4-2.2,1.3-2.9c0.8-0.7,1.7-1.1,2.7-1.1h14.5c1,0,1.9,0.4,2.7,1.1s1.3,1.7,1.3,2.9v75c0,1.1-0.4,2-1.3,2.8
			c-0.8,0.8-1.7,1.2-2.7,1.2h-14.5c-1,0-1.9-0.4-2.7-1.2c-0.8-0.8-1.3-1.7-1.3-2.8V273.1z"/>
		<path class="st2" d="M2111.2,273.1c0-1.2,0.4-2.2,1.3-2.9c0.8-0.7,1.7-1.1,2.7-1.1h6.8c1.7,0,2.8,0.8,3.4,2.5l3,7.7
			c0.7-0.8,1.8-1.9,3.1-3.3c1.4-1.4,3.1-2.7,5.3-3.9c2.2-1.3,4.8-2.4,7.8-3.3c3-1,6.5-1.4,10.5-1.4c6.6,0,12,1,16.3,3
			s7.7,4.8,10.2,8.3s4.2,7.6,5.2,12.1s1.4,9.3,1.4,14.3v43c0,1.1-0.4,2-1.3,2.8c-0.8,0.8-1.7,1.2-2.7,1.2h-14.5
			c-1.1,0-2-0.4-2.8-1.2c-0.8-0.8-1.2-1.7-1.2-2.8v-42.9c0-5.4-1.1-9.6-3.4-12.7c-2.3-3.1-5.9-4.7-10.9-4.7c-2.8,0-5.1,0.4-7.1,1.3
			c-2,0.8-3.7,1.9-5.1,3.1s-2.6,2.6-3.6,4.1s-1.7,3-2.2,4.4v47.4c0,1.6-0.4,2.6-1.1,3.1s-2.1,0.8-4.1,0.8h-13.3
			c-1,0-1.9-0.4-2.7-1.2s-1.3-1.7-1.3-2.8v-74.9H2111.2z"/>
		<path class="st2" d="M2202.8,325.6c0-3.7,0.7-7.1,2.2-10.3s3.6-5.9,6.5-8.2c2.8-2.3,6.2-4.2,10.3-5.5s8.7-2,14-2c2,0,4,0.2,6,0.4
			c2,0.3,3.7,0.6,5.1,0.8c1.7,0.4,3.3,0.7,4.8,1.1c0.2-5.4-0.5-9.3-2.2-11.8s-4.8-3.8-9.2-3.8c-1.9,0-4,0.1-6.2,0.3
			c-2.2,0.2-4.4,0.4-6.5,0.7c-2.2,0.3-4.2,0.6-6,1c-1.9,0.4-3.4,0.7-4.6,1.1c-1.3,0.5-2.4,0.3-3.1-0.4c-0.8-0.8-1.3-1.8-1.5-3.1
			l-1.8-9.3c-0.4-1.6-0.2-2.7,0.4-3.5c0.6-0.8,1.4-1.3,2.3-1.5c0.5-0.1,1.6-0.4,3.3-0.9s3.9-1,6.5-1.4c2.6-0.5,5.5-0.9,8.7-1.3
			c3.2-0.4,6.5-0.5,9.9-0.5c6.5,0,11.7,0.8,15.8,2.4c4.1,1.6,7.2,4,9.5,7.1c2.3,3.1,3.8,6.9,4.7,11.4c0.8,4.5,1.3,9.5,1.3,15.2v44.5
			c0,1.1-0.4,2-1.2,2.8s-1.7,1.2-2.8,1.2h-6.1c-0.7,0-1.3-0.2-1.9-0.5s-1.1-1.1-1.7-2.3l-2.3-5.6c-2.4,2.4-5.7,4.7-10,7
			c-4.2,2.3-9.6,3.4-16,3.4c-8.2,0-15-2.5-20.2-7.4C2205.4,341.6,2202.8,334.6,2202.8,325.6z M2224.3,325.6c0,3.5,1,6.3,3.1,8.4
			c2.1,2.2,5,3.2,8.9,3.2c1.8,0,3.5-0.3,5.2-1s3.2-1.4,4.6-2.3c1.4-0.9,2.5-1.9,3.4-2.9s1.5-1.9,1.7-2.6v-12.2
			c-1.1-0.4-2.3-0.8-3.6-1.3c-1.1-0.2-2.4-0.5-3.9-0.8s-3.1-0.4-4.8-0.4c-4.8,0-8.4,1-10.9,3.1
			C2225.6,319,2224.3,321.9,2224.3,325.6z"/>
		<path class="st2" d="M2293.2,230.4c0-1,0.4-1.9,1.3-2.7c0.8-0.8,1.7-1.3,2.7-1.3h14.5c1.1,0,2,0.4,2.8,1.3
			c0.8,0.8,1.2,1.7,1.2,2.7v40.5c1.9-0.8,4.7-1.6,8.4-2.4s7.6-1.2,11.8-1.2c6.1,0,11.6,1.1,16.5,3.3s9.2,5.3,12.7,9.1
			c3.5,3.9,6.2,8.5,8,13.7c1.8,5.3,2.8,10.9,2.8,17c0,6-1,11.6-2.9,16.9s-4.6,9.9-8,13.8c-3.5,3.9-7.6,7.1-12.3,9.3
			c-4.8,2.3-10,3.4-15.6,3.4c-4.5,0-8.5-0.6-11.9-1.9s-6.3-2.7-8.7-4.2c-2.8-1.8-5.1-3.9-7-6.3l-2,6.5c-1,2.6-2.3,3.9-4.1,3.9h-6.3
			c-1,0-1.9-0.4-2.7-1.2c-0.8-0.8-1.3-1.7-1.3-2.8V230.4H2293.2z M2315.6,322.1c0.5,1.2,1.2,2.5,2.2,3.8s2.2,2.5,3.7,3.7
			c1.5,1.1,3.3,2.1,5.3,2.9s4.4,1.2,7.2,1.2c3.2,0,6.1-0.7,8.5-2s4.5-3,6.1-5.2s2.8-4.6,3.7-7.4c0.8-2.7,1.3-5.6,1.3-8.4
			s-0.4-5.7-1.3-8.4c-0.9-2.7-2.2-5.2-3.9-7.4c-1.7-2.2-3.8-3.9-6.5-5.1c-2.6-1.3-5.6-1.9-9-1.9c-2.6,0-5,0.2-7.1,0.7
			s-3.9,1-5.5,1.6c-1.8,0.7-3.3,1.5-4.7,2.3V322.1z"/>
		<path class="st2" d="M2392.5,230.4c0-1,0.4-1.9,1.3-2.7c0.8-0.8,1.7-1.3,2.7-1.3h14.5c1,0,1.9,0.4,2.7,1.3
			c0.8,0.8,1.3,1.7,1.3,2.7v117.7c0,1.1-0.4,2-1.3,2.8c-0.8,0.8-1.7,1.2-2.7,1.2h-14.5c-1,0-1.9-0.4-2.7-1.2
			c-0.8-0.8-1.3-1.7-1.3-2.8V230.4z"/>
		<path class="st2" d="M2431.3,310.6c0-5.9,1-11.4,3-16.6s4.9-9.8,8.6-13.7c3.7-3.9,8.1-7.1,13.2-9.4c5.1-2.3,10.7-3.5,16.8-3.5
			c5.4,0,10.3,1,14.9,2.9c4.6,1.9,8.6,4.6,12,8c3.4,3.4,6.1,7.4,8,12.1c2,4.7,3,9.8,3,15.4c0,0.6,0,1.5-0.1,2.7s-0.2,2.1-0.3,2.7
			c-0.1,1.1-0.6,2-1.3,2.7s-1.6,1.1-2.6,1.1h-52.9c0,2.5,0.5,4.9,1.6,7.3c1.1,2.3,2.5,4.4,4.3,6.2s3.9,3.2,6.5,4.2
			c2.5,1,5.3,1.5,8.2,1.5c4.2,0,7.7-0.6,10.6-1.9c2.9-1.3,5.3-2.7,7.2-4.2c1-0.8,1.9-1.3,3-1.3c1-0.1,1.8,0.4,2.4,1.3l7,9.3
			c0.7,0.8,1.1,1.7,1.1,2.6c0,0.9-0.5,1.8-1.4,2.8c-3.6,3.1-7.9,5.8-13,8s-11,3.3-17.8,3.3c-6.2,0-11.9-1.1-17-3.4
			s-9.6-5.4-13.3-9.3c-3.7-3.9-6.6-8.5-8.6-13.8C2432.3,322.2,2431.3,316.6,2431.3,310.6z M2488.5,300.2c-0.2-4.1-1.8-7.5-4.8-10.2
			c-2.9-2.7-6.7-4.1-11.2-4.1c-5,0-9.1,1.3-12.1,4s-4.9,6.1-5.5,10.3L2488.5,300.2L2488.5,300.2z"/>
		<path class="st2" d="M2563.8,289.4c0-9,1.7-17.4,5.1-25.3c3.4-7.9,8-14.7,13.8-20.5s12.6-10.4,20.5-13.8s16.3-5.1,25.3-5.1
			c9.1,0,17.1,1.4,23.9,4.2c6.9,2.8,13.4,7,19.5,12.5c1.8,1.7,1.9,3.3,0.2,5l-10.9,11.3c-1.4,1.6-2.9,1.6-4.5,0
			c-3.8-3.3-8.1-5.9-12.9-7.8c-4.8-1.9-9.7-2.8-14.7-2.8c-5.7,0-11.1,1.1-16,3.3c-4.9,2.2-9.1,5.2-12.6,9.1
			c-3.5,3.8-6.3,8.3-8.3,13.4c-2,5.1-3,10.4-3,16c0,5.6,1,10.9,3,16c2,5,4.8,9.4,8.4,13.2c3.6,3.8,7.8,6.8,12.7,9s10.2,3.3,16,3.3
			c5.4,0,10.3-0.9,14.9-2.8c4.5-1.9,8.7-4.3,12.6-7.4c0.7-0.6,1.5-0.9,2.3-0.9s1.6,0.3,2.2,0.9l11.1,11.5c0.7,0.6,1,1.4,0.9,2.4
			s-0.5,1.8-1.1,2.4c-6.1,6-12.9,10.4-20.4,13.2s-15.2,4.2-23.2,4.2c-9,0-17.4-1.7-25.3-5s-14.7-7.9-20.5-13.7
			c-5.8-5.8-10.4-12.6-13.8-20.4C2565.5,306.8,2563.8,298.4,2563.8,289.4z"/>
		<path class="st2" d="M2699.9,255c-4.1,0-7.4-1.4-10.1-4.2c-2.7-2.8-4-6.2-4-10.1s1.3-7.3,4-10s6.1-4.1,10.1-4.1
			c4.1,0,7.5,1.4,10.2,4.1c2.7,2.8,4.1,6.1,4.1,10s-1.4,7.3-4.1,10.1C2707.4,253.6,2703.9,255,2699.9,255z M2688.9,273.1
			c0-1.2,0.4-2.2,1.3-2.9c0.8-0.7,1.7-1.1,2.7-1.1h14.5c1,0,1.9,0.4,2.7,1.1s1.3,1.7,1.3,2.9v75c0,1.1-0.4,2-1.3,2.8
			c-0.8,0.8-1.7,1.2-2.7,1.2h-14.5c-1,0-1.9-0.4-2.7-1.2c-0.8-0.8-1.3-1.7-1.3-2.8V273.1z"/>
		<path class="st2" d="M2738.1,289.2h-8.1c-1.1,0-2-0.4-2.7-1.3c-0.7-0.8-1.1-1.7-1.1-2.7v-12.1c0-1.2,0.4-2.2,1.1-2.9
			c0.7-0.7,1.6-1.1,2.7-1.1h8.1v-23c0-1.1,0.4-2,1.3-2.8c0.8-0.8,1.7-1.2,2.7-1.2h14.7c1.1,0,2,0.4,2.7,1.2c0.7,0.8,1.1,1.7,1.1,2.8
			v23h19.4c1.1,0,2,0.4,2.8,1.1s1.2,1.7,1.2,2.9v12.2c0,1-0.4,1.9-1.2,2.7s-1.7,1.3-2.8,1.3h-19.4v37.5c0,2.8,0.6,4.6,1.9,5.5
			c1.3,0.9,2.9,1.4,4.9,1.4c0.8,0,1.9-0.1,3.1-0.4c1.3-0.2,2.5-0.5,3.7-0.7s2.3-0.5,3.3-0.8s1.8-0.6,2.4-0.8c1.2-0.5,2.2-0.5,3,0
			s1.4,1.2,1.6,2.2l2.3,10.8c0.5,2.1-0.3,3.7-2.3,4.8c-0.7,0.4-1.9,0.9-3.7,1.5c-1.7,0.7-3.7,1.2-5.8,1.8c-2.2,0.5-4.5,1-6.9,1.4
			c-2.5,0.4-4.8,0.6-6.9,0.6c-4.7,0-8.5-0.7-11.5-2.2c-3-1.4-5.4-3.4-7.1-5.8c-1.7-2.4-2.9-5.3-3.6-8.5c-0.7-3.2-1-6.6-1-10.2v-38.2
			H2738.1z"/>
		<path class="st2" d="M2793,274.5c-0.6-1.4-0.6-2.7,0.1-3.8c0.7-1.1,1.8-1.6,3.5-1.6h17.2c1.9,0,3,0.8,3.4,2.3l14.9,49.5h0.4
			l18.8-49.5c0.6-1.1,1.3-1.7,2.1-2c0.8-0.2,1.8-0.4,3.1-0.4h15.2c1.7,0,2.8,0.6,3.5,1.7c0.7,1.1,0.7,2.4,0.1,3.7L2826.5,392
			c-0.2,0.6-0.7,1.2-1.3,1.7c-0.7,0.5-1.4,0.8-2.2,0.8h-17.2c-1.7,0-2.8-0.6-3.5-1.7c-0.7-1.1-0.7-2.4-0.1-3.9l16.7-42L2793,274.5z"
			/>
		<path class="st2" d="M2929.2,229.9c0-1,0.3-1.8,1-2.4c0.7-0.7,1.5-1,2.4-1h16.7c1,0,1.8,0.3,2.4,1c0.7,0.7,1,1.5,1,2.4v118.7
			c0,1-0.3,1.8-1,2.4c-0.7,0.7-1.5,1-2.4,1h-16.7c-1,0-1.8-0.3-2.4-1c-0.7-0.7-1-1.5-1-2.4V229.9z"/>
		<path class="st2" d="M2975.9,273.1c0-1.2,0.4-2.2,1.3-2.9c0.8-0.7,1.7-1.1,2.7-1.1h6.8c1.7,0,2.8,0.8,3.4,2.5l3,7.7
			c0.7-0.8,1.8-1.9,3.1-3.3c1.4-1.4,3.1-2.7,5.3-3.9c2.2-1.3,4.8-2.4,7.8-3.3c3-1,6.5-1.4,10.5-1.4c6.6,0,12,1,16.3,3
			s7.7,4.8,10.2,8.3s4.2,7.6,5.2,12.1s1.4,9.3,1.4,14.3v43c0,1.1-0.4,2-1.3,2.8c-0.8,0.8-1.7,1.2-2.7,1.2h-14.5
			c-1.1,0-2-0.4-2.8-1.2c-0.8-0.8-1.2-1.7-1.2-2.8v-42.9c0-5.4-1.1-9.6-3.4-12.7c-2.3-3.1-5.9-4.7-10.9-4.7c-2.8,0-5.1,0.4-7.1,1.3
			c-2,0.8-3.7,1.9-5.1,3.1s-2.6,2.6-3.6,4.1s-1.7,3-2.2,4.4v47.4c0,1.6-0.4,2.6-1.1,3.1s-2.1,0.8-4.1,0.8h-13.3
			c-1,0-1.9-0.4-2.7-1.2s-1.3-1.7-1.3-2.8v-74.9H2975.9z"/>
		<path class="st2" d="M3084.2,255c-4.1,0-7.4-1.4-10.1-4.2c-2.7-2.8-4-6.2-4-10.1s1.3-7.3,4-10s6.1-4.1,10.1-4.1
			c4.1,0,7.5,1.4,10.2,4.1c2.7,2.8,4.1,6.1,4.1,10s-1.4,7.3-4.1,10.1C3091.6,253.6,3088.2,255,3084.2,255z M3073.2,273.1
			c0-1.2,0.4-2.2,1.3-2.9c0.8-0.7,1.7-1.1,2.7-1.1h14.5c1,0,1.9,0.4,2.7,1.1s1.3,1.7,1.3,2.9v75c0,1.1-0.4,2-1.3,2.8
			c-0.8,0.8-1.7,1.2-2.7,1.2h-14.5c-1,0-1.9-0.4-2.7-1.2c-0.8-0.8-1.3-1.7-1.3-2.8V273.1z"/>
		<path class="st2" d="M3122.4,289.2h-8.1c-1.1,0-2-0.4-2.7-1.3c-0.7-0.8-1.1-1.7-1.1-2.7v-12.1c0-1.2,0.4-2.2,1.1-2.9
			c0.7-0.7,1.6-1.1,2.7-1.1h8.1v-23c0-1.1,0.4-2,1.3-2.8c0.8-0.8,1.7-1.2,2.7-1.2h14.7c1.1,0,2,0.4,2.7,1.2c0.7,0.8,1.1,1.7,1.1,2.8
			v23h19.4c1.1,0,2,0.4,2.8,1.1s1.2,1.7,1.2,2.9v12.2c0,1-0.4,1.9-1.2,2.7s-1.7,1.3-2.8,1.3h-19.4v37.5c0,2.8,0.6,4.6,1.9,5.5
			c1.3,0.9,2.9,1.4,4.9,1.4c0.8,0,1.9-0.1,3.1-0.4c1.3-0.2,2.5-0.5,3.7-0.7s2.3-0.5,3.3-0.8s1.8-0.6,2.4-0.8c1.2-0.5,2.2-0.5,3,0
			s1.4,1.2,1.6,2.2l2.3,10.8c0.5,2.1-0.3,3.7-2.3,4.8c-0.7,0.4-1.9,0.9-3.7,1.5c-1.7,0.7-3.7,1.2-5.8,1.8c-2.2,0.5-4.5,1-6.9,1.4
			c-2.5,0.4-4.8,0.6-6.9,0.6c-4.7,0-8.5-0.7-11.5-2.2c-3-1.4-5.4-3.4-7.1-5.8c-1.7-2.4-2.9-5.3-3.6-8.5c-0.7-3.2-1-6.6-1-10.2v-38.2
			H3122.4z"/>
		<path class="st2" d="M3195.9,255c-4.1,0-7.4-1.4-10.1-4.2c-2.7-2.8-4-6.2-4-10.1s1.3-7.3,4-10s6.1-4.1,10.1-4.1
			c4.1,0,7.5,1.4,10.2,4.1c2.7,2.8,4.1,6.1,4.1,10s-1.4,7.3-4.1,10.1C3203.4,253.6,3200,255,3195.9,255z M3185,273.1
			c0-1.2,0.4-2.2,1.3-2.9c0.8-0.7,1.7-1.1,2.7-1.1h14.5c1,0,1.9,0.4,2.7,1.1s1.3,1.7,1.3,2.9v75c0,1.1-0.4,2-1.3,2.8
			c-0.8,0.8-1.7,1.2-2.7,1.2H3189c-1,0-1.9-0.4-2.7-1.2c-0.8-0.8-1.3-1.7-1.3-2.8V273.1z"/>
		<path class="st2" d="M3222.8,325.6c0-3.7,0.7-7.1,2.2-10.3s3.6-5.9,6.5-8.2c2.8-2.3,6.2-4.2,10.3-5.5s8.7-2,14-2c2,0,4,0.2,6,0.4
			c2,0.3,3.7,0.6,5.1,0.8c1.7,0.4,3.3,0.7,4.8,1.1c0.2-5.4-0.5-9.3-2.2-11.8s-4.8-3.8-9.2-3.8c-1.9,0-4,0.1-6.2,0.3
			c-2.2,0.2-4.4,0.4-6.5,0.7c-2.2,0.3-4.2,0.6-6,1c-1.9,0.4-3.4,0.7-4.6,1.1c-1.3,0.5-2.4,0.3-3.1-0.4c-0.8-0.8-1.3-1.8-1.5-3.1
			l-1.8-9.3c-0.4-1.6-0.2-2.7,0.4-3.5c0.6-0.8,1.4-1.3,2.3-1.5c0.5-0.1,1.6-0.4,3.3-0.9s3.9-1,6.5-1.4c2.6-0.5,5.5-0.9,8.7-1.3
			c3.2-0.4,6.5-0.5,9.9-0.5c6.5,0,11.7,0.8,15.8,2.4c4.1,1.6,7.2,4,9.5,7.1c2.3,3.1,3.8,6.9,4.7,11.4c0.8,4.5,1.3,9.5,1.3,15.2v44.5
			c0,1.1-0.4,2-1.2,2.8s-1.7,1.2-2.8,1.2h-6.1c-0.7,0-1.3-0.2-1.9-0.5s-1.1-1.1-1.7-2.3l-2.3-5.6c-2.4,2.4-5.7,4.7-10,7
			c-4.2,2.3-9.6,3.4-16,3.4c-8.2,0-15-2.5-20.2-7.4C3225.4,341.6,3222.8,334.6,3222.8,325.6z M3244.3,325.6c0,3.5,1,6.3,3.1,8.4
			c2.1,2.2,5,3.2,8.9,3.2c1.8,0,3.5-0.3,5.2-1s3.2-1.4,4.6-2.3c1.4-0.9,2.5-1.9,3.4-2.9s1.5-1.9,1.7-2.6v-12.2
			c-1.1-0.4-2.3-0.8-3.6-1.3c-1.1-0.2-2.4-0.5-3.9-0.8s-3.1-0.4-4.8-0.4c-4.8,0-8.4,1-10.9,3.1
			C3245.6,319,3244.3,321.9,3244.3,325.6z"/>
		<path class="st2" d="M3318.7,289.2h-8.1c-1.1,0-2-0.4-2.7-1.3c-0.7-0.8-1.1-1.7-1.1-2.7v-12.1c0-1.2,0.4-2.2,1.1-2.9
			c0.7-0.7,1.6-1.1,2.7-1.1h8.1v-23c0-1.1,0.4-2,1.3-2.8c0.8-0.8,1.7-1.2,2.7-1.2h14.7c1.1,0,2,0.4,2.7,1.2c0.7,0.8,1.1,1.7,1.1,2.8
			v23h19.4c1.1,0,2,0.4,2.8,1.1s1.2,1.7,1.2,2.9v12.2c0,1-0.4,1.9-1.2,2.7s-1.7,1.3-2.8,1.3h-19.4v37.5c0,2.8,0.6,4.6,1.9,5.5
			c1.3,0.9,2.9,1.4,4.9,1.4c0.8,0,1.9-0.1,3.1-0.4c1.3-0.2,2.5-0.5,3.7-0.7s2.3-0.5,3.3-0.8s1.8-0.6,2.4-0.8c1.2-0.5,2.2-0.5,3,0
			s1.4,1.2,1.6,2.2l2.3,10.8c0.5,2.1-0.3,3.7-2.3,4.8c-0.7,0.4-1.9,0.9-3.7,1.5c-1.7,0.7-3.7,1.2-5.8,1.8c-2.2,0.5-4.5,1-6.9,1.4
			c-2.5,0.4-4.8,0.6-6.9,0.6c-4.7,0-8.5-0.7-11.5-2.2c-3-1.4-5.4-3.4-7.1-5.8c-1.7-2.4-2.9-5.3-3.6-8.5c-0.7-3.2-1-6.6-1-10.2v-38.2
			H3318.7z"/>
		<path class="st2" d="M3392.2,255c-4.1,0-7.4-1.4-10.1-4.2c-2.7-2.8-4-6.2-4-10.1s1.3-7.3,4-10s6.1-4.1,10.1-4.1
			c4.1,0,7.5,1.4,10.2,4.1c2.7,2.8,4.1,6.1,4.1,10s-1.4,7.3-4.1,10.1C3399.7,253.6,3396.3,255,3392.2,255z M3381.3,273.1
			c0-1.2,0.4-2.2,1.3-2.9c0.8-0.7,1.7-1.1,2.7-1.1h14.5c1,0,1.9,0.4,2.7,1.1s1.3,1.7,1.3,2.9v75c0,1.1-0.4,2-1.3,2.8
			c-0.8,0.8-1.7,1.2-2.7,1.2h-14.5c-1,0-1.9-0.4-2.7-1.2c-0.8-0.8-1.3-1.7-1.3-2.8V273.1z"/>
		<path class="st2" d="M3416.1,274c-0.6-1.3-0.7-2.4-0.2-3.4s1.5-1.4,3-1.4h17c1.7,0,2.9,0.8,3.8,2.3l17.2,40.9h0.4l18.3-40.9
			c0.6-1.1,1.3-1.7,2.2-2c0.8-0.2,1.9-0.4,3-0.4h15.1c1.6,0,2.6,0.5,3.1,1.4c0.5,1,0.4,2.1-0.3,3.4l-37.3,77.8
			c-0.4,0.6-0.8,1.1-1.3,1.5c-0.5,0.4-1.3,0.6-2.2,0.6h-1.1c-1,0-1.7-0.2-2.2-0.6c-0.5-0.4-1-0.9-1.3-1.5L3416.1,274z"/>
		<path class="st2" d="M3503.6,310.6c0-5.9,1-11.4,3-16.6s4.9-9.8,8.6-13.7c3.7-3.9,8.1-7.1,13.2-9.4c5.1-2.3,10.7-3.5,16.8-3.5
			c5.4,0,10.3,1,14.9,2.9c4.6,1.9,8.6,4.6,12,8c3.4,3.4,6.1,7.4,8,12.1c2,4.7,3,9.8,3,15.4c0,0.6,0,1.5-0.1,2.7s-0.2,2.1-0.3,2.7
			c-0.1,1.1-0.6,2-1.3,2.7s-1.6,1.1-2.6,1.1H3526c0,2.5,0.5,4.9,1.6,7.3c1.1,2.3,2.5,4.4,4.3,6.2s3.9,3.2,6.5,4.2
			c2.5,1,5.3,1.5,8.2,1.5c4.2,0,7.7-0.6,10.6-1.9c2.9-1.3,5.3-2.7,7.2-4.2c1-0.8,1.9-1.3,3-1.3c1-0.1,1.8,0.4,2.4,1.3l7,9.3
			c0.7,0.8,1.1,1.7,1.1,2.6c0,0.9-0.5,1.8-1.4,2.8c-3.6,3.1-7.9,5.8-13,8s-11,3.3-17.8,3.3c-6.2,0-11.9-1.1-17-3.4
			s-9.6-5.4-13.3-9.3c-3.7-3.9-6.6-8.5-8.6-13.8C3504.6,322.2,3503.6,316.6,3503.6,310.6z M3560.8,300.2c-0.2-4.1-1.8-7.5-4.8-10.2
			c-2.9-2.7-6.7-4.1-11.2-4.1c-5,0-9.1,1.3-12.1,4s-4.9,6.1-5.5,10.3L3560.8,300.2L3560.8,300.2z"/>
		<path class="st2" d="M3623,354c-6.9,0-12.6-0.8-16.9-2.5c-4.4-1.7-7.7-3.3-10.1-5c-0.6-0.4-1-1-1.3-1.8s-0.2-1.7,0.3-2.7l5.4-10.8
			c0.5-1,1.2-1.6,2.1-1.9c0.9-0.3,1.8-0.1,2.8,0.4c1.9,1.2,4.4,2.4,7.4,3.6s6.6,1.8,10.9,1.8c3.1,0,5.4-0.5,6.9-1.6
			c1.5-1.1,2.2-2.5,2.2-4.3c0-1.9-1.2-3.8-3.7-5.6c-2.5-1.8-6.4-3.8-11.9-5.9c-8-3.1-13.9-6.7-17.6-10.7c-3.7-4-5.6-9.2-5.6-15.5
			c0-3.1,0.6-6.1,1.8-9.1c1.2-2.9,3-5.5,5.5-7.7c2.4-2.2,5.6-4,9.3-5.4c3.8-1.4,8.2-2.1,13.2-2.1c6.1,0,11.1,0.7,15.2,2
			c4,1.3,7.1,2.7,9.4,4.1c1,0.7,1.6,1.6,2.1,2.6c0.4,1,0.3,2.1-0.3,3.1l-4.7,9.5c-0.6,1-1.4,1.6-2.3,1.8c-1,0.2-1.9,0.2-2.9-0.2
			c-2-1-4.4-1.9-7.2-2.8c-2.8-0.9-5.9-1.3-9.3-1.3c-2.8,0-4.8,0.6-6,1.7c-1.3,1.1-1.9,2.4-1.9,3.7c0,1.9,1,3.5,3,4.7s5,2.6,8.8,4.3
			c3.9,1.7,7.6,3.3,11,4.9c3.4,1.6,6.3,3.5,8.7,5.6c2.4,2.2,4.3,4.7,5.6,7.6c1.4,2.9,2.1,6.4,2.1,10.5c0,3.2-0.7,6.3-2.1,9.3
			c-1.4,3-3.4,5.6-6.1,7.9c-2.7,2.3-6,4.1-10,5.5C3632.7,353.3,3628.2,354,3623,354z"/>
	</g>
	<g class="st1">
		<path class="st3" d="M38.6,644.9v-90.1H66c9.6,0,17,2.1,22.4,6.2c5.4,4.1,8,10.3,8,18.5c0,4.2-1,7.9-3,11.2s-4.9,5.7-8.7,7.4
			c4.9,1.2,8.5,3.6,11,7.4c2.4,3.8,3.7,8.2,3.7,13.2c0,8.6-2.6,15.2-7.7,19.6c-5.1,4.4-12.4,6.7-21.8,6.7H38.6V644.9z M54.9,592.5
			h11.7c4.4,0,7.7-1,10-3s3.5-4.9,3.5-8.7c0-4.2-1.2-7.2-3.5-9.2c-2.4-2-5.9-3-10.6-3H54.9V592.5z M54.9,605V631h15
			c4.3,0,7.6-1,9.9-3.1s3.4-5.2,3.4-9.2c0-4.4-1-7.8-2.9-10.1s-5-3.5-9.2-3.5L54.9,605L54.9,605z"/>
		<path class="st3" d="M147.4,593.5l-6-0.2c-2.4,0-4.4,0.6-6,1.7c-1.6,1.1-2.8,2.7-3.6,4.7V645h-16.2v-67h15.1l0.7,9.9
			c1.4-3.5,3.2-6.2,5.5-8.2s4.8-2.9,7.8-2.9c0.8,0,1.6,0.1,2.3,0.2c0.7,0.1,1.4,0.3,2.1,0.5L147.4,593.5z"/>
		<path class="st3" d="M177.8,561.9h-16.3v-13.6h16.3V561.9z M177.8,644.9h-16.3v-67h16.3V644.9z"/>
		<path class="st3" d="M211.1,577.9l0.7,9.6c2-3.4,4.5-6.1,7.4-8s6.2-2.8,9.9-2.8c6.1,0,10.9,2.1,14.3,6.4c3.4,4.2,5.1,10.9,5.1,20
			v41.8h-16.4V603c0-4.5-0.8-7.7-2.5-9.6c-1.6-1.9-4.1-2.8-7.4-2.8c-2.2,0-4.1,0.5-5.8,1.5s-3.1,2.3-4.3,4.1v48.7h-16.3v-67H211.1z"
			/>
		<path class="st3" d="M263.2,612c0-10.6,2.1-19.1,6.2-25.6s10-9.7,17.4-9.7c3.4,0,6.4,0.8,8.9,2.5c2.6,1.7,4.8,4.1,6.6,7.2l1.3-8.5
			h14.1v66.7c0,8.7-2.6,15.4-7.7,20.2c-5.2,4.8-12.3,7.1-21.5,7.1c-3.1,0-6.3-0.5-9.7-1.4c-3.4-0.9-6.6-2.2-9.5-3.8l3-13.5
			c2.5,1.3,5,2.3,7.6,3s5.4,1,8.5,1c4.5,0,7.7-1,9.8-3.1c2.1-2.1,3.2-5.3,3.2-9.7v-6.1c-1.8,2.5-3.9,4.4-6.3,5.8
			c-2.4,1.3-5.2,2-8.3,2c-7.4,0-13.2-3-17.3-9.1c-4.1-6-6.2-14-6.2-23.9V612H263.2z M279.5,613.3c0,5.9,0.9,10.5,2.7,13.9
			c1.8,3.4,4.7,5.1,8.7,5.1c2.5,0,4.6-0.5,6.3-1.5c1.7-1,3.1-2.5,4.2-4.5V597c-1-2-2.4-3.6-4.2-4.7c-1.7-1.1-3.8-1.7-6.2-1.7
			c-4,0-6.9,2-8.7,5.9c-1.8,3.9-2.8,9.1-2.8,15.4V613.3z"/>
		<path class="st3" d="M352.4,561.9h-16.3v-13.6h16.3V561.9z M352.4,644.9h-16.3v-67h16.3V644.9z"/>
		<path class="st3" d="M385.7,577.9l0.7,9.6c2-3.4,4.5-6.1,7.4-8s6.2-2.8,9.9-2.8c6.1,0,10.9,2.1,14.3,6.4c3.4,4.2,5.1,10.9,5.1,20
			v41.8h-16.4V603c0-4.5-0.8-7.7-2.5-9.6c-1.6-1.9-4.1-2.8-7.4-2.8c-2.2,0-4.1,0.5-5.8,1.5c-1.7,1-3.1,2.3-4.3,4.1v48.7h-16.3v-67
			H385.7z"/>
		<path class="st3" d="M437.8,612c0-10.6,2.1-19.1,6.2-25.6s10-9.7,17.4-9.7c3.4,0,6.4,0.8,8.9,2.5c2.6,1.7,4.8,4.1,6.6,7.2l1.3-8.5
			h14.1v66.7c0,8.7-2.6,15.4-7.7,20.2c-5.2,4.8-12.3,7.1-21.5,7.1c-3.1,0-6.3-0.5-9.7-1.4c-3.4-0.9-6.6-2.2-9.5-3.8l3-13.5
			c2.5,1.3,5,2.3,7.6,3s5.4,1,8.5,1c4.5,0,7.7-1,9.8-3.1c2.1-2.1,3.2-5.3,3.2-9.7v-6.1c-1.8,2.5-3.9,4.4-6.3,5.8
			c-2.4,1.3-5.2,2-8.3,2c-7.4,0-13.2-3-17.3-9.1c-4.1-6-6.2-14-6.2-23.9V612H437.8z M454.1,613.3c0,5.9,0.9,10.5,2.7,13.9
			c1.8,3.4,4.7,5.1,8.7,5.1c2.5,0,4.6-0.5,6.3-1.5c1.7-1,3.1-2.5,4.2-4.5V597c-1-2-2.4-3.6-4.2-4.7c-1.7-1.1-3.8-1.7-6.2-1.7
			c-4,0-6.9,2-8.7,5.9c-1.8,3.9-2.8,9.1-2.8,15.4V613.3z"/>
		<path class="st3" d="M578.8,644.9c-0.6-1.5-1.1-3.1-1.5-4.8s-0.7-3.4-0.9-5.2c-1.7,3.3-3.9,6-6.6,8.1c-2.7,2.1-6,3.2-9.8,3.2
			c-6.3,0-11.2-1.8-14.6-5.4c-3.4-3.6-5.1-8.5-5.1-14.8c0-6.6,2.3-11.6,6.8-15.3c4.6-3.6,11.2-5.4,19.9-5.4h9.1V600
			c0-3.2-0.8-5.7-2.3-7.5s-3.8-2.7-6.8-2.7c-2.6,0-4.7,0.7-6.1,2.1c-1.4,1.4-2.1,3.4-2.1,5.9l-15.7-0.1l-0.1-0.4
			c-0.3-5.7,2-10.5,6.6-14.6c4.7-4.1,10.8-6.2,18.5-6.2c7.2,0,13.1,2,17.6,6.1s6.8,9.9,6.8,17.4v27.7c0,3.1,0.2,6.1,0.6,8.9
			c0.4,2.8,1.1,5.5,2,8.2L578.8,644.9L578.8,644.9z M563.9,632.8c2.9,0,5.4-0.8,7.6-2.4c2.2-1.6,3.7-3.4,4.5-5.4v-9.5h-9
			c-3.5,0-6.1,1-7.9,2.9s-2.7,4.2-2.7,7c0,2.2,0.7,4,2,5.4C559.8,632.2,561.6,632.8,563.9,632.8z"/>
		<path class="st3" d="M664.3,613.3c0,10-2,18-6,24s-9.8,9-17.4,9c-3.5,0-6.6-0.8-9.2-2.4c-2.6-1.6-4.8-4-6.7-7.1l-1.2,8.3h-14
			v-96.6H626v36.6c1.7-2.7,3.8-4.7,6.3-6.2c2.4-1.4,5.2-2.2,8.4-2.2c7.7,0,13.5,3.2,17.5,9.6c4,6.4,6,15,6,25.7L664.3,613.3
			L664.3,613.3z M648,612c0-6.6-0.9-11.8-2.6-15.6c-1.7-3.8-4.7-5.8-8.8-5.8c-2.5,0-4.7,0.6-6.4,1.8s-3.1,2.9-4.1,5.1V626
			c1,2,2.4,3.6,4.2,4.7c1.8,1.1,3.9,1.6,6.5,1.6c4.2,0,7.1-1.7,8.8-5s2.5-8,2.5-14V612H648z"/>
		<path class="st3" d="M676.8,610.8c0-10,2.5-18.2,7.5-24.5s12-9.6,20.9-9.6s15.9,3.2,21,9.5c5.1,6.4,7.6,14.5,7.6,24.6v1.3
			c0,10.1-2.5,18.3-7.6,24.6c-5,6.3-12,9.5-20.9,9.5s-15.9-3.2-21-9.5c-5-6.3-7.6-14.5-7.6-24.6L676.8,610.8L676.8,610.8z
			 M693.1,612.1c0,6.1,1,11,2.9,14.7s5.1,5.5,9.4,5.5c4.2,0,7.3-1.9,9.2-5.6s2.9-8.6,2.9-14.6v-1.3c0-5.9-1-10.8-3-14.5
			c-2-3.8-5.1-5.6-9.3-5.6s-7.3,1.9-9.2,5.7c-2,3.8-2.9,8.6-2.9,14.5L693.1,612.1L693.1,612.1z"/>
		<path class="st3" d="M785.8,635.3c-1.9,3.5-4.2,6.2-7.1,8.1c-2.9,1.9-6.2,2.8-9.9,2.8c-6.4,0-11.3-2.3-14.9-6.8
			c-3.6-4.5-5.4-11.5-5.4-21.1v-40.4h16.2v40.6c0,4.9,0.7,8.4,2.2,10.5s3.7,3.2,6.6,3.2c2.6,0,4.8-0.5,6.7-1.4s3.4-2.3,4.6-4.1
			v-48.8h16.3v67h-13.9L785.8,635.3z"/>
		<path class="st3" d="M837.8,561.5V578H848v12.7h-10.2v34.1c0,2.6,0.5,4.5,1.5,5.6s2.3,1.7,3.9,1.7c0.9,0,1.6-0.1,2.2-0.2
			c0.6-0.1,1.3-0.3,2.1-0.5l1.4,13.1c-1.6,0.6-3.2,1.1-4.8,1.4s-3.3,0.5-5.1,0.5c-5.6,0-9.9-1.7-13-5.1c-3-3.4-4.5-8.9-4.5-16.3
			v-34.2h-8.8V578h8.8v-16.4L837.8,561.5L837.8,561.5z"/>
		<path class="st3" d="M922.2,632.3c2.9,0,5.2-0.9,7-2.8c1.7-1.9,2.6-4.4,2.6-7.5h14.8l0.2,0.4c0.1,6.8-2.1,12.4-6.9,17
			c-4.7,4.6-10.6,6.8-17.7,6.8c-9,0-15.9-3.2-20.8-9.5c-4.9-6.3-7.3-14.4-7.3-24.3v-1.9c0-9.9,2.4-18,7.3-24.3
			c4.9-6.4,11.8-9.5,20.8-9.5c7.4,0,13.4,2.4,18,7.1c4.6,4.7,6.8,10.9,6.6,18.6l-0.1,0.4h-14.8c0-3.5-0.9-6.3-2.6-8.6
			c-1.7-2.3-4.1-3.4-7.1-3.4c-4.3,0-7.4,1.9-9.1,5.6c-1.8,3.7-2.7,8.5-2.7,14.3v1.9c0,6,0.9,10.8,2.7,14.4
			C914.7,630.5,917.8,632.3,922.2,632.3z"/>
		<path class="st3" d="M976.9,586.4c1.9-3.1,4.2-5.4,7-7.1c2.8-1.7,5.8-2.6,9.2-2.6c6.3,0,11.2,2.3,14.8,7
			c3.6,4.6,5.4,11.8,5.4,21.5V645H997v-40c0-5.2-0.8-8.9-2.5-11.1c-1.7-2.2-4.1-3.3-7.4-3.3c-2.2,0-4.2,0.4-5.9,1.3
			c-1.7,0.9-3.1,2.1-4.2,3.8v49.2h-16.3v-96.6H977L976.9,586.4L976.9,586.4z"/>
		<path class="st3" d="M1066,644.9c-0.6-1.5-1.1-3.1-1.5-4.8s-0.7-3.4-0.9-5.2c-1.7,3.3-3.9,6-6.6,8.1s-6,3.2-9.8,3.2
			c-6.3,0-11.2-1.8-14.6-5.4c-3.4-3.6-5.1-8.5-5.1-14.8c0-6.6,2.3-11.6,6.8-15.3c4.6-3.6,11.2-5.4,19.9-5.4h9.1V600
			c0-3.2-0.8-5.7-2.3-7.5s-3.8-2.7-6.8-2.7c-2.6,0-4.7,0.7-6.1,2.1c-1.4,1.4-2.1,3.4-2.1,5.9l-15.7-0.1l-0.1-0.4
			c-0.3-5.7,2-10.5,6.6-14.6c4.7-4.1,10.8-6.2,18.5-6.2c7.2,0,13.1,2,17.6,6.1s6.8,9.9,6.8,17.4v27.7c0,3.1,0.2,6.1,0.6,8.9
			c0.4,2.8,1.1,5.5,2,8.2L1066,644.9L1066,644.9z M1051.1,632.8c2.9,0,5.4-0.8,7.6-2.4c2.2-1.6,3.7-3.4,4.5-5.4v-9.5h-9.1
			c-3.5,0-6.1,1-7.9,2.9s-2.7,4.2-2.7,7c0,2.2,0.7,4,2,5.4C1047,632.2,1048.8,632.8,1051.1,632.8z"/>
		<path class="st3" d="M1111.9,577.9l0.7,9.6c2-3.4,4.5-6.1,7.4-8s6.2-2.8,9.9-2.8c6.1,0,10.9,2.1,14.3,6.4c3.4,4.2,5.1,10.9,5.1,20
			v41.8H1133V603c0-4.5-0.8-7.7-2.5-9.6c-1.6-1.9-4.1-2.8-7.4-2.8c-2.2,0-4.1,0.5-5.8,1.5c-1.7,1-3.1,2.3-4.3,4.1v48.7h-16.3v-67
			H1111.9z"/>
		<path class="st3" d="M1164,612c0-10.6,2.1-19.1,6.2-25.6s10-9.7,17.4-9.7c3.4,0,6.4,0.8,8.9,2.5c2.6,1.7,4.8,4.1,6.6,7.2l1.3-8.5
			h14.1v66.7c0,8.7-2.6,15.4-7.7,20.2c-5.2,4.8-12.3,7.1-21.5,7.1c-3.1,0-6.3-0.5-9.7-1.4c-3.4-0.9-6.6-2.2-9.5-3.8l3-13.5
			c2.5,1.3,5,2.3,7.6,3s5.4,1,8.5,1c4.5,0,7.7-1,9.8-3.1c2.1-2.1,3.2-5.3,3.2-9.7v-6.1c-1.8,2.5-3.9,4.4-6.3,5.8
			c-2.4,1.3-5.2,2-8.3,2c-7.4,0-13.2-3-17.3-9.1c-4.1-6-6.2-14-6.2-23.9L1164,612L1164,612z M1180.3,613.3c0,5.9,0.9,10.5,2.7,13.9
			c1.8,3.4,4.7,5.1,8.7,5.1c2.5,0,4.6-0.5,6.3-1.5c1.7-1,3.1-2.5,4.2-4.5V597c-1-2-2.4-3.6-4.2-4.7c-1.7-1.1-3.8-1.7-6.2-1.7
			c-4,0-6.9,2-8.7,5.9c-1.8,3.9-2.8,9.1-2.8,15.4V613.3z"/>
		<path class="st3" d="M1262.8,646.2c-8.7,0-15.7-3.1-20.9-9.3c-5.2-6.2-7.8-14-7.8-23.6v-2.5c0-9.9,2.5-18.1,7.4-24.6
			c4.9-6.4,11.5-9.6,19.8-9.6c8.1,0,14.5,2.7,19,8.2c4.5,5.4,6.8,12.8,6.8,22.1v9.8h-36l-0.1,0.4c0.3,4.4,1.6,8,4,10.9
			c2.4,2.8,5.6,4.3,9.6,4.3c3.6,0,6.6-0.4,9-1.2s5-2.1,7.8-3.8l4.4,11.2c-2.5,2.2-5.7,4.1-9.7,5.6
			C1272.1,645.5,1267.6,646.2,1262.8,646.2z M1261.3,590.6c-3,0-5.4,1.3-7.1,3.8c-1.7,2.6-2.8,5.9-3.2,10.1l0.2,0.3h20v-1.6
			c0-3.8-0.8-6.9-2.4-9.2C1267,591.8,1264.6,590.6,1261.3,590.6z"/>
		<path class="st3" d="M1334.2,626.5c0-2-0.9-3.7-2.6-5.1c-1.7-1.4-4.9-2.7-9.6-3.8c-7.1-1.6-12.5-4-16.2-7.1
			c-3.6-3.2-5.4-7.5-5.4-12.9c0-5.8,2.2-10.7,6.6-14.7s10.2-6,17.6-6c7.7,0,13.8,2,18.4,6s6.7,9.1,6.6,15.2l-0.1,0.4h-15.7
			c0-2.7-0.8-4.9-2.3-6.6c-1.5-1.7-3.8-2.5-6.8-2.5c-2.6,0-4.7,0.7-6.2,2.1c-1.5,1.4-2.3,3.2-2.3,5.4c0,2.1,0.8,3.8,2.4,5.1
			s4.8,2.5,9.6,3.5c7.4,1.7,13,4.1,16.6,7.3s5.4,7.6,5.4,13.2c0,6-2.3,10.9-7,14.8c-4.7,3.8-10.8,5.7-18.4,5.7
			c-8,0-14.4-2.3-19.1-6.8s-6.9-9.7-6.7-15.4l0.1-0.4h14.9c0.1,3.6,1.2,6.2,3.2,7.8s4.6,2.4,7.9,2.4c3,0,5.3-0.7,6.9-2
			C1333.4,630.5,1334.2,628.7,1334.2,626.5z"/>
		<path class="st3" d="M1418.4,561.5V578h10.2v12.7h-10.2v34.1c0,2.6,0.5,4.5,1.5,5.6s2.3,1.7,3.9,1.7c0.9,0,1.6-0.1,2.2-0.2
			c0.6-0.1,1.3-0.3,2.1-0.5l1.4,13.1c-1.6,0.6-3.2,1.1-4.8,1.4s-3.3,0.5-5.1,0.5c-5.6,0-9.9-1.7-13-5.1c-3-3.4-4.5-8.9-4.5-16.3
			v-34.2h-8.8V578h8.8v-16.4L1418.4,561.5L1418.4,561.5z"/>
		<path class="st3" d="M1441.4,610.8c0-10,2.5-18.2,7.5-24.5s12-9.6,20.9-9.6s15.9,3.2,21,9.5c5.1,6.4,7.6,14.5,7.6,24.6v1.3
			c0,10.1-2.5,18.3-7.6,24.6c-5,6.3-12,9.5-20.9,9.5s-15.9-3.2-21-9.5c-5-6.3-7.6-14.5-7.6-24.6L1441.4,610.8L1441.4,610.8z
			 M1457.7,612.1c0,6.1,1,11,2.9,14.7s5.1,5.5,9.4,5.5c4.2,0,7.3-1.9,9.2-5.6s2.9-8.6,2.9-14.6v-1.3c0-5.9-1-10.8-3-14.5
			c-2-3.8-5.1-5.6-9.3-5.6c-4.2,0-7.3,1.9-9.2,5.7c-2,3.8-2.9,8.6-2.9,14.5V612.1z"/>
		<path class="st3" d="M1566,621h0.3l7.9-43h15.3l-15.3,67h-13.6l-11.2-39.9h-0.3l-11.2,39.9h-13.6l-15.3-67h15.3l8,42.9h0.3
			l11.3-42.9h10.9L1566,621z"/>
		<path class="st3" d="M1638,644.9c-0.6-1.5-1.1-3.1-1.5-4.8s-0.7-3.4-0.9-5.2c-1.7,3.3-3.9,6-6.6,8.1s-6,3.2-9.8,3.2
			c-6.3,0-11.2-1.8-14.6-5.4c-3.4-3.6-5.1-8.5-5.1-14.8c0-6.6,2.3-11.6,6.8-15.3c4.6-3.6,11.2-5.4,19.9-5.4h9.1V600
			c0-3.2-0.8-5.7-2.3-7.5s-3.8-2.7-6.8-2.7c-2.6,0-4.7,0.7-6.1,2.1c-1.4,1.4-2.1,3.4-2.1,5.9l-15.7-0.1l-0.1-0.4
			c-0.3-5.7,2-10.5,6.6-14.6c4.7-4.1,10.8-6.2,18.5-6.2c7.2,0,13.1,2,17.6,6.1s6.8,9.9,6.8,17.4v27.7c0,3.1,0.2,6.1,0.6,8.9
			c0.4,2.8,1.1,5.5,2,8.2L1638,644.9L1638,644.9z M1623.1,632.8c2.9,0,5.4-0.8,7.6-2.4c2.2-1.6,3.7-3.4,4.5-5.4v-9.5h-9.1
			c-3.5,0-6.1,1-7.9,2.9s-2.7,4.2-2.7,7c0,2.2,0.7,4,2,5.4C1619,632.2,1620.8,632.8,1623.1,632.8z"/>
		<path class="st3" d="M1700.8,593.5l-6-0.2c-2.4,0-4.4,0.6-6,1.7c-1.6,1.1-2.8,2.7-3.6,4.7V645H1669v-67h15.1l0.7,9.9
			c1.4-3.5,3.2-6.2,5.5-8.2s4.8-2.9,7.8-2.9c0.8,0,1.6,0.1,2.3,0.2c0.7,0.1,1.4,0.3,2.1,0.5L1700.8,593.5z"/>
		<path class="st3" d="M1711.5,612c0-10.6,2.1-19.1,6.2-25.6s9.9-9.7,17.4-9.7c3,0,5.7,0.7,8.1,2.2c2.4,1.4,4.5,3.5,6.4,6.2v-36.7
			h16.4V645h-14l-1.3-8.2c-1.9,3.1-4.1,5.4-6.7,7.1c-2.6,1.6-5.6,2.4-8.9,2.4c-7.4,0-13.2-3-17.3-9c-4.1-6-6.2-14-6.2-23.9
			L1711.5,612L1711.5,612z M1727.8,613.3c0,5.9,0.9,10.5,2.7,13.9c1.8,3.4,4.7,5.1,8.7,5.1c2.3,0,4.4-0.5,6.1-1.6s3.2-2.6,4.3-4.6
			v-28.7c-1.1-2.1-2.5-3.8-4.3-5c-1.7-1.2-3.7-1.8-6.1-1.8c-4,0-6.9,2-8.7,5.9c-1.8,3.9-2.8,9.1-2.8,15.4v1.4H1727.8z"/>
		<path class="st3" d="M1816.2,626.5c0-2-0.9-3.7-2.6-5.1c-1.7-1.4-4.9-2.7-9.6-3.8c-7.1-1.6-12.5-4-16.2-7.1
			c-3.6-3.2-5.4-7.5-5.4-12.9c0-5.8,2.2-10.7,6.6-14.7s10.2-6,17.6-6c7.7,0,13.8,2,18.4,6s6.7,9.1,6.6,15.2l-0.1,0.4h-15.7
			c0-2.7-0.8-4.9-2.3-6.6c-1.5-1.7-3.8-2.5-6.8-2.5c-2.6,0-4.7,0.7-6.2,2.1c-1.5,1.4-2.3,3.2-2.3,5.4c0,2.1,0.8,3.8,2.4,5.1
			s4.8,2.5,9.6,3.5c7.4,1.7,13,4.1,16.6,7.3s5.4,7.6,5.4,13.2c0,6-2.3,10.9-7,14.8c-4.7,3.8-10.8,5.7-18.4,5.7
			c-8,0-14.4-2.3-19.1-6.8s-6.9-9.7-6.7-15.4l0.1-0.4h14.9c0.1,3.6,1.2,6.2,3.2,7.8s4.6,2.4,7.9,2.4c3,0,5.3-0.7,6.9-2
			C1815.4,630.5,1816.2,628.7,1816.2,626.5z"/>
		<path class="st3" d="M1896.1,577.9l0.7,8.9c1.9-3.2,4.4-5.7,7.3-7.5s6.3-2.6,10.1-2.6c3.9,0,7.2,0.9,9.9,2.8
			c2.8,1.9,4.8,4.8,6.2,8.6c1.9-3.6,4.3-6.4,7.3-8.4s6.5-3,10.5-3c6,0,10.6,2.3,14.1,6.8c3.4,4.6,5.2,11.5,5.2,20.8v40.5h-16.3
			v-40.7c0-5.1-0.7-8.6-2.2-10.6s-3.7-3-6.6-3c-2.3,0-4.3,0.6-6,1.7c-1.7,1.1-3,2.7-4,4.7c0,0.8,0,1.5,0.1,2c0,0.6,0.1,1.1,0.1,1.7
			v44.1h-16.2V604c0-5-0.7-8.5-2.2-10.5s-3.7-3.1-6.7-3.1c-2.2,0-4.1,0.5-5.8,1.4c-1.7,0.9-3,2.2-4.1,3.9v48.9H1881v-67h15.1V577.9z
			"/>
		<path class="st3" d="M1982.4,610.8c0-10,2.5-18.2,7.5-24.5s12-9.6,20.9-9.6s15.9,3.2,21,9.5c5.1,6.4,7.6,14.5,7.6,24.6v1.3
			c0,10.1-2.5,18.3-7.6,24.6c-5,6.3-12,9.5-20.9,9.5s-15.9-3.2-21-9.5c-5-6.3-7.6-14.5-7.6-24.6L1982.4,610.8L1982.4,610.8z
			 M1998.7,612.1c0,6.1,1,11,2.9,14.7s5.1,5.5,9.4,5.5c4.2,0,7.3-1.9,9.2-5.6s2.9-8.6,2.9-14.6v-1.3c0-5.9-1-10.8-3-14.5
			c-2-3.8-5.1-5.6-9.3-5.6c-4.2,0-7.3,1.9-9.2,5.7c-2,3.8-2.9,8.6-2.9,14.5V612.1z"/>
		<path class="st3" d="M2086.2,593.5l-6-0.2c-2.4,0-4.4,0.6-6,1.7c-1.6,1.1-2.8,2.7-3.6,4.7V645h-16.2v-67h15.1l0.7,9.9
			c1.4-3.5,3.2-6.2,5.5-8.2s4.8-2.9,7.8-2.9c0.8,0,1.6,0.1,2.3,0.2c0.7,0.1,1.4,0.3,2.1,0.5L2086.2,593.5z"/>
		<path class="st3" d="M2126.2,646.2c-8.7,0-15.7-3.1-20.9-9.3s-7.8-14-7.8-23.6v-2.5c0-9.9,2.5-18.1,7.4-24.6
			c4.9-6.4,11.5-9.6,19.8-9.6c8.1,0,14.5,2.7,19,8.2c4.5,5.4,6.8,12.8,6.8,22.1v9.8h-36l-0.1,0.4c0.3,4.4,1.6,8,4,10.9
			c2.4,2.8,5.6,4.3,9.6,4.3c3.6,0,6.6-0.4,9-1.2s5-2.1,7.8-3.8l4.4,11.2c-2.5,2.2-5.7,4.1-9.7,5.6
			C2135.5,645.5,2131.1,646.2,2126.2,646.2z M2124.8,590.6c-3,0-5.4,1.3-7.1,3.8c-1.8,2.6-2.8,5.9-3.2,10.1l0.2,0.3h20v-1.6
			c0-3.8-0.8-6.9-2.4-9.2S2128.1,590.6,2124.8,590.6z"/>
		<path class="st3" d="M2231.2,626.5c0-2-0.9-3.7-2.6-5.1c-1.7-1.4-4.9-2.7-9.6-3.8c-7.1-1.6-12.5-4-16.2-7.1
			c-3.6-3.2-5.4-7.5-5.4-12.9c0-5.8,2.2-10.7,6.6-14.7s10.2-6,17.6-6c7.7,0,13.8,2,18.4,6c4.6,4,6.7,9.1,6.6,15.2l-0.1,0.4h-15.7
			c0-2.7-0.8-4.9-2.3-6.6c-1.5-1.7-3.8-2.5-6.8-2.5c-2.6,0-4.7,0.7-6.2,2.1c-1.5,1.4-2.3,3.2-2.3,5.4c0,2.1,0.8,3.8,2.4,5.1
			c1.6,1.3,4.8,2.5,9.6,3.5c7.4,1.7,13,4.1,16.6,7.3s5.4,7.6,5.4,13.2c0,6-2.3,10.9-7,14.8c-4.7,3.8-10.8,5.7-18.4,5.7
			c-8,0-14.4-2.3-19.1-6.8c-4.7-4.5-6.9-9.7-6.7-15.4l0.1-0.4h14.9c0.1,3.6,1.2,6.2,3.2,7.8s4.6,2.4,7.9,2.4c3,0,5.3-0.7,6.9-2
			C2230.4,630.5,2231.2,628.7,2231.2,626.5z"/>
		<path class="st3" d="M2299.4,635.3c-1.9,3.5-4.2,6.2-7.1,8.1c-2.9,1.9-6.2,2.8-9.9,2.8c-6.4,0-11.3-2.3-14.9-6.8
			s-5.4-11.5-5.4-21.1v-40.4h16.2v40.6c0,4.9,0.7,8.4,2.2,10.5s3.7,3.2,6.6,3.2c2.6,0,4.8-0.5,6.7-1.4s3.4-2.3,4.6-4.1v-48.8h16.3
			v67h-13.9L2299.4,635.3z"/>
		<path class="st3" d="M2364.7,626.5c0-2-0.9-3.7-2.6-5.1c-1.7-1.4-4.9-2.7-9.6-3.8c-7.1-1.6-12.5-4-16.2-7.1
			c-3.6-3.2-5.4-7.5-5.4-12.9c0-5.8,2.2-10.7,6.6-14.7s10.2-6,17.6-6c7.7,0,13.8,2,18.4,6c4.6,4,6.7,9.1,6.6,15.2l-0.1,0.4h-15.7
			c0-2.7-0.8-4.9-2.3-6.6c-1.5-1.7-3.8-2.5-6.8-2.5c-2.6,0-4.7,0.7-6.2,2.1c-1.5,1.4-2.3,3.2-2.3,5.4c0,2.1,0.8,3.8,2.4,5.1
			c1.6,1.3,4.8,2.5,9.6,3.5c7.4,1.7,13,4.1,16.6,7.3s5.4,7.6,5.4,13.2c0,6-2.3,10.9-7,14.8c-4.7,3.8-10.8,5.7-18.4,5.7
			c-8,0-14.4-2.3-19.1-6.8c-4.7-4.5-6.9-9.7-6.7-15.4l0.1-0.4h14.9c0.1,3.6,1.2,6.2,3.2,7.8s4.6,2.4,7.9,2.4c3,0,5.3-0.7,6.9-2
			C2363.9,630.5,2364.7,628.7,2364.7,626.5z"/>
		<path class="st3" d="M2415.3,561.5V578h10.2v12.7h-10.2v34.1c0,2.6,0.5,4.5,1.5,5.6s2.3,1.7,3.9,1.7c0.9,0,1.6-0.1,2.2-0.2
			c0.6-0.1,1.3-0.3,2.1-0.5l1.4,13.1c-1.6,0.6-3.2,1.1-4.8,1.4s-3.3,0.5-5.1,0.5c-5.6,0-9.9-1.7-13-5.1c-3-3.4-4.5-8.9-4.5-16.3
			v-34.2h-8.8V578h8.8v-16.4L2415.3,561.5L2415.3,561.5z"/>
		<path class="st3" d="M2476.3,644.9c-0.6-1.5-1.1-3.1-1.5-4.8s-0.7-3.4-0.9-5.2c-1.7,3.3-3.9,6-6.6,8.1c-2.7,2.1-6,3.2-9.8,3.2
			c-6.3,0-11.2-1.8-14.6-5.4c-3.4-3.6-5.1-8.5-5.1-14.8c0-6.6,2.3-11.6,6.8-15.3c4.6-3.6,11.2-5.4,20-5.4h9.1V600
			c0-3.2-0.8-5.7-2.3-7.5s-3.8-2.7-6.8-2.7c-2.6,0-4.7,0.7-6.1,2.1c-1.4,1.4-2.1,3.4-2.1,5.9l-15.7-0.1l-0.1-0.4
			c-0.3-5.7,2-10.5,6.6-14.6c4.7-4.1,10.8-6.2,18.5-6.2c7.2,0,13.1,2,17.6,6.1s6.8,9.9,6.8,17.4v27.7c0,3.1,0.2,6.1,0.6,8.9
			c0.4,2.8,1.1,5.5,2,8.2L2476.3,644.9L2476.3,644.9z M2461.4,632.8c2.9,0,5.4-0.8,7.6-2.4c2.2-1.6,3.7-3.4,4.5-5.4v-9.5h-9.1
			c-3.5,0-6.1,1-7.9,2.9c-1.8,1.9-2.7,4.2-2.7,7c0,2.2,0.7,4,2,5.4C2457.3,632.2,2459.1,632.8,2461.4,632.8z"/>
		<path class="st3" d="M2524.5,561.9h-16.3v-13.6h16.3V561.9z M2524.5,644.9h-16.3v-67h16.3V644.9z"/>
		<path class="st3" d="M2557.8,577.9l0.7,9.6c2-3.4,4.5-6.1,7.4-8s6.2-2.8,9.9-2.8c6.1,0,10.9,2.1,14.3,6.4s5.1,10.9,5.1,20v41.8
			h-16.4V603c0-4.5-0.8-7.7-2.5-9.6c-1.6-1.9-4.1-2.8-7.4-2.8c-2.2,0-4.1,0.5-5.8,1.5s-3.1,2.3-4.3,4.1v48.7h-16.3v-67H2557.8z"/>
		<path class="st3" d="M2647.8,644.9c-0.6-1.5-1.1-3.1-1.5-4.8s-0.7-3.4-0.9-5.2c-1.7,3.3-3.9,6-6.6,8.1c-2.7,2.1-6,3.2-9.8,3.2
			c-6.3,0-11.2-1.8-14.6-5.4c-3.4-3.6-5.1-8.5-5.1-14.8c0-6.6,2.3-11.6,6.8-15.3c4.6-3.6,11.2-5.4,20-5.4h9.1V600
			c0-3.2-0.8-5.7-2.3-7.5s-3.8-2.7-6.8-2.7c-2.6,0-4.7,0.7-6.1,2.1c-1.4,1.4-2.1,3.4-2.1,5.9l-15.7-0.1l-0.1-0.4
			c-0.3-5.7,2-10.5,6.6-14.6c4.7-4.1,10.8-6.2,18.5-6.2c7.2,0,13.1,2,17.6,6.1s6.8,9.9,6.8,17.4v27.7c0,3.1,0.2,6.1,0.6,8.9
			c0.4,2.8,1.1,5.5,2,8.2L2647.8,644.9L2647.8,644.9z M2632.9,632.8c2.9,0,5.4-0.8,7.6-2.4c2.2-1.6,3.7-3.4,4.5-5.4v-9.5h-9.1
			c-3.5,0-6.1,1-7.9,2.9c-1.8,1.9-2.7,4.2-2.7,7c0,2.2,0.7,4,2,5.4C2628.8,632.2,2630.6,632.8,2632.9,632.8z"/>
		<path class="st3" d="M2733.3,613.3c0,10-2,18-6,24s-9.8,9-17.4,9c-3.5,0-6.6-0.8-9.2-2.4c-2.6-1.6-4.8-4-6.7-7.1l-1.2,8.3h-14
			v-96.6h16.2v36.6c1.7-2.7,3.8-4.7,6.3-6.2s5.2-2.2,8.4-2.2c7.7,0,13.5,3.2,17.5,9.6c4,6.4,6,15,6,25.7L2733.3,613.3L2733.3,613.3z
			 M2717,612c0-6.6-0.9-11.8-2.6-15.6c-1.7-3.8-4.7-5.8-8.8-5.8c-2.5,0-4.7,0.6-6.4,1.8s-3.1,2.9-4.1,5.1V626c1,2,2.4,3.6,4.2,4.7
			c1.8,1.1,3.9,1.6,6.5,1.6c4.2,0,7.1-1.7,8.8-5s2.5-8,2.5-14L2717,612L2717,612z"/>
		<path class="st3" d="M2765.5,644.9h-16.3v-96.6h16.3V644.9z"/>
		<path class="st3" d="M2810.6,646.2c-8.7,0-15.7-3.1-20.9-9.3s-7.8-14-7.8-23.6v-2.5c0-9.9,2.5-18.1,7.4-24.6
			c4.9-6.4,11.5-9.6,19.8-9.6c8.1,0,14.5,2.7,19,8.2c4.5,5.4,6.8,12.8,6.8,22.1v9.8h-36l-0.1,0.4c0.3,4.4,1.6,8,4,10.9
			c2.4,2.8,5.6,4.3,9.6,4.3c3.6,0,6.6-0.4,9-1.2s5-2.1,7.8-3.8l4.4,11.2c-2.5,2.2-5.7,4.1-9.7,5.6
			C2819.9,645.5,2815.5,646.2,2810.6,646.2z M2809.2,590.6c-3,0-5.4,1.3-7.1,3.8c-1.8,2.6-2.8,5.9-3.2,10.1l0.2,0.3h20v-1.6
			c0-3.8-0.8-6.9-2.4-9.2S2812.5,590.6,2809.2,590.6z"/>
		<path class="st3" d="M2880.1,620.6c0-4.9,1.2-9.1,3.6-12.6c2.4-3.5,6.1-7.2,11-11c-2.5-3.8-4.4-7.3-5.7-10.4
			c-1.2-3.1-1.9-6.3-1.9-9.6c0-7.1,2-12.8,6-17.1s9.4-6.4,16.1-6.4c5.9,0,10.7,2,14.4,6.1s5.6,9,5.6,14.8c0,4-0.9,7.7-2.7,11.1
			c-1.8,3.3-4.3,6.3-7.5,8.8l-5.2,4.1l15.4,19.9c1.3-2.5,2.4-5.2,3.1-8c0.7-2.9,1.1-5.9,1.1-9.2h12.2c0,5.7-0.6,10.9-1.9,15.7
			c-1.3,4.8-3.2,9-5.8,12.8l11.6,15.1l-0.1,0.3h-18.1l-4.3-5.5c-3.2,2.3-6.4,4-9.8,5.1c-3.3,1.1-6.9,1.7-10.8,1.7
			c-8.1,0-14.6-2.4-19.4-7.1C2882.5,634.4,2880.1,628.2,2880.1,620.6z M2907.5,632.3c2,0,3.9-0.3,5.9-0.8c2-0.6,3.9-1.4,5.7-2.5
			l-16.7-21.5l-1.1,0.8c-1.9,2-3.2,3.9-3.9,5.8c-0.7,1.9-1,3.8-1,5.6c0,3.7,1,6.7,3.1,9C2901.5,631.1,2904.2,632.3,2907.5,632.3z
			 M2901.8,576.8c0,1.8,0.4,3.6,1.2,5.5s2,4,3.6,6.2l4.8-3.5c2.1-1.5,3.5-3,4.2-4.6s1.1-3.3,1.1-5.1c0-2.1-0.7-3.9-2-5.5
			c-1.4-1.6-3.1-2.4-5.3-2.4c-2.4,0-4.3,0.9-5.6,2.7C2902.4,571.9,2901.8,574.1,2901.8,576.8z"/>
		<path class="st3" d="M3029.2,626.5c0-2-0.9-3.7-2.6-5.1c-1.7-1.4-4.9-2.7-9.6-3.8c-7.1-1.6-12.5-4-16.2-7.1
			c-3.6-3.2-5.4-7.5-5.4-12.9c0-5.8,2.2-10.7,6.6-14.7s10.2-6,17.6-6c7.7,0,13.8,2,18.4,6c4.6,4,6.7,9.1,6.6,15.2l-0.1,0.4h-15.7
			c0-2.7-0.8-4.9-2.3-6.6c-1.5-1.7-3.8-2.5-6.8-2.5c-2.6,0-4.7,0.7-6.2,2.1c-1.5,1.4-2.3,3.2-2.3,5.4c0,2.1,0.8,3.8,2.4,5.1
			c1.6,1.3,4.8,2.5,9.6,3.5c7.4,1.7,13,4.1,16.6,7.3s5.4,7.6,5.4,13.2c0,6-2.3,10.9-7,14.8c-4.7,3.8-10.8,5.7-18.4,5.7
			c-8,0-14.4-2.3-19.1-6.8c-4.7-4.5-6.9-9.7-6.7-15.4l0.1-0.4h14.9c0.1,3.6,1.2,6.2,3.2,7.8s4.6,2.4,7.9,2.4c3,0,5.3-0.7,6.9-2
			C3028.4,630.5,3029.2,628.7,3029.2,626.5z"/>
		<path class="st3" d="M3075.6,577.9l0.7,8.9c1.9-3.2,4.4-5.7,7.3-7.5c2.9-1.8,6.3-2.6,10.1-2.6c3.9,0,7.2,0.9,9.9,2.8
			c2.8,1.9,4.8,4.8,6.2,8.6c1.9-3.6,4.3-6.4,7.3-8.4s6.5-3,10.5-3c6,0,10.6,2.3,14.1,6.8c3.4,4.6,5.2,11.5,5.2,20.8v40.5h-16.3
			v-40.7c0-5.1-0.7-8.6-2.2-10.6s-3.7-3-6.6-3c-2.3,0-4.3,0.6-6,1.7c-1.7,1.1-3,2.7-4,4.7c0,0.8,0,1.5,0.1,2c0,0.6,0.1,1.1,0.1,1.7
			v44.1h-16.2V604c0-5-0.7-8.5-2.2-10.5s-3.7-3.1-6.7-3.1c-2.2,0-4.1,0.5-5.8,1.4s-3,2.2-4.1,3.9v48.9h-16.2v-67h14.8V577.9z"/>
		<path class="st3" d="M3199.9,644.9c-0.6-1.5-1.1-3.1-1.5-4.8s-0.7-3.4-0.9-5.2c-1.7,3.3-3.9,6-6.6,8.1c-2.7,2.1-6,3.2-9.8,3.2
			c-6.3,0-11.2-1.8-14.6-5.4c-3.4-3.6-5.1-8.5-5.1-14.8c0-6.6,2.3-11.6,6.8-15.3c4.6-3.6,11.2-5.4,20-5.4h9.1V600
			c0-3.2-0.8-5.7-2.3-7.5s-3.8-2.7-6.8-2.7c-2.6,0-4.7,0.7-6.1,2.1c-1.4,1.4-2.1,3.4-2.1,5.9l-15.7-0.1l-0.1-0.4
			c-0.3-5.7,2-10.5,6.6-14.6c4.7-4.1,10.8-6.2,18.5-6.2c7.2,0,13.1,2,17.6,6.1s6.8,9.9,6.8,17.4v27.7c0,3.1,0.2,6.1,0.6,8.9
			c0.4,2.8,1.1,5.5,2,8.2L3199.9,644.9L3199.9,644.9z M3185,632.8c2.9,0,5.4-0.8,7.6-2.4c2.2-1.6,3.7-3.4,4.5-5.4v-9.5h-9.1
			c-3.5,0-6.1,1-7.9,2.9c-1.8,1.9-2.7,4.2-2.7,7c0,2.2,0.7,4,2,5.4C3180.8,632.2,3182.7,632.8,3185,632.8z"/>
		<path class="st3" d="M3262.6,593.5l-6-0.2c-2.4,0-4.4,0.6-6,1.7c-1.6,1.1-2.8,2.7-3.6,4.7V645h-16.2v-67h15.1l0.7,9.9
			c1.4-3.5,3.2-6.2,5.5-8.2s4.8-2.9,7.8-2.9c0.8,0,1.6,0.1,2.3,0.2c0.7,0.1,1.4,0.3,2.1,0.5L3262.6,593.5z"/>
		<path class="st3" d="M3296.7,561.5V578h10.2v12.7h-10.2v34.1c0,2.6,0.5,4.5,1.5,5.6s2.3,1.7,3.9,1.7c0.9,0,1.6-0.1,2.2-0.2
			c0.6-0.1,1.3-0.3,2.1-0.5l1.4,13.1c-1.6,0.6-3.2,1.1-4.8,1.4s-3.3,0.5-5.1,0.5c-5.6,0-9.9-1.7-13-5.1c-3-3.4-4.5-8.9-4.5-16.3
			v-34.2h-8.8V578h8.8v-16.4L3296.7,561.5L3296.7,561.5z"/>
		<path class="st3" d="M3349,646.2c-8.7,0-15.7-3.1-20.9-9.3s-7.8-14-7.8-23.6v-2.5c0-9.9,2.5-18.1,7.4-24.6
			c4.9-6.4,11.5-9.6,19.8-9.6c8.1,0,14.5,2.7,19,8.2c4.5,5.4,6.8,12.8,6.8,22.1v9.8h-36l-0.1,0.4c0.3,4.4,1.6,8,4,10.9
			c2.4,2.8,5.6,4.3,9.6,4.3c3.6,0,6.6-0.4,9-1.2s5-2.1,7.8-3.8l4.4,11.2c-2.5,2.2-5.7,4.1-9.7,5.6
			C3358.3,645.5,3353.9,646.2,3349,646.2z M3347.6,590.6c-3,0-5.4,1.3-7.1,3.8c-1.8,2.6-2.8,5.9-3.2,10.1l0.2,0.3h20v-1.6
			c0-3.8-0.8-6.9-2.4-9.2S3350.9,590.6,3347.6,590.6z"/>
		<path class="st3" d="M3419.6,593.5l-6-0.2c-2.4,0-4.4,0.6-6,1.7c-1.6,1.1-2.8,2.7-3.6,4.7V645h-16.2v-67h15.1l0.7,9.9
			c1.4-3.5,3.2-6.2,5.5-8.2s4.8-2.9,7.8-2.9c0.8,0,1.6,0.1,2.3,0.2c0.7,0.1,1.4,0.3,2.1,0.5L3419.6,593.5z"/>
		<path class="st3" d="M3491.7,632.3c2.9,0,5.2-0.9,7-2.8c1.7-1.9,2.6-4.4,2.6-7.5h14.8l0.2,0.4c0.1,6.8-2.1,12.4-6.9,17
			s-10.6,6.8-17.7,6.8c-9,0-15.9-3.2-20.8-9.5c-4.9-6.3-7.3-14.4-7.3-24.3v-1.9c0-9.9,2.4-18,7.3-24.3c4.9-6.4,11.8-9.5,20.8-9.5
			c7.4,0,13.4,2.4,18,7.1s6.8,10.9,6.6,18.6l-0.1,0.4h-14.8c0-3.5-0.9-6.3-2.6-8.6c-1.7-2.3-4.1-3.4-7.1-3.4c-4.3,0-7.4,1.9-9.1,5.6
			c-1.8,3.7-2.7,8.5-2.7,14.3v1.9c0,6,0.9,10.8,2.7,14.4C3484.3,630.5,3487.3,632.3,3491.7,632.3z"/>
		<path class="st3" d="M3547.7,561.9h-16.3v-13.6h16.3V561.9z M3547.7,644.9h-16.3v-67h16.3V644.9z"/>
		<path class="st3" d="M3585.5,561.5V578h10.2v12.7h-10.2v34.1c0,2.6,0.5,4.5,1.5,5.6s2.3,1.7,3.9,1.7c0.9,0,1.6-0.1,2.2-0.2
			c0.6-0.1,1.3-0.3,2.1-0.5l1.4,13.1c-1.6,0.6-3.2,1.1-4.8,1.4s-3.3,0.5-5.1,0.5c-5.6,0-9.9-1.7-13-5.1c-3-3.4-4.5-8.9-4.5-16.3
			v-34.2h-8.8V578h8.8v-16.4L3585.5,561.5L3585.5,561.5z"/>
		<path class="st3" d="M3628.2,561.9h-16.3v-13.6h16.3V561.9z M3628.2,644.9h-16.3v-67h16.3V644.9z"/>
		<path class="st3" d="M3673.3,646.2c-8.7,0-15.7-3.1-20.9-9.3s-7.8-14-7.8-23.6v-2.5c0-9.9,2.5-18.1,7.4-24.6
			c4.9-6.4,11.5-9.6,19.8-9.6c8.1,0,14.5,2.7,19,8.2c4.5,5.4,6.8,12.8,6.8,22.1v9.8h-36l-0.1,0.4c0.3,4.4,1.6,8,4,10.9
			c2.4,2.8,5.6,4.3,9.6,4.3c3.6,0,6.6-0.4,9-1.2s5-2.1,7.8-3.8l4.4,11.2c-2.5,2.2-5.7,4.1-9.7,5.6
			C3682.6,645.5,3678.2,646.2,3673.3,646.2z M3671.9,590.6c-3,0-5.4,1.3-7.1,3.8c-1.8,2.6-2.8,5.9-3.2,10.1l0.2,0.3h20v-1.6
			c0-3.8-0.8-6.9-2.4-9.2S3675.1,590.6,3671.9,590.6z"/>
		<path class="st3" d="M3744.7,626.5c0-2-0.9-3.7-2.6-5.1c-1.7-1.4-4.9-2.7-9.6-3.8c-7.1-1.6-12.5-4-16.2-7.1
			c-3.6-3.2-5.4-7.5-5.4-12.9c0-5.8,2.2-10.7,6.6-14.7s10.2-6,17.6-6c7.7,0,13.8,2,18.4,6c4.6,4,6.7,9.1,6.6,15.2l-0.1,0.4h-15.7
			c0-2.7-0.8-4.9-2.3-6.6c-1.5-1.7-3.8-2.5-6.8-2.5c-2.6,0-4.7,0.7-6.2,2.1c-1.5,1.4-2.3,3.2-2.3,5.4c0,2.1,0.8,3.8,2.4,5.1
			c1.6,1.3,4.8,2.5,9.6,3.5c7.4,1.7,13,4.1,16.6,7.3s5.4,7.6,5.4,13.2c0,6-2.3,10.9-7,14.8c-4.7,3.8-10.8,5.7-18.4,5.7
			c-8,0-14.4-2.3-19.1-6.8c-4.7-4.5-6.9-9.7-6.7-15.4l0.1-0.4h14.9c0.1,3.6,1.2,6.2,3.2,7.8s4.6,2.4,7.9,2.4c3,0,5.3-0.7,6.9-2
			C3743.9,630.5,3744.7,628.7,3744.7,626.5z"/>
	</g>
</g>
</svg>
