<svg id="Layer_1" data-name="Layer 1" xmlns="http://www.w3.org/2000/svg" viewBox="0 0 100 100"><defs><style>.cls-1{fill:#00ab4e;}.cls-2{fill:#fff;}</style></defs><title>visci_icon_3</title><circle class="cls-1" cx="50" cy="50" r="50"/><path class="cls-2" d="M52.51,71.29a.65.65,0,0,0-.56.32l-1.52,2.14a.53.53,0,0,1-.82,0l-1.45-2.14a.66.66,0,0,0-.57-.32,4,4,0,0,0-3.85,3l-.88,3.91a1.38,1.38,0,0,0,1.33,1.71H55.86a1.35,1.35,0,0,0,1.32-1.71l-.82-3.85A4,4,0,0,0,52.51,71.29Z"/><path class="cls-2" d="M53.78,67V65.43a3.73,3.73,0,1,0-7.45,0V67a3.73,3.73,0,1,0,7.45,0Z"/><path class="cls-2" d="M73.9,74.38a3.93,3.93,0,0,0-3.85-3,.64.64,0,0,0-.56.31L68,73.82a.54.54,0,0,1-.82,0l-1.51-2.15a.67.67,0,0,0-.57-.31,4,4,0,0,0-3.85,3l-.88,3.92A1.37,1.37,0,0,0,61.66,80H73.4a1.35,1.35,0,0,0,1.32-1.7Z"/><path class="cls-2" d="M67.59,61.7a3.77,3.77,0,0,0-3.72,3.73V67a3.77,3.77,0,0,0,3.72,3.73h0A3.78,3.78,0,0,0,71.32,67V65.43a3.78,3.78,0,0,0-3.73-3.73Z"/><path class="cls-2" d="M35,71.29a.65.65,0,0,0-.56.32l-1.52,2.14a.53.53,0,0,1-.82,0l-1.51-2.14a.68.68,0,0,0-.57-.32,4,4,0,0,0-3.85,3l-.88,3.91a1.38,1.38,0,0,0,1.32,1.71H38.26a1.35,1.35,0,0,0,1.32-1.71l-.88-3.91A3.66,3.66,0,0,0,35,71.29Z"/><path class="cls-2" d="M32.51,70.73A3.78,3.78,0,0,0,36.24,67V65.43a3.73,3.73,0,1,0-7.45,0V67A3.78,3.78,0,0,0,32.51,70.73Z"/><path class="cls-2" d="M65.89,58V54.57h2.52a1.33,1.33,0,0,0,1.33-1.32V21.32A1.33,1.33,0,0,0,68.41,20H31.69a1.33,1.33,0,0,0-1.32,1.32V53.38a1.33,1.33,0,0,0,1.32,1.32h2.53v3.47a1.18,1.18,0,0,0,2,.82l4.29-4.29h6.56l1.76,4.1a1.35,1.35,0,0,0,2.47,0l1.76-4.1h6.56L63.93,59A1.2,1.2,0,0,0,65.89,58ZM59.27,39.62l.82.57a1,1,0,0,1,.31,1.45L59,44.1a1.13,1.13,0,0,1-1.45.44l-.88-.44a2.46,2.46,0,0,0-2.47.13c-.06.06-.12.06-.18.12a2.61,2.61,0,0,0-1.33,2.09l-.06.94a1.12,1.12,0,0,1-1.14,1H48.6a1.14,1.14,0,0,1-1.13-1l-.07-1a2.63,2.63,0,0,0-1.26-2.08c-.06-.06-.12-.06-.19-.13A2.62,2.62,0,0,0,43.49,44l-.88.44A1.13,1.13,0,0,1,41.16,44l-1.45-2.46A1.08,1.08,0,0,1,40,40.13l.82-.57A2.7,2.7,0,0,0,42,37.29h0A2.68,2.68,0,0,0,40.84,35L40,34.45A1,1,0,0,1,39.71,33l1.45-2.46a1.13,1.13,0,0,1,1.45-.45l.88.45A2.65,2.65,0,0,0,46,30.41c.07-.06.13-.06.19-.13a2.62,2.62,0,0,0,1.33-2.08l.06-.94a1.1,1.1,0,0,1,1.14-1H51.5a1.15,1.15,0,0,1,1.14,1l.06,1A2.64,2.64,0,0,0,54,30.35c.06.06.12.06.19.12a2.62,2.62,0,0,0,2.46.13l.88-.44A1.12,1.12,0,0,1,59,30.6l1.45,2.46a1.08,1.08,0,0,1-.31,1.45l-.82.57a2.69,2.69,0,0,0-1.14,2.27h0A2.38,2.38,0,0,0,59.27,39.62Z"/><path class="cls-2" d="M50.05,32a5.3,5.3,0,1,0,5.3,5.3A5.29,5.29,0,0,0,50.05,32Zm0,8.07a2.78,2.78,0,1,1,2.78-2.77A2.76,2.76,0,0,1,50.05,40.06Z"/></svg>