<svg id="Layer_1" data-name="Layer 1" xmlns="http://www.w3.org/2000/svg" viewBox="0 0 100 100"><defs><style>.cls-1{fill:#00ab4e;}.cls-2{fill:#fff;}</style></defs><title>visci_icon_1</title><circle class="cls-1" cx="50" cy="50" r="50"/><path class="cls-2" d="M66,41.47H62.67V56.58h-29V39.05H53.45V35.68H32.67a2.36,2.36,0,0,0-2.37,2.37V59.89H66Z"/><path class="cls-2" d="M66,61.63H30.3l-4.63,10A2.37,2.37,0,0,0,27.82,75H68.45a2.37,2.37,0,0,0,2.16-3.37ZM53.3,71.32H43a.5.5,0,0,1-.47-.58l.58-2.27a.49.49,0,0,1,.47-.36h9.11a.49.49,0,0,1,.47.36l.58,2.27A.45.45,0,0,1,53.3,71.32Z"/><path class="cls-2" d="M74,25H68.14a.58.58,0,0,0-.58.58v5.84a.58.58,0,0,0,.58.58H74a.58.58,0,0,0,.58-.58V25.58A.58.58,0,0,0,74,25Z"/><path class="cls-2" d="M60.72,33.53h4.79a.59.59,0,0,0,.58-.58V28.16a.59.59,0,0,0-.58-.58H60.72a.58.58,0,0,0-.58.58V33A.59.59,0,0,0,60.72,33.53Z"/><path class="cls-2" d="M72,33.53H68.14a.58.58,0,0,0-.58.58V38a.58.58,0,0,0,.58.58H72a.58.58,0,0,0,.58-.58V34.11A.58.58,0,0,0,72,33.53Z"/><path class="cls-2" d="M65.45,35.05H61.56a.59.59,0,0,0-.58.58v3.9a.59.59,0,0,0,.58.58h3.89a.59.59,0,0,0,.58-.58v-3.9A.59.59,0,0,0,65.45,35.05Z"/><path class="cls-2" d="M55.67,40.11h3.26a.59.59,0,0,0,.58-.58V36.32a.59.59,0,0,0-.58-.58H55.67a.58.58,0,0,0-.58.58v3.26A.58.58,0,0,0,55.67,40.11Z"/><path class="cls-2" d="M55,45.42h2.63a.58.58,0,0,0,.58-.58V42.21a.58.58,0,0,0-.58-.58H55a.59.59,0,0,0-.58.58v2.63A.59.59,0,0,0,55,45.42Z"/><path class="cls-2" d="M50.61,42.58a.59.59,0,0,0-.58.58v1.68a.59.59,0,0,0,.58.58H52.3a.59.59,0,0,0,.58-.58V43.16a.59.59,0,0,0-.58-.58Z"/></svg>