<?xml version="1.0" encoding="utf-8"?>
<!-- Generator: Adobe Illustrator 22.0.1, SVG Export Plug-In . SVG Version: 6.00 Build 0)  -->
<svg version="1.1" id="Layer_1" xmlns="http://www.w3.org/2000/svg" xmlns:xlink="http://www.w3.org/1999/xlink" x="0px" y="0px"
	 viewBox="0 0 64 64" style="enable-background:new 0 0 64 64;" xml:space="preserve">
<path d="M37,31.5l-7-3.3c-0.6-0.3-1.1,0-1.1,0.7v6.2c0,0.7,0.5,1,1.1,0.7l7-3.3C37.6,32.2,37.6,31.8,37,31.5z M32,2
	C15.4,2,2,15.4,2,32c0,16.6,13.4,30,30,30c16.6,0,30-13.4,30-30C62,15.4,48.6,2,32,2z M32,44.2c-15.4,0-15.6-1.4-15.6-12.2
	c0-10.8,0.3-12.2,15.6-12.2c15.4,0,15.6,1.4,15.6,12.2C47.6,42.8,47.4,44.2,32,44.2z"/>
</svg>
