<?xml version="1.0" standalone="no"?>
<!DOCTYPE svg PUBLIC "-//W3C//DTD SVG 1.1//EN" "http://www.w3.org/Graphics/SVG/1.1/DTD/svg11.dtd" >
<svg>
<metadata>
Created by FontForge 20120731 at Mon Aug 19 09:41:47 2019
 By www-data
Copyright (C) 2000, 2007 Hoefler &#38; Frere-Jones. http://www.typography.com
</metadata>
<defs>
<font id="SVN-Gotham" horiz-adv-x="500" >
  <font-face 
    font-family="SVN-Gotham"
    font-weight="450"
    font-stretch="normal"
    units-per-em="1000"
    panose-1="2 0 6 4 3 0 0 2 0 4"
    ascent="800"
    descent="-200"
    x-height="528"
    cap-height="700"
    bbox="-48 -275 1180 1139"
    underline-thickness="20"
    underline-position="-113"
    unicode-range="U+0020-FB04"
  />
<missing-glyph 
d="M0 -200v1000h500v-1000h-500zM71 750l179 -390l179 390h-358zM50 -76l172 376l-172 376v-752zM450 676l-172 -376l172 -376v752zM250 240l-179 -390h358z" />
    <glyph glyph-name=".notdef" 
d="M0 -200v1000h500v-1000h-500zM71 750l179 -390l179 390h-358zM50 -76l172 376l-172 376v-752zM450 676l-172 -376l172 -376v752zM250 240l-179 -390h358z" />
    <glyph glyph-name="NUL" horiz-adv-x="0" 
 />
    <glyph glyph-name="CR" horiz-adv-x="300" 
 />
    <glyph glyph-name="space" unicode=" " horiz-adv-x="300" 
 />
    <glyph glyph-name="D" unicode="D" horiz-adv-x="782" 
d="M90 0v700h261c220 0 372 -151 372 -348v-2c0 -197 -152 -350 -372 -350h-261zM213 112h138c147 0 243 99 243 236v2c0 137 -96 238 -243 238h-138v-476z" />
    <glyph glyph-name="E" unicode="E" horiz-adv-x="670" 
d="M90 0v700h519v-110h-396v-182h351v-110h-351v-188h401v-110h-524z" />
    <glyph glyph-name="F" unicode="F" horiz-adv-x="656" 
d="M90 0v700h521v-112h-398v-191h353v-112h-353v-285h-123z" />
    <glyph glyph-name="G" unicode="G" horiz-adv-x="784" 
d="M422 -12c-219 0 -363 156 -363 360v2c0 196 149 362 361 362c121 0 197 -34 269 -95l-78 -93c-54 46 -107 75 -196 75c-128 0 -227 -114 -227 -247v-2c0 -144 95 -250 238 -250c67 0 126 21 169 53v131h-179v107h298v-294c-70 -59 -168 -109 -292 -109z" />
    <glyph glyph-name="H" unicode="H" horiz-adv-x="760" 
d="M90 0v700h123v-291h334v291h123v-700h-123v295h-334v-295h-123z" />
    <glyph glyph-name="I" unicode="I" horiz-adv-x="317" 
d="M97 0v700h123v-700h-123z" />
    <glyph glyph-name="J" unicode="J" horiz-adv-x="559" 
d="M245 -10c-108 0 -177 49 -224 113l81 83c41 -52 81 -82 141 -82c67 0 111 44 111 137v459h126v-462c0 -84 -24 -145 -65 -186s-99 -62 -170 -62z" />
    <glyph glyph-name="K" unicode="K" horiz-adv-x="725" 
d="M90 0v700h123v-352l333 352h151l-291 -301l304 -399h-149l-239 315l-109 -112v-203h-123z" />
    <glyph glyph-name="L" unicode="L" horiz-adv-x="619" 
d="M90 0v700h123v-588h368v-112h-491z" />
    <glyph glyph-name="M" unicode="M" horiz-adv-x="868" 
d="M90 0v700h131l213 -331l213 331h131v-700h-123v502l-221 -330h-4l-219 328v-500h-121z" />
    <glyph glyph-name="N" unicode="N" horiz-adv-x="790" 
d="M90 0v700h114l375 -484v484h121v-700h-103l-386 498v-498h-121z" />
    <glyph glyph-name="O" unicode="O" horiz-adv-x="850" 
d="M424 -12c-215 0 -365 163 -365 360v2c0 196 152 362 367 362s365 -163 365 -360v-2c0 -196 -152 -362 -367 -362zM426 101c139 0 236 111 236 247v2c0 136 -98 249 -238 249c-139 0 -236 -111 -236 -247v-2c0 -136 98 -249 238 -249z" />
    <glyph glyph-name="P" unicode="P" horiz-adv-x="668" 
d="M90 0v700h276c164 0 266 -93 266 -234v-2c0 -156 -125 -239 -280 -239h-139v-225h-123zM213 336h143c93 0 151 52 151 125v2c0 83 -59 125 -151 125h-143v-252z" />
    <glyph glyph-name="Q" unicode="Q" horiz-adv-x="850" 
d="M721 -21l-84 75c-60 -43 -130 -66 -213 -66c-215 0 -365 163 -365 360v2c0 196 152 362 367 362s365 -163 365 -360v-2c0 -80 -24 -154 -71 -215l80 -68zM426 101c47 0 87 13 120 34l-120 102l79 90l121 -110c24 37 36 80 36 131v2c0 136 -98 249 -238 249
c-139 0 -236 -111 -236 -247v-2c0 -136 98 -249 238 -249z" />
    <glyph glyph-name="Q.alt" horiz-adv-x="850" 
d="M666 -101l-117 111c-39 -15 -80 -22 -125 -22c-215 0 -365 163 -365 360v2c0 196 152 362 367 362s365 -163 365 -360v-2c0 -107 -44 -203 -120 -271l175 -172v-8h-180zM426 101c139 0 236 111 236 247v2c0 136 -98 249 -238 249c-139 0 -236 -111 -236 -247v-2
c0 -136 98 -249 238 -249z" />
    <glyph glyph-name="R" unicode="R" horiz-adv-x="723" 
d="M90 0v700h312c88 0 157 -26 202 -70c37 -39 58 -90 58 -151v-2c0 -114 -69 -186 -167 -212l189 -265h-145l-172 244h-154v-244h-123zM213 353h180c88 0 144 45 144 117v2c0 76 -53 116 -145 116h-179v-235z" />
    <glyph glyph-name="S" unicode="S" horiz-adv-x="640" 
d="M335 -10c-108 0 -208 36 -292 112l74 88c68 -59 133 -91 221 -91c76 0 124 35 124 88v2c0 49 -28 78 -158 107c-149 35 -233 81 -233 209v2c0 120 100 203 239 203c103 0 182 -31 254 -88l-66 -93c-64 47 -126 72 -190 72c-72 0 -114 -36 -114 -83v-2
c0 -55 32 -78 166 -110c148 -38 225 -88 225 -205v-2c0 -132 -103 -209 -250 -209z" />
    <glyph glyph-name="T" unicode="T" horiz-adv-x="648" 
d="M262 0v586h-222v114h568v-114h-222v-586h-124z" />
    <glyph glyph-name="U" unicode="U" horiz-adv-x="757" 
d="M377 -11c-181 0 -298 105 -298 308v403h123v-398c0 -131 66 -200 177 -200c109 0 176 66 176 195v403h123v-397c0 -209 -118 -314 -301 -314z" />
    <glyph glyph-name="V" unicode="V" horiz-adv-x="750" 
d="M321 -5l-291 705h136l211 -538l210 538h133l-291 -705h-108z" />
    <glyph glyph-name="W" unicode="W" horiz-adv-x="1116" 
d="M280 -5l-244 705h133l167 -519l172 521h104l172 -521l167 519h129l-244 -705h-106l-172 503l-172 -503h-106z" />
    <glyph glyph-name="X" unicode="X" horiz-adv-x="729" 
d="M37 0l255 356l-245 344h145l174 -251l175 251h141l-244 -342l254 -358h-145l-184 265l-185 -265h-141z" />
    <glyph glyph-name="Y" unicode="Y" horiz-adv-x="716" 
d="M296 0v276l-278 424h145l196 -310l198 310h141l-278 -421v-279h-124z" />
    <glyph glyph-name="Z" unicode="Z" horiz-adv-x="702" 
d="M65 0v91l413 500h-400v109h560v-91l-413 -500h413v-109h-573z" />
    <glyph glyph-name="a" unicode="a" horiz-adv-x="587" 
d="M519 0h-120v65c-36 -43 -91 -76 -171 -76c-100 0 -188 56 -188 163v2c0 117 90 173 214 173c64 0 105 -9 146 -22v10c0 73 -46 113 -130 113c-60 0 -103 -13 -151 -33l-33 97c59 27 114 44 201 44c157 0 232 -82 232 -223v-313zM402 191v30c-31 12 -74 21 -121 21
c-76 0 -121 -31 -121 -82v-2c0 -51 45 -78 102 -78c80 0 140 44 140 111z" />
    <glyph glyph-name="a.alt" horiz-adv-x="671" 
d="M294 -11c-124 0 -245 98 -245 274v2c0 176 119 274 245 274c86 0 143 -43 180 -93v82h121v-528h-121v88c-39 -55 -95 -99 -180 -99zM323 94c81 0 153 68 153 169v2c0 102 -72 169 -153 169c-83 0 -152 -64 -152 -169v-2c0 -102 69 -169 152 -169z" />
    <glyph glyph-name="b" unicode="b" horiz-adv-x="670" 
d="M376 -11c-87 0 -142 44 -179 93v-82h-121v730h121v-290c39 56 94 99 179 99c124 0 246 -98 246 -274v-2c0 -176 -120 -274 -246 -274zM348 94c83 0 151 65 151 169v2c0 102 -68 169 -151 169s-154 -68 -154 -169v-2c0 -102 71 -169 154 -169z" />
    <glyph glyph-name="c" unicode="c" horiz-adv-x="571" 
d="M320 -12c-157 0 -273 123 -273 273v2c0 150 116 276 274 276c100 0 162 -36 211 -91l-75 -81c-37 39 -76 66 -137 66c-88 0 -152 -76 -152 -168v-2c0 -93 65 -170 158 -170c57 0 98 27 137 66l73 -72c-52 -59 -113 -99 -216 -99z" />
    <glyph glyph-name="d" unicode="d" horiz-adv-x="670" 
d="M294 -11c-124 0 -245 98 -245 274v2c0 176 119 274 245 274c87 0 141 -44 180 -93v284h121v-730h-121v88c-39 -55 -95 -99 -180 -99zM323 94c81 0 153 68 153 169v2c0 102 -72 169 -153 169c-83 0 -152 -64 -152 -169v-2c0 -102 69 -169 152 -169z" />
    <glyph glyph-name="e" unicode="e" horiz-adv-x="604" 
d="M318 -12c-152 0 -271 111 -271 274v2c0 152 107 275 258 275c168 0 253 -132 253 -284c0 -11 -1 -22 -2 -34h-388c13 -87 73 -134 152 -134c60 0 100 22 143 63l71 -63c-51 -60 -119 -99 -216 -99zM167 301h271c-8 77 -54 139 -134 139c-75 0 -126 -56 -137 -139z" />
    <glyph glyph-name="f" unicode="f" horiz-adv-x="376" 
d="M103 0v424h-67v101h67v38c0 59 14 102 43 131c28 28 68 42 119 42c43 0 71 -6 98 -14v-102c-24 8 -44 13 -71 13c-47 0 -70 -27 -70 -80v-29h140v-100h-138v-424h-121z" />
    <glyph glyph-name="g" unicode="g" horiz-adv-x="670" 
d="M311 -162c-88 0 -167 21 -236 63l45 91c56 -35 116 -56 188 -56c108 0 167 55 167 162v41c-44 -57 -99 -97 -186 -97c-124 0 -240 92 -240 247v2c0 156 116 248 240 248c89 0 144 -41 185 -90v79h121v-420c0 -88 -22 -154 -67 -199c-48 -48 -121 -71 -217 -71zM321 144
c84 0 155 60 155 145v2c0 87 -71 146 -155 146s-150 -58 -150 -145v-2c0 -87 67 -146 150 -146z" />
    <glyph glyph-name="h" unicode="h" horiz-adv-x="620" 
d="M76 0v730h121v-284c34 50 83 93 165 93c120 0 188 -79 188 -203v-336h-121v300c0 83 -41 129 -113 129c-71 0 -119 -48 -119 -131v-298h-121z" />
    <glyph glyph-name="i" unicode="i" horiz-adv-x="286" 
d="M78 609v115h130v-115h-130zM83 0v528h121v-528h-121z" />
    <glyph glyph-name="j" unicode="j" horiz-adv-x="286" 
d="M78 609v115h130v-115h-130zM50 -163c-23 0 -39 2 -58 5v97c12 -2 23 -3 34 -3c35 0 57 17 57 64v528h121v-535c0 -108 -54 -156 -154 -156z" />
    <glyph glyph-name="k" unicode="k" horiz-adv-x="582" 
d="M76 0v730h121v-436l219 234h147l-210 -215l217 -313h-140l-159 228l-74 -77v-151h-121z" />
    <glyph glyph-name="l" unicode="l" horiz-adv-x="286" 
d="M83 0v730h121v-730h-121z" />
    <glyph glyph-name="m" unicode="m" horiz-adv-x="950" 
d="M76 0v528h121v-80c34 47 80 91 161 91c76 0 129 -37 157 -93c43 56 99 93 179 93c116 0 185 -73 185 -202v-337h-121v300c0 84 -39 129 -107 129c-67 0 -113 -46 -113 -131v-298h-121v301c0 83 -39 128 -107 128s-113 -49 -113 -132v-297h-121z" />
    <glyph glyph-name="n" unicode="n" horiz-adv-x="620" 
d="M76 0v528h121v-82c34 50 83 93 165 93c120 0 188 -79 188 -203v-336h-121v300c0 83 -41 129 -113 129c-71 0 -119 -48 -119 -131v-298h-121z" />
    <glyph glyph-name="o" unicode="o" horiz-adv-x="657" 
d="M327 -12c-161 0 -280 123 -280 273v2c0 151 120 276 282 276c163 0 281 -123 281 -274v-2c0 -149 -120 -275 -283 -275zM329 93c99 0 160 77 160 168v2c0 93 -67 170 -162 170c-97 0 -159 -76 -159 -168v-2c0 -92 68 -170 161 -170z" />
    <glyph glyph-name="p" unicode="p" horiz-adv-x="670" 
d="M76 -160v688h121v-88c39 56 94 99 179 99c124 0 246 -98 246 -274v-2c0 -176 -120 -274 -246 -274c-87 0 -142 44 -179 93v-242h-121zM348 94c83 0 151 65 151 169v2c0 102 -68 169 -151 169s-154 -68 -154 -169v-2c0 -102 71 -169 154 -169z" />
    <glyph glyph-name="q" unicode="q" horiz-adv-x="670" 
d="M474 -160v248c-39 -55 -95 -99 -180 -99c-124 0 -245 98 -245 274v2c0 176 119 274 245 274c87 0 141 -44 180 -93v82h121v-688h-121zM323 94c81 0 153 68 153 169v2c0 102 -72 169 -153 169c-83 0 -152 -64 -152 -169v-2c0 -102 69 -169 152 -169z" />
    <glyph glyph-name="r" unicode="r" horiz-adv-x="413" 
d="M76 0v528h121v-119c33 80 94 133 187 129v-128h-7c-107 0 -180 -69 -180 -209v-201h-121z" />
    <glyph glyph-name="s" unicode="s" 
d="M257 -10c-76 0 -157 27 -224 79l54 82c57 -43 118 -65 173 -65c52 0 82 22 82 57v2c0 40 -56 55 -118 74c-77 21 -165 54 -165 155v2c0 100 83 161 188 161c67 0 138 -23 194 -60l-48 -86c-51 31 -105 50 -149 50c-47 0 -74 -22 -74 -53v-2c0 -36 58 -55 119 -74
c76 -24 164 -59 164 -154v-2c0 -111 -86 -166 -196 -166z" />
    <glyph glyph-name="t" unicode="t" horiz-adv-x="410" 
d="M253 -9c-89 0 -152 39 -152 155v278h-67v104h67v145h121v-145h142v-104h-142v-259c0 -47 24 -66 65 -66c26 0 51 6 75 18v-99c-31 -17 -64 -27 -109 -27z" />
    <glyph glyph-name="u" unicode="u" horiz-adv-x="620" 
d="M258 -11c-120 0 -188 79 -188 203v336h121v-300c0 -83 41 -129 113 -129c71 0 119 48 119 131v298h121v-528h-121v82c-35 -51 -84 -93 -165 -93z" />
    <glyph glyph-name="v" unicode="v" horiz-adv-x="595" 
d="M243 -4l-217 532h130l142 -388l143 388h127l-216 -532h-109z" />
    <glyph glyph-name="w" unicode="w" horiz-adv-x="861" 
d="M203 -4l-171 532h124l106 -362l117 364h103l118 -364l108 362h121l-173 -532h-108l-118 361l-119 -361h-108z" />
    <glyph glyph-name="x" unicode="x" horiz-adv-x="580" 
d="M30 0l194 268l-187 260h132l122 -174l122 174h129l-187 -257l195 -271h-132l-130 185l-129 -185h-129z" />
    <glyph glyph-name="y" unicode="y" horiz-adv-x="596" 
d="M184 -163c-51 0 -88 12 -125 32l41 90c23 -12 46 -20 71 -20c35 0 55 14 75 61l-220 528h129l150 -392l137 392h126l-210 -543c-42 -108 -89 -148 -174 -148z" />
    <glyph glyph-name="z" unicode="z" horiz-adv-x="560" 
d="M52 0v83l305 346h-294v99h448v-83l-305 -346h305v-99h-459z" />
    <glyph glyph-name="Aacute" unicode="&#xc1;" horiz-adv-x="790" 
d="M30 0l308 705h114l308 -705h-130l-71 169h-331l-72 -169h-126zM273 278h241l-121 280zM335 768l104 164l110 -49l-123 -115h-91z" />
    <glyph glyph-name="aacute" unicode="&#xe1;" horiz-adv-x="587" 
d="M519 0h-120v65c-36 -43 -91 -76 -171 -76c-100 0 -188 56 -188 163v2c0 117 90 173 214 173c64 0 105 -9 146 -22v10c0 73 -46 113 -130 113c-60 0 -103 -13 -151 -33l-33 97c59 27 114 44 201 44c157 0 232 -82 232 -223v-313zM402 191v30c-31 12 -74 21 -121 21
c-76 0 -121 -31 -121 -82v-2c0 -51 45 -78 102 -78c80 0 140 44 140 111zM229 595l104 164l110 -49l-123 -115h-91z" />
    <glyph glyph-name="aacute.alt" horiz-adv-x="671" 
d="M293 595l104 164l110 -49l-123 -115h-91zM294 -11c-124 0 -245 98 -245 274v2c0 176 119 274 245 274c86 0 143 -43 180 -93v82h121v-528h-121v88c-39 -55 -95 -99 -180 -99zM323 94c81 0 153 68 153 169v2c0 102 -72 169 -153 169c-83 0 -152 -64 -152 -169v-2
c0 -102 69 -169 152 -169z" />
    <glyph glyph-name="Abreve" unicode="&#x102;" horiz-adv-x="790" 
d="M30 0l308 705h114l308 -705h-130l-71 169h-331l-72 -169h-126zM273 278h241l-121 280zM395 765c-96 0 -164 53 -171 145h83c12 -36 37 -61 88 -61s76 25 88 61h84c-8 -92 -76 -145 -172 -145z" />
    <glyph glyph-name="abreve" unicode="&#x103;" horiz-adv-x="587" 
d="M519 0h-120v65c-36 -43 -91 -76 -171 -76c-100 0 -188 56 -188 163v2c0 117 90 173 214 173c64 0 105 -9 146 -22v10c0 73 -46 113 -130 113c-60 0 -103 -13 -151 -33l-33 97c59 27 114 44 201 44c157 0 232 -82 232 -223v-313zM402 191v30c-31 12 -74 21 -121 21
c-76 0 -121 -31 -121 -82v-2c0 -51 45 -78 102 -78c80 0 140 44 140 111zM317 593c-96 0 -164 53 -171 145h83c12 -36 37 -61 88 -61s76 25 88 61h84c-8 -92 -76 -145 -172 -145z" />
    <glyph glyph-name="abreve.alt" horiz-adv-x="671" 
d="M294 -11c-124 0 -245 98 -245 274v2c0 176 119 274 245 274c86 0 143 -43 180 -93v82h121v-528h-121v88c-39 -55 -95 -99 -180 -99zM323 94c81 0 153 68 153 169v2c0 102 -72 169 -153 169c-83 0 -152 -64 -152 -169v-2c0 -102 69 -169 152 -169zM341 593
c-96 0 -164 53 -171 145h83c12 -36 37 -61 88 -61s76 25 88 61h84c-8 -92 -76 -145 -172 -145z" />
    <glyph glyph-name="Acircumflex" unicode="&#xc2;" horiz-adv-x="790" 
d="M30 0l308 705h114l308 -705h-130l-71 169h-331l-72 -169h-126zM273 278h241l-121 280zM223 764l116 147h112l117 -147h-96l-78 67l-77 -67h-94z" />
    <glyph glyph-name="acircumflex" unicode="&#xe2;" horiz-adv-x="587" 
d="M519 0h-120v65c-36 -43 -91 -76 -171 -76c-100 0 -188 56 -188 163v2c0 117 90 173 214 173c64 0 105 -9 146 -22v10c0 73 -46 113 -130 113c-60 0 -103 -13 -151 -33l-33 97c59 27 114 44 201 44c157 0 232 -82 232 -223v-313zM402 191v30c-31 12 -74 21 -121 21
c-76 0 -121 -31 -121 -82v-2c0 -51 45 -78 102 -78c80 0 140 44 140 111zM129 595l116 147h112l117 -147h-96l-78 67l-77 -67h-94z" />
    <glyph glyph-name="acircumflex.alt" horiz-adv-x="671" 
d="M169 595l116 147h112l117 -147h-96l-78 67l-77 -67h-94zM294 -11c-124 0 -245 98 -245 274v2c0 176 119 274 245 274c86 0 143 -43 180 -93v82h121v-528h-121v88c-39 -55 -95 -99 -180 -99zM323 94c81 0 153 68 153 169v2c0 102 -72 169 -153 169
c-83 0 -152 -64 -152 -169v-2c0 -102 69 -169 152 -169z" />
    <glyph glyph-name="Adieresis" unicode="&#xc4;" horiz-adv-x="790" 
d="M30 0l308 705h114l308 -705h-130l-71 169h-331l-72 -169h-126zM273 278h241l-121 280zM436 768v112h124v-112h-124zM230 768v112h125v-112h-125z" />
    <glyph glyph-name="adieresis" unicode="&#xe4;" horiz-adv-x="587" 
d="M519 0h-120v65c-36 -43 -91 -76 -171 -76c-100 0 -188 56 -188 163v2c0 117 90 173 214 173c64 0 105 -9 146 -22v10c0 73 -46 113 -130 113c-60 0 -103 -13 -151 -33l-33 97c59 27 114 44 201 44c157 0 232 -82 232 -223v-313zM402 191v30c-31 12 -74 21 -121 21
c-76 0 -121 -31 -121 -82v-2c0 -51 45 -78 102 -78c80 0 140 44 140 111zM330 595v119h123v-119h-123zM135 595v119h123v-119h-123z" />
    <glyph glyph-name="adieresis.alt" horiz-adv-x="671" 
d="M377 595v119h123v-119h-123zM182 595v119h123v-119h-123zM294 -11c-124 0 -245 98 -245 274v2c0 176 119 274 245 274c86 0 143 -43 180 -93v82h121v-528h-121v88c-39 -55 -95 -99 -180 -99zM323 94c81 0 153 68 153 169v2c0 102 -72 169 -153 169
c-83 0 -152 -64 -152 -169v-2c0 -102 69 -169 152 -169z" />
    <glyph glyph-name="AE" unicode="&#xc6;" horiz-adv-x="1045" 
d="M12 0l391 700h581v-110h-374v-182h329v-110h-329v-188h379v-110h-502v169h-255l-93 -169h-127zM291 278h196v315h-20z" />
    <glyph glyph-name="ae" unicode="&#xe6;" horiz-adv-x="952" 
d="M240 -11c-109 0 -200 56 -200 163v2c0 117 91 173 212 173c67 0 104 -9 145 -22v10c0 75 -43 113 -129 113c-57 0 -101 -13 -149 -33l-33 97c59 27 115 44 199 44c87 0 153 -31 185 -87c43 56 106 90 185 90c164 0 250 -132 250 -284c0 -11 0 -22 -1 -34h-388
c15 -87 74 -134 151 -134c60 0 101 22 144 63l71 -63c-51 -60 -118 -99 -217 -99c-83 0 -156 34 -204 90c-60 -49 -132 -89 -221 -89zM514 301h272c-8 77 -54 139 -134 139c-76 0 -127 -56 -138 -139zM260 80c59 0 109 25 156 68c-9 23 -16 48 -19 76c-31 11 -69 18 -118 18
c-75 0 -119 -31 -119 -82v-2c0 -51 44 -78 100 -78z" />
    <glyph glyph-name="AEacute" unicode="&#x1fc;" horiz-adv-x="1045" 
d="M572 758l112 145l110 -48l-128 -97h-94zM12 0l391 700h581v-110h-374v-182h329v-110h-329v-188h379v-110h-502v169h-255l-93 -169h-127zM291 278h196v315h-20z" />
    <glyph glyph-name="aeacute" unicode="&#x1fd;" horiz-adv-x="952" 
d="M424 595l104 164l110 -49l-123 -115h-91zM240 -11c-109 0 -200 56 -200 163v2c0 117 91 173 212 173c67 0 104 -9 145 -22v10c0 75 -43 113 -129 113c-57 0 -101 -13 -149 -33l-33 97c59 27 115 44 199 44c87 0 153 -31 185 -87c43 56 106 90 185 90
c164 0 250 -132 250 -284c0 -11 0 -22 -1 -34h-388c15 -87 74 -134 151 -134c60 0 101 22 144 63l71 -63c-51 -60 -118 -99 -217 -99c-83 0 -156 34 -204 90c-60 -49 -132 -89 -221 -89zM514 301h272c-8 77 -54 139 -134 139c-76 0 -127 -56 -138 -139zM260 80
c59 0 109 25 156 68c-9 23 -16 48 -19 76c-31 11 -69 18 -118 18c-75 0 -119 -31 -119 -82v-2c0 -51 44 -78 100 -78z" />
    <glyph glyph-name="Agrave" unicode="&#xc0;" horiz-adv-x="790" 
d="M30 0l308 705h114l308 -705h-130l-71 169h-331l-72 -169h-126zM273 278h241l-121 280zM360 768l-123 115l110 49l104 -164h-91z" />
    <glyph glyph-name="agrave" unicode="&#xe0;" horiz-adv-x="587" 
d="M519 0h-120v65c-36 -43 -91 -76 -171 -76c-100 0 -188 56 -188 163v2c0 117 90 173 214 173c64 0 105 -9 146 -22v10c0 73 -46 113 -130 113c-60 0 -103 -13 -151 -33l-33 97c59 27 114 44 201 44c157 0 232 -82 232 -223v-313zM402 191v30c-31 12 -74 21 -121 21
c-76 0 -121 -31 -121 -82v-2c0 -51 45 -78 102 -78c80 0 140 44 140 111zM292 595l-123 115l110 49l104 -164h-91z" />
    <glyph glyph-name="agrave.alt" horiz-adv-x="671" 
d="M294 -11c-124 0 -245 98 -245 274v2c0 176 119 274 245 274c86 0 143 -43 180 -93v82h121v-528h-121v88c-39 -55 -95 -99 -180 -99zM323 94c81 0 153 68 153 169v2c0 102 -72 169 -153 169c-83 0 -152 -64 -152 -169v-2c0 -102 69 -169 152 -169zM298 595l-123 115
l110 49l104 -164h-91z" />
    <glyph glyph-name="Amacron" unicode="&#x100;" horiz-adv-x="790" 
d="M30 0l308 705h114l308 -705h-130l-71 169h-331l-72 -169h-126zM273 278h241l-121 280zM216 779v90h359v-90h-359z" />
    <glyph glyph-name="amacron" unicode="&#x101;" horiz-adv-x="587" 
d="M519 0h-120v65c-36 -43 -91 -76 -171 -76c-100 0 -188 56 -188 163v2c0 117 90 173 214 173c64 0 105 -9 146 -22v10c0 73 -46 113 -130 113c-60 0 -103 -13 -151 -33l-33 97c59 27 114 44 201 44c157 0 232 -82 232 -223v-313zM402 191v30c-31 12 -74 21 -121 21
c-76 0 -121 -31 -121 -82v-2c0 -51 45 -78 102 -78c80 0 140 44 140 111zM124 606v88h340v-88h-340z" />
    <glyph glyph-name="amacron.alt" horiz-adv-x="671" 
d="M294 -11c-124 0 -245 98 -245 274v2c0 176 119 274 245 274c86 0 143 -43 180 -93v82h121v-528h-121v88c-39 -55 -95 -99 -180 -99zM323 94c81 0 153 68 153 169v2c0 102 -72 169 -153 169c-83 0 -152 -64 -152 -169v-2c0 -102 69 -169 152 -169zM171 606v88h340v-88
h-340z" />
    <glyph glyph-name="Aogonek" unicode="&#x104;" horiz-adv-x="790" 
d="M768 -106v-58c-107 -11 -164 30 -164 82c0 31 15 55 40 82h-14l-71 169h-331l-72 -169h-126l308 705h114l308 -705h-31c-24 -24 -33 -44 -33 -63c0 -29 24 -43 72 -43zM273 278h241l-121 280z" />
    <glyph glyph-name="aogonek" unicode="&#x105;" horiz-adv-x="587" 
d="M525 -106v-58c-107 -11 -164 30 -164 82c0 31 15 55 40 82h-2v65c-36 -43 -91 -76 -171 -76c-100 0 -188 56 -188 163v2c0 117 90 173 214 173c64 0 105 -9 146 -22v10c0 73 -46 113 -130 113c-60 0 -103 -13 -151 -33l-33 97c59 27 114 44 201 44
c157 0 232 -82 232 -223v-313h-33c-24 -24 -33 -44 -33 -63c0 -29 24 -43 72 -43zM402 191v30c-31 12 -74 21 -121 21c-76 0 -121 -31 -121 -82v-2c0 -51 45 -78 102 -78c80 0 140 44 140 111z" />
    <glyph glyph-name="aogonek.alt" horiz-adv-x="671" 
d="M607 -106v-58c-107 -11 -164 30 -164 82c0 31 15 55 40 82h-9v88c-39 -55 -95 -99 -180 -99c-124 0 -245 98 -245 274v2c0 176 119 274 245 274c86 0 143 -43 180 -93v82h121v-528h-27c-24 -24 -33 -44 -33 -63c0 -29 24 -43 72 -43zM323 94c81 0 153 68 153 169v2
c0 102 -72 169 -153 169c-83 0 -152 -64 -152 -169v-2c0 -102 69 -169 152 -169z" />
    <glyph glyph-name="Aring" unicode="&#xc5;" horiz-adv-x="790" 
d="M276 745c0 61 55 106 119 106s119 -45 119 -106c0 -35 -17 -63 -44 -82l290 -663h-130l-71 169h-331l-72 -169h-126l289 663c-27 19 -43 47 -43 82zM273 278h241l-121 280zM331 745c0 -32 25 -58 64 -58s65 26 65 58c0 33 -26 58 -65 58s-64 -25 -64 -58z" />
    <glyph glyph-name="aring" unicode="&#xe5;" horiz-adv-x="587" 
d="M519 0h-120v65c-36 -43 -91 -76 -171 -76c-100 0 -188 56 -188 163v2c0 117 90 173 214 173c64 0 105 -9 146 -22v10c0 73 -46 113 -130 113c-60 0 -103 -13 -151 -33l-33 97c59 27 114 44 201 44c157 0 232 -82 232 -223v-313zM402 191v30c-31 12 -74 21 -121 21
c-76 0 -121 -31 -121 -82v-2c0 -51 45 -78 102 -78c80 0 140 44 140 111zM178 705c0 61 52 112 116 112s116 -51 116 -112s-52 -112 -116 -112s-116 51 -116 112zM227 705c0 -37 30 -67 67 -67s67 30 67 67s-30 67 -67 67s-67 -30 -67 -67z" />
    <glyph glyph-name="aring.alt" horiz-adv-x="671" 
d="M225 705c0 61 52 112 116 112s116 -51 116 -112s-52 -112 -116 -112s-116 51 -116 112zM274 705c0 -37 30 -67 67 -67s67 30 67 67s-30 67 -67 67s-67 -30 -67 -67zM294 -11c-124 0 -245 98 -245 274v2c0 176 119 274 245 274c86 0 143 -43 180 -93v82h121v-528h-121v88
c-39 -55 -95 -99 -180 -99zM323 94c81 0 153 68 153 169v2c0 102 -72 169 -153 169c-83 0 -152 -64 -152 -169v-2c0 -102 69 -169 152 -169z" />
    <glyph glyph-name="aring.alt2" horiz-adv-x="587" 
d="M374 525c97 -27 145 -100 145 -212v-313h-120v65c-36 -43 -91 -76 -171 -76c-100 0 -188 56 -188 163v2c0 117 90 173 214 173c64 0 105 -9 146 -22v10c0 73 -46 113 -130 113c-60 0 -103 -13 -151 -33l-33 97c39 17 76 31 123 38c-20 21 -30 46 -30 73
c0 61 52 112 116 112s116 -51 116 -112c0 -31 -14 -59 -37 -78zM228 603c0 -37 30 -67 67 -67c36 0 67 30 67 67c0 36 -31 67 -67 67c-37 0 -67 -31 -67 -67zM402 191v30c-31 12 -74 21 -121 21c-76 0 -121 -31 -121 -82v-2c0 -51 45 -78 102 -78c80 0 140 44 140 111z" />
    <glyph glyph-name="Aringacute" unicode="&#x1fa;" horiz-adv-x="790" 
d="M276 745c0 61 55 106 119 106s119 -45 119 -106c0 -35 -17 -63 -44 -82l290 -663h-130l-71 169h-331l-72 -169h-126l289 663c-27 19 -43 47 -43 82zM273 278h241l-121 280zM340 879l117 129l109 -49l-131 -80h-95zM331 745c0 -32 25 -58 64 -58s65 26 65 58
c0 33 -26 58 -65 58s-64 -25 -64 -58z" />
    <glyph glyph-name="aringacute" unicode="&#x1fb;" horiz-adv-x="587" 
d="M245 849l110 138l108 -49l-126 -89h-92zM519 0h-120v65c-36 -43 -91 -76 -171 -76c-100 0 -188 56 -188 163v2c0 117 90 173 214 173c64 0 105 -9 146 -22v10c0 73 -46 113 -130 113c-60 0 -103 -13 -151 -33l-33 97c59 27 114 44 201 44c157 0 232 -82 232 -223v-313z
M402 191v30c-31 12 -74 21 -121 21c-76 0 -121 -31 -121 -82v-2c0 -51 45 -78 102 -78c80 0 140 44 140 111zM178 705c0 61 52 112 116 112s116 -51 116 -112s-52 -112 -116 -112s-116 51 -116 112zM227 705c0 -37 30 -67 67 -67s67 30 67 67s-30 67 -67 67s-67 -30 -67 -67
z" />
    <glyph glyph-name="aringacute.alt" horiz-adv-x="671" 
d="M292 849l110 138l108 -49l-127 -89h-91zM225 705c0 61 52 112 116 112s116 -51 116 -112s-52 -112 -116 -112s-116 51 -116 112zM274 705c0 -37 30 -67 67 -67s67 30 67 67s-30 67 -67 67s-67 -30 -67 -67zM294 -11c-124 0 -245 98 -245 274v2c0 176 119 274 245 274
c86 0 143 -43 180 -93v82h121v-528h-121v88c-39 -55 -95 -99 -180 -99zM323 94c81 0 153 68 153 169v2c0 102 -72 169 -153 169c-83 0 -152 -64 -152 -169v-2c0 -102 69 -169 152 -169z" />
    <glyph glyph-name="aringacute.alt2" horiz-adv-x="587" 
d="M245 750l110 138l108 -49l-126 -89h-92zM374 525c97 -27 145 -100 145 -212v-313h-120v65c-36 -43 -91 -76 -171 -76c-100 0 -188 56 -188 163v2c0 117 90 173 214 173c64 0 105 -9 146 -22v10c0 73 -46 113 -130 113c-60 0 -103 -13 -151 -33l-33 97c39 17 76 31 123 38
c-20 21 -30 46 -30 73c0 61 52 112 116 112s116 -51 116 -112c0 -31 -14 -59 -37 -78zM228 603c0 -37 30 -67 67 -67c36 0 67 30 67 67c0 36 -31 67 -67 67c-37 0 -67 -31 -67 -67zM402 191v30c-31 12 -74 21 -121 21c-76 0 -121 -31 -121 -82v-2c0 -51 45 -78 102 -78
c80 0 140 44 140 111z" />
    <glyph glyph-name="Atilde" unicode="&#xc3;" horiz-adv-x="790" 
d="M30 0l308 705h114l308 -705h-130l-71 169h-331l-72 -169h-126zM273 278h241l-121 280zM274 758l-67 21c21 79 51 123 112 123c56 0 112 -39 147 -39c29 0 40 16 55 48l68 -20c-23 -79 -52 -123 -112 -123c-56 0 -112 39 -147 39c-29 0 -41 -16 -56 -49z" />
    <glyph glyph-name="atilde" unicode="&#xe3;" horiz-adv-x="587" 
d="M519 0h-120v65c-36 -43 -91 -76 -171 -76c-100 0 -188 56 -188 163v2c0 117 90 173 214 173c64 0 105 -9 146 -22v10c0 73 -46 113 -130 113c-60 0 -103 -13 -151 -33l-33 97c59 27 114 44 201 44c157 0 232 -82 232 -223v-313zM402 191v30c-31 12 -74 21 -121 21
c-76 0 -121 -31 -121 -82v-2c0 -51 45 -78 102 -78c80 0 140 44 140 111zM181 585l-67 21c23 80 51 124 112 124c56 0 108 -40 144 -40c29 0 40 15 55 50l67 -20c-23 -81 -51 -125 -112 -125c-55 0 -109 40 -144 40c-29 0 -40 -15 -55 -50z" />
    <glyph glyph-name="atilde.alt" horiz-adv-x="671" 
d="M294 -11c-124 0 -245 98 -245 274v2c0 176 119 274 245 274c86 0 143 -43 180 -93v82h121v-528h-121v88c-39 -55 -95 -99 -180 -99zM323 94c81 0 153 68 153 169v2c0 102 -72 169 -153 169c-83 0 -152 -64 -152 -169v-2c0 -102 69 -169 152 -169zM223 585l-67 21
c23 80 51 124 112 124c56 0 108 -40 144 -40c29 0 40 15 55 50l67 -20c-23 -81 -51 -125 -112 -125c-55 0 -109 40 -144 40c-29 0 -40 -15 -55 -50z" />
    <glyph glyph-name="Cacute" unicode="&#x106;" horiz-adv-x="738" 
d="M415 -12c-204 0 -356 159 -356 360v2c0 199 149 362 361 362c128 0 207 -45 274 -109l-79 -91c-56 52 -116 87 -196 87c-134 0 -231 -111 -231 -247v-2c0 -137 97 -249 231 -249c85 0 141 35 201 91l79 -80c-71 -77 -154 -124 -284 -124zM359 768l112 145l110 -48
l-128 -97h-94z" />
    <glyph glyph-name="cacute" unicode="&#x107;" horiz-adv-x="571" 
d="M267 595l104 164l110 -49l-123 -115h-91zM320 -12c-157 0 -273 123 -273 273v2c0 150 116 276 274 276c100 0 162 -36 211 -91l-75 -81c-37 39 -76 66 -137 66c-88 0 -152 -76 -152 -168v-2c0 -93 65 -170 158 -170c57 0 98 27 137 66l73 -72c-52 -59 -113 -99 -216 -99z
" />
    <glyph glyph-name="Ccaron" unicode="&#x10c;" horiz-adv-x="738" 
d="M415 -12c-204 0 -356 159 -356 360v2c0 199 149 362 361 362c128 0 207 -45 274 -109l-79 -91c-56 52 -116 87 -196 87c-134 0 -231 -111 -231 -247v-2c0 -137 97 -249 231 -249c85 0 141 35 201 91l79 -80c-71 -77 -154 -124 -284 -124zM586 903l-121 -135h-114
l-121 135h102l77 -57l77 57h100z" />
    <glyph glyph-name="ccaron" unicode="&#x10d;" horiz-adv-x="571" 
d="M488 742l-117 -147h-112l-116 147h96l77 -67l78 67h94zM320 -12c-157 0 -273 123 -273 273v2c0 150 116 276 274 276c100 0 162 -36 211 -91l-75 -81c-37 39 -76 66 -137 66c-88 0 -152 -76 -152 -168v-2c0 -93 65 -170 158 -170c57 0 98 27 137 66l73 -72
c-52 -59 -113 -99 -216 -99z" />
    <glyph glyph-name="Ccedilla" unicode="&#xc7;" horiz-adv-x="738" 
d="M371 -166l-106 45l78 116c-167 32 -284 175 -284 353v2c0 199 149 362 361 362c128 0 207 -45 274 -109l-79 -91c-56 52 -116 87 -196 87c-134 0 -231 -111 -231 -247v-2c0 -137 97 -249 231 -249c85 0 141 35 201 91l79 -80c-69 -72 -144 -118 -262 -123z" />
    <glyph glyph-name="ccedilla" unicode="&#xe7;" horiz-adv-x="571" 
d="M276 -166l-106 45l80 118c-121 30 -203 137 -203 264v2c0 150 116 276 274 276c100 0 162 -36 211 -91l-75 -81c-37 39 -76 66 -137 66c-88 0 -152 -76 -152 -168v-2c0 -93 65 -170 158 -170c57 0 98 27 137 66l73 -72c-48 -55 -103 -93 -194 -98z" />
    <glyph glyph-name="Cdotaccent" unicode="&#x10a;" horiz-adv-x="738" 
d="M344 768v112h128v-112h-128zM415 -12c-204 0 -356 159 -356 360v2c0 199 149 362 361 362c128 0 207 -45 274 -109l-79 -91c-56 52 -116 87 -196 87c-134 0 -231 -111 -231 -247v-2c0 -137 97 -249 231 -249c85 0 141 35 201 91l79 -80c-71 -77 -154 -124 -284 -124z" />
    <glyph glyph-name="cdotaccent" unicode="&#x10b;" horiz-adv-x="571" 
d="M320 -12c-157 0 -273 123 -273 273v2c0 150 116 276 274 276c100 0 162 -36 211 -91l-75 -81c-37 39 -76 66 -137 66c-88 0 -152 -76 -152 -168v-2c0 -93 65 -170 158 -170c57 0 98 27 137 66l73 -72c-52 -59 -113 -99 -216 -99zM252 595v119h126v-119h-126z" />
    <glyph glyph-name="Dcaron" unicode="&#x10e;" horiz-adv-x="782" 
d="M555 893l-121 -135h-114l-121 135h102l77 -57l77 57h100zM90 0v700h261c220 0 372 -151 372 -348v-2c0 -197 -152 -350 -372 -350h-261zM213 112h138c147 0 243 99 243 236v2c0 137 -96 238 -243 238h-138v-476z" />
    <glyph glyph-name="dcaron" unicode="&#x10f;" horiz-adv-x="671" 
d="M651 540l12 190h94v-3l-56 -187h-50zM294 -11c-124 0 -245 98 -245 274v2c0 176 119 274 245 274c87 0 141 -44 180 -93v284h121v-730h-121v88c-39 -55 -95 -99 -180 -99zM323 94c81 0 153 68 153 169v2c0 102 -72 169 -153 169c-83 0 -152 -64 -152 -169v-2
c0 -102 69 -169 152 -169z" />
    <glyph glyph-name="Dcroat" unicode="&#x110;" horiz-adv-x="812" 
d="M120 0v297h-75v110h75v293h261c220 0 372 -151 372 -348v-2c0 -197 -152 -350 -372 -350h-261zM243 112h138c147 0 243 99 243 236v2c0 137 -96 238 -243 238h-138v-181h175v-110h-175v-185z" />
    <glyph glyph-name="dcroat" unicode="&#x111;" horiz-adv-x="671" 
d="M310 601v73h164v56h121v-56h69v-73h-69v-601h-121v88c-39 -55 -95 -99 -180 -99c-124 0 -245 98 -245 274v2c0 176 119 274 245 274c87 0 141 -44 180 -93v155h-164zM323 94c81 0 153 68 153 169v2c0 102 -72 169 -153 169c-83 0 -152 -64 -152 -169v-2
c0 -102 69 -169 152 -169z" />
    <glyph glyph-name="Eacute" unicode="&#xc9;" horiz-adv-x="670" 
d="M90 0v700h519v-110h-396v-182h351v-110h-351v-188h401v-110h-524zM262 757l104 164l110 -49l-123 -115h-91z" />
    <glyph glyph-name="eacute" unicode="&#xe9;" horiz-adv-x="604" 
d="M228 595l104 164l110 -49l-123 -115h-91zM318 -12c-152 0 -271 111 -271 274v2c0 152 107 275 258 275c168 0 253 -132 253 -284c0 -11 -1 -22 -2 -34h-388c13 -87 73 -134 152 -134c60 0 100 22 143 63l71 -63c-51 -60 -119 -99 -216 -99zM167 301h271
c-8 77 -54 139 -134 139c-75 0 -126 -56 -137 -139z" />
    <glyph glyph-name="Ebreve" unicode="&#x114;" horiz-adv-x="670" 
d="M351 756c-96 0 -165 47 -173 134h86c12 -31 36 -50 87 -50s75 19 87 50h86c-8 -87 -77 -134 -173 -134zM90 0v700h519v-110h-396v-182h351v-110h-351v-188h401v-110h-524z" />
    <glyph glyph-name="ebreve" unicode="&#x115;" horiz-adv-x="604" 
d="M318 -12c-152 0 -271 111 -271 274v2c0 152 107 275 258 275c168 0 253 -132 253 -284c0 -11 -1 -22 -2 -34h-388c13 -87 73 -134 152 -134c60 0 100 22 143 63l71 -63c-51 -60 -119 -99 -216 -99zM167 301h271c-8 77 -54 139 -134 139c-75 0 -126 -56 -137 -139z
M303 593c-96 0 -164 53 -171 145h83c12 -36 37 -61 88 -61s76 25 88 61h84c-8 -92 -76 -145 -172 -145z" />
    <glyph glyph-name="Ecaron" unicode="&#x11a;" horiz-adv-x="670" 
d="M529 893l-121 -135h-114l-121 135h102l77 -57l77 57h100zM90 0v700h519v-110h-396v-182h351v-110h-351v-188h401v-110h-524z" />
    <glyph glyph-name="ecaron" unicode="&#x11b;" horiz-adv-x="604" 
d="M476 742l-117 -147h-112l-116 147h96l77 -67l78 67h94zM318 -12c-152 0 -271 111 -271 274v2c0 152 107 275 258 275c168 0 253 -132 253 -284c0 -11 -1 -22 -2 -34h-388c13 -87 73 -134 152 -134c60 0 100 22 143 63l71 -63c-51 -60 -119 -99 -216 -99zM167 301h271
c-8 77 -54 139 -134 139c-75 0 -126 -56 -137 -139z" />
    <glyph glyph-name="Ecircumflex" unicode="&#xca;" horiz-adv-x="670" 
d="M90 0v700h519v-110h-396v-182h351v-110h-351v-188h401v-110h-524zM179 758l116 147h112l117 -147h-96l-78 67l-77 -67h-94z" />
    <glyph glyph-name="ecircumflex" unicode="&#xea;" horiz-adv-x="604" 
d="M131 595l116 147h112l117 -147h-96l-78 67l-77 -67h-94zM318 -12c-152 0 -271 111 -271 274v2c0 152 107 275 258 275c168 0 253 -132 253 -284c0 -11 -1 -22 -2 -34h-388c13 -87 73 -134 152 -134c60 0 100 22 143 63l71 -63c-51 -60 -119 -99 -216 -99zM167 301h271
c-8 77 -54 139 -134 139c-75 0 -126 -56 -137 -139z" />
    <glyph glyph-name="Edieresis" unicode="&#xcb;" horiz-adv-x="670" 
d="M392 758v112h124v-112h-124zM186 758v112h125v-112h-125zM90 0v700h519v-110h-396v-182h351v-110h-351v-188h401v-110h-524z" />
    <glyph glyph-name="edieresis" unicode="&#xeb;" horiz-adv-x="604" 
d="M339 595v119h123v-119h-123zM144 595v119h123v-119h-123zM318 -12c-152 0 -271 111 -271 274v2c0 152 107 275 258 275c168 0 253 -132 253 -284c0 -11 -1 -22 -2 -34h-388c13 -87 73 -134 152 -134c60 0 100 22 143 63l71 -63c-51 -60 -119 -99 -216 -99zM167 301h271
c-8 77 -54 139 -134 139c-75 0 -126 -56 -137 -139z" />
    <glyph glyph-name="Edotaccent" unicode="&#x116;" horiz-adv-x="670" 
d="M287 758v112h128v-112h-128zM90 0v700h519v-110h-396v-182h351v-110h-351v-188h401v-110h-524z" />
    <glyph glyph-name="edotaccent" unicode="&#x117;" horiz-adv-x="604" 
d="M318 -12c-152 0 -271 111 -271 274v2c0 152 107 275 258 275c168 0 253 -132 253 -284c0 -11 -1 -22 -2 -34h-388c13 -87 73 -134 152 -134c60 0 100 22 143 63l71 -63c-51 -60 -119 -99 -216 -99zM167 301h271c-8 77 -54 139 -134 139c-75 0 -126 -56 -137 -139z
M240 595v119h126v-119h-126z" />
    <glyph glyph-name="Egrave" unicode="&#xc8;" horiz-adv-x="670" 
d="M90 0v700h519v-110h-396v-182h351v-110h-351v-188h401v-110h-524zM335 757l-123 115l110 49l104 -164h-91z" />
    <glyph glyph-name="egrave" unicode="&#xe8;" horiz-adv-x="604" 
d="M318 -12c-152 0 -271 111 -271 274v2c0 152 107 275 258 275c168 0 253 -132 253 -284c0 -11 -1 -22 -2 -34h-388c13 -87 73 -134 152 -134c60 0 100 22 143 63l71 -63c-51 -60 -119 -99 -216 -99zM167 301h271c-8 77 -54 139 -134 139c-75 0 -126 -56 -137 -139z
M303 595l-123 115l110 49l104 -164h-91z" />
    <glyph glyph-name="Emacron" unicode="&#x112;" horiz-adv-x="670" 
d="M172 769v90h359v-90h-359zM90 0v700h519v-110h-396v-182h351v-110h-351v-188h401v-110h-524z" />
    <glyph glyph-name="emacron" unicode="&#x113;" horiz-adv-x="604" 
d="M318 -12c-152 0 -271 111 -271 274v2c0 152 107 275 258 275c168 0 253 -132 253 -284c0 -11 -1 -22 -2 -34h-388c13 -87 73 -134 152 -134c60 0 100 22 143 63l71 -63c-51 -60 -119 -99 -216 -99zM167 301h271c-8 77 -54 139 -134 139c-75 0 -126 -56 -137 -139z
M133 606v88h340v-88h-340z" />
    <glyph glyph-name="Eogonek" unicode="&#x118;" horiz-adv-x="670" 
d="M90 0v700h519v-110h-396v-182h351v-110h-351v-188h401v-110h-39c-24 -24 -33 -44 -33 -63c0 -29 24 -43 72 -43v-58c-107 -11 -164 30 -164 82c0 31 15 55 40 82h-400z" />
    <glyph glyph-name="eogonek" unicode="&#x119;" horiz-adv-x="604" 
d="M167 301h271c-8 77 -54 139 -134 139c-75 0 -126 -56 -137 -139zM476 29c-40 -36 -55 -63 -55 -87c0 -35 24 -48 72 -48v-58c-105 -11 -163 29 -163 80c0 27 11 49 34 76c-13 -3 -31 -4 -46 -4c-152 0 -271 111 -271 274v2c0 152 107 275 258 275
c168 0 253 -132 253 -284c0 -11 -1 -22 -2 -34h-388c13 -87 73 -134 152 -134c60 0 100 22 143 63l71 -63c-20 -23 -35 -38 -58 -58z" />
    <glyph glyph-name="Eth" unicode="&#xd0;" horiz-adv-x="812" 
d="M120 0v297h-75v110h75v293h261c220 0 372 -151 372 -348v-2c0 -197 -152 -350 -372 -350h-261zM243 112h138c147 0 243 99 243 236v2c0 137 -96 238 -243 238h-138v-181h175v-110h-175v-185z" />
    <glyph glyph-name="eth" unicode="&#xf0;" horiz-adv-x="657" 
d="M519 666l-78 -25c95 -95 168 -216 168 -352v-2c0 -165 -108 -299 -283 -299c-160 0 -279 122 -279 280v2c0 147 109 257 240 257c64 0 105 -21 146 -50c-25 42 -60 85 -106 129l-121 -37l-24 67l84 26c-29 24 -57 47 -88 68h164l39 -33l114 35zM329 94
c96 0 160 74 160 166v2c0 92 -67 166 -164 166s-157 -73 -157 -165v-2c0 -91 68 -167 161 -167z" />
    <glyph glyph-name="Gbreve" unicode="&#x11e;" horiz-adv-x="784" 
d="M412 766c-96 0 -165 47 -173 134h86c12 -31 36 -50 87 -50s75 19 87 50h86c-8 -87 -77 -134 -173 -134zM422 -12c-219 0 -363 156 -363 360v2c0 196 149 362 361 362c121 0 197 -34 269 -95l-78 -93c-54 46 -107 75 -196 75c-128 0 -227 -114 -227 -247v-2
c0 -144 95 -250 238 -250c67 0 126 21 169 53v131h-179v107h298v-294c-70 -59 -168 -109 -292 -109z" />
    <glyph glyph-name="gbreve" unicode="&#x11f;" horiz-adv-x="671" 
d="M311 -162c-88 0 -167 21 -236 63l45 91c56 -35 116 -56 188 -56c108 0 167 55 167 162v41c-44 -57 -99 -97 -186 -97c-124 0 -240 92 -240 247v2c0 156 116 248 240 248c89 0 144 -41 185 -90v79h121v-420c0 -88 -22 -154 -67 -199c-48 -48 -121 -71 -217 -71zM321 144
c84 0 155 60 155 145v2c0 87 -71 146 -155 146s-150 -58 -150 -145v-2c0 -87 67 -146 150 -146zM341 593c-96 0 -164 53 -171 145h83c12 -36 37 -61 88 -61s76 25 88 61h84c-8 -92 -76 -145 -172 -145z" />
    <glyph glyph-name="Gcommaaccent" unicode="&#x122;" horiz-adv-x="784" 
d="M344 -275l-8 39c49 7 73 29 70 68h-54v101h118v-86c0 -83 -43 -118 -126 -122zM422 -12c-219 0 -363 156 -363 360v2c0 196 149 362 361 362c121 0 197 -34 269 -95l-78 -93c-54 46 -107 75 -196 75c-128 0 -227 -114 -227 -247v-2c0 -144 95 -250 238 -250
c67 0 126 21 169 53v131h-179v107h298v-294c-70 -59 -168 -109 -292 -109z" />
    <glyph glyph-name="gcommaaccent" unicode="&#x123;" horiz-adv-x="671" 
d="M406 803l8 -39c-49 -7 -73 -29 -70 -68h54v-101h-118v86c0 83 43 118 126 122zM311 -162c-88 0 -167 21 -236 63l45 91c56 -35 116 -56 188 -56c108 0 167 55 167 162v41c-44 -57 -99 -97 -186 -97c-124 0 -240 92 -240 247v2c0 156 116 248 240 248
c89 0 144 -41 185 -90v79h121v-420c0 -88 -22 -154 -67 -199c-48 -48 -121 -71 -217 -71zM321 144c84 0 155 60 155 145v2c0 87 -71 146 -155 146s-150 -58 -150 -145v-2c0 -87 67 -146 150 -146z" />
    <glyph glyph-name="Gdotaccent" unicode="&#x120;" horiz-adv-x="784" 
d="M348 768v112h128v-112h-128zM422 -12c-219 0 -363 156 -363 360v2c0 196 149 362 361 362c121 0 197 -34 269 -95l-78 -93c-54 46 -107 75 -196 75c-128 0 -227 -114 -227 -247v-2c0 -144 95 -250 238 -250c67 0 126 21 169 53v131h-179v107h298v-294
c-70 -59 -168 -109 -292 -109z" />
    <glyph glyph-name="gdotaccent" unicode="&#x121;" horiz-adv-x="671" 
d="M311 -162c-88 0 -167 21 -236 63l45 91c56 -35 116 -56 188 -56c108 0 167 55 167 162v41c-44 -57 -99 -97 -186 -97c-124 0 -240 92 -240 247v2c0 156 116 248 240 248c89 0 144 -41 185 -90v79h121v-420c0 -88 -22 -154 -67 -199c-48 -48 -121 -71 -217 -71zM321 144
c84 0 155 60 155 145v2c0 87 -71 146 -155 146s-150 -58 -150 -145v-2c0 -87 67 -146 150 -146zM278 595v119h126v-119h-126z" />
    <glyph glyph-name="Hbar" unicode="&#x126;" horiz-adv-x="778" 
d="M28 511v87h71v102h123v-102h334v102h123v-102h72v-87h-72v-511h-123v293h-334v-293h-123v511h-71zM222 407h334v106h-334v-106z" />
    <glyph glyph-name="hbar" unicode="&#x127;" horiz-adv-x="620" 
d="M76 0v601h-69v73h69v56h121v-56h164v-73h-164v-155c34 50 83 93 165 93c120 0 188 -79 188 -203v-336h-121v300c0 83 -41 129 -113 129c-71 0 -119 -48 -119 -131v-298h-121z" />
    <glyph glyph-name="Iacute" unicode="&#xcd;" horiz-adv-x="317" 
d="M97 0v700h123v-700h-123zM96 757l104 164l110 -49l-123 -115h-91z" />
    <glyph glyph-name="iacute" unicode="&#xed;" horiz-adv-x="286" 
d="M83 595l104 164l110 -49l-123 -115h-91zM83 0v528h121v-528h-121z" />
    <glyph glyph-name="Ibreve" unicode="&#x12c;" horiz-adv-x="317" 
d="M97 0v700h123v-700h-123zM159 756c-96 0 -165 47 -173 134h86c12 -31 36 -50 87 -50s75 19 87 50h86c-8 -87 -77 -134 -173 -134z" />
    <glyph glyph-name="ibreve" unicode="&#x12d;" horiz-adv-x="286" 
d="M83 0v528h121v-528h-121zM143 593c-96 0 -164 53 -171 145h83c12 -36 37 -61 88 -61s76 25 88 61h84c-8 -92 -76 -145 -172 -145z" />
    <glyph glyph-name="Icircumflex" unicode="&#xce;" horiz-adv-x="317" 
d="M97 0v700h123v-700h-123zM-19 758l121 135h114l121 -135h-102l-77 58l-77 -58h-100z" />
    <glyph glyph-name="icircumflex" unicode="&#xee;" horiz-adv-x="286" 
d="M-29 595l116 147h112l117 -147h-96l-78 67l-77 -67h-94zM83 0v528h121v-528h-121z" />
    <glyph glyph-name="Idieresis" unicode="&#xcf;" horiz-adv-x="317" 
d="M97 0v700h123v-700h-123zM200 758v112h124v-112h-124zM-6 758v112h125v-112h-125z" />
    <glyph glyph-name="idieresis" unicode="&#xef;" horiz-adv-x="286" 
d="M179 595v119h123v-119h-123zM-16 595v119h123v-119h-123zM83 0v528h121v-528h-121z" />
    <glyph glyph-name="Idotaccent" unicode="&#x130;" horiz-adv-x="317" 
d="M97 0v700h123v-700h-123zM95 758v112h128v-112h-128z" />
    <glyph glyph-name="dotlessi" unicode="&#x131;" horiz-adv-x="286" 
d="M83 0v528h121v-528h-121z" />
    <glyph glyph-name="Igrave" unicode="&#xcc;" horiz-adv-x="317" 
d="M97 0v700h123v-700h-123zM126 757l-123 115l110 49l104 -164h-91z" />
    <glyph glyph-name="igrave" unicode="&#xec;" horiz-adv-x="286" 
d="M83 0v528h121v-528h-121zM113 595l-123 115l110 49l104 -164h-91z" />
    <glyph glyph-name="Imacron" unicode="&#x12a;" horiz-adv-x="317" 
d="M97 0v700h123v-700h-123zM-20 769v90h359v-90h-359z" />
    <glyph glyph-name="imacron" unicode="&#x12b;" horiz-adv-x="286" 
d="M83 0v528h121v-528h-121zM-27 606v88h340v-88h-340z" />
    <glyph glyph-name="Iogonek" unicode="&#x12e;" horiz-adv-x="317" 
d="M97 0v700h123v-700h-22c-24 -24 -33 -44 -33 -63c0 -29 24 -43 72 -43v-58c-107 -11 -164 30 -164 82c0 31 15 55 40 82h-16z" />
    <glyph glyph-name="iogonek" unicode="&#x12f;" horiz-adv-x="286" 
d="M83 0v528h121v-528h-21c-24 -24 -33 -44 -33 -63c0 -29 24 -43 72 -43v-58c-107 -11 -164 30 -164 82c0 31 15 55 40 82h-15zM78 609v115h130v-115h-130z" />
    <glyph glyph-name="Kcommaaccent" unicode="&#x136;" horiz-adv-x="726" 
d="M297 -267l-8 39c49 7 73 29 70 68h-54v101h118v-86c0 -83 -43 -118 -126 -122zM90 0v700h123v-352l333 352h151l-291 -301l304 -399h-149l-239 315l-109 -112v-203h-123z" />
    <glyph glyph-name="kcommaaccent" unicode="&#x137;" horiz-adv-x="582" 
d="M236 -272l-8 39c49 7 73 29 70 68h-54v101h118v-86c0 -83 -43 -118 -126 -122zM76 0v730h121v-436l219 234h147l-210 -215l217 -313h-140l-159 228l-74 -77v-151h-121z" />
    <glyph glyph-name="Lacute" unicode="&#x139;" horiz-adv-x="619" 
d="M119 758l112 145l110 -48l-128 -97h-94zM90 0v700h123v-588h368v-112h-491z" />
    <glyph glyph-name="lacute" unicode="&#x13a;" horiz-adv-x="286" 
d="M97 775l112 145l110 -48l-128 -97h-94zM83 0v730h121v-730h-121z" />
    <glyph glyph-name="Lcaron" unicode="&#x13d;" horiz-adv-x="619" 
d="M292 510l12 190h94v-3l-56 -187h-50zM90 0v700h123v-588h368v-112h-491z" />
    <glyph glyph-name="lcaron" unicode="&#x13e;" horiz-adv-x="286" 
d="M260 540l12 190h94v-3l-56 -187h-50zM83 0v730h121v-730h-121z" />
    <glyph glyph-name="Lcommaaccent" unicode="&#x13b;" horiz-adv-x="619" 
d="M266 -272l-8 39c49 7 73 29 70 68h-54v101h118v-86c0 -83 -43 -118 -126 -122zM90 0v700h123v-588h368v-112h-491z" />
    <glyph glyph-name="lcommaaccent" unicode="&#x13c;" horiz-adv-x="286" 
d="M76 -272l-8 39c49 7 73 29 70 68h-54v101h118v-86c0 -83 -43 -118 -126 -122zM83 0v730h121v-730h-121z" />
    <glyph glyph-name="Ldot" unicode="&#x13f;" horiz-adv-x="619" 
d="M414 317v119h122v-119h-122zM90 0v700h123v-588h368v-112h-491z" />
    <glyph glyph-name="ldot" unicode="&#x140;" horiz-adv-x="367" 
d="M274 319v112h106v-112h-106zM83 0v730h121v-730h-121z" />
    <glyph glyph-name="Lslash" unicode="&#x141;" horiz-adv-x="649" 
d="M403 386l-160 -72v-202h368v-112h-491v258l-75 -33v117l75 33v325h123v-269l160 72v-117z" />
    <glyph glyph-name="lslash" unicode="&#x142;" horiz-adv-x="346" 
d="M309 383l-75 -39v-344h-121v283l-76 -39v116l76 39v331h121v-270l75 39v-116z" />
    <glyph glyph-name="Nacute" unicode="&#x143;" horiz-adv-x="790" 
d="M345 757l112 145l110 -48l-128 -97h-94zM90 0v700h114l375 -484v484h121v-700h-103l-386 498v-498h-121z" />
    <glyph glyph-name="nacute" unicode="&#x144;" horiz-adv-x="620" 
d="M264 595l104 164l110 -49l-123 -115h-91zM76 0v528h121v-82c34 50 83 93 165 93c120 0 188 -79 188 -203v-336h-121v300c0 83 -41 129 -113 129c-71 0 -119 -48 -119 -131v-298h-121z" />
    <glyph glyph-name="Ncaron" unicode="&#x147;" horiz-adv-x="790" 
d="M573 892l-121 -135h-114l-121 135h102l77 -57l77 57h100zM90 0v700h114l375 -484v484h121v-700h-103l-386 498v-498h-121z" />
    <glyph glyph-name="ncaron" unicode="&#x148;" horiz-adv-x="620" 
d="M485 742l-117 -147h-112l-116 147h96l77 -67l78 67h94zM76 0v528h121v-82c34 50 83 93 165 93c120 0 188 -79 188 -203v-336h-121v300c0 83 -41 129 -113 129c-71 0 -119 -48 -119 -131v-298h-121z" />
    <glyph glyph-name="Ncommaaccent" unicode="&#x145;" horiz-adv-x="790" 
d="M327 -267l-8 39c49 7 73 29 70 68h-54v101h118v-86c0 -83 -43 -118 -126 -122zM90 0v700h114l375 -484v484h121v-700h-103l-386 498v-498h-121z" />
    <glyph glyph-name="ncommaaccent" unicode="&#x146;" horiz-adv-x="620" 
d="M245 -272l-8 39c49 7 73 29 70 68h-54v101h118v-86c0 -83 -43 -118 -126 -122zM76 0v528h121v-82c34 50 83 93 165 93c120 0 188 -79 188 -203v-336h-121v300c0 83 -41 129 -113 129c-71 0 -119 -48 -119 -131v-298h-121z" />
    <glyph glyph-name="Ntilde" unicode="&#xd1;" horiz-adv-x="790" 
d="M275 747l-67 21c21 79 51 123 112 123c56 0 112 -39 147 -39c29 0 40 16 55 48l68 -20c-23 -79 -52 -123 -112 -123c-56 0 -112 39 -147 39c-29 0 -41 -16 -56 -49zM90 0v700h114l375 -484v484h121v-700h-103l-386 498v-498h-121z" />
    <glyph glyph-name="ntilde" unicode="&#xf1;" horiz-adv-x="620" 
d="M76 0v528h121v-82c34 50 83 93 165 93c120 0 188 -79 188 -203v-336h-121v300c0 83 -41 129 -113 129c-71 0 -119 -48 -119 -131v-298h-121zM194 585l-67 21c23 80 51 124 112 124c56 0 108 -40 144 -40c29 0 40 15 55 50l67 -20c-23 -81 -51 -125 -112 -125
c-55 0 -109 40 -144 40c-29 0 -40 -15 -55 -50z" />
    <glyph glyph-name="Oacute" unicode="&#xd3;" horiz-adv-x="850" 
d="M424 -12c-215 0 -365 163 -365 360v2c0 196 152 362 367 362s365 -163 365 -360v-2c0 -196 -152 -362 -367 -362zM426 101c139 0 236 111 236 247v2c0 136 -98 249 -238 249c-139 0 -236 -111 -236 -247v-2c0 -136 98 -249 238 -249zM335 768l104 164l110 -49l-123 -115
h-91z" />
    <glyph glyph-name="oacute" unicode="&#xf3;" horiz-adv-x="657" 
d="M237 595l104 164l110 -49l-123 -115h-91zM327 -12c-161 0 -280 123 -280 273v2c0 151 120 276 282 276c163 0 281 -123 281 -274v-2c0 -149 -120 -275 -283 -275zM329 93c99 0 160 77 160 168v2c0 93 -67 170 -162 170c-97 0 -159 -76 -159 -168v-2
c0 -92 68 -170 161 -170z" />
    <glyph glyph-name="Obreve" unicode="&#x14e;" horiz-adv-x="850" 
d="M425 766c-96 0 -165 47 -173 134h86c12 -31 36 -50 87 -50s75 19 87 50h86c-8 -87 -77 -134 -173 -134zM424 -12c-215 0 -365 163 -365 360v2c0 196 152 362 367 362s365 -163 365 -360v-2c0 -196 -152 -362 -367 -362zM426 101c139 0 236 111 236 247v2
c0 136 -98 249 -238 249c-139 0 -236 -111 -236 -247v-2c0 -136 98 -249 238 -249z" />
    <glyph glyph-name="obreve" unicode="&#x14f;" horiz-adv-x="657" 
d="M327 -12c-161 0 -280 123 -280 273v2c0 151 120 276 282 276c163 0 281 -123 281 -274v-2c0 -149 -120 -275 -283 -275zM329 93c99 0 160 77 160 168v2c0 93 -67 170 -162 170c-97 0 -159 -76 -159 -168v-2c0 -92 68 -170 161 -170zM328 593c-96 0 -164 53 -171 145h83
c12 -36 37 -61 88 -61s76 25 88 61h84c-8 -92 -76 -145 -172 -145z" />
    <glyph glyph-name="Ocircumflex" unicode="&#xd4;" horiz-adv-x="850" 
d="M424 -12c-215 0 -365 163 -365 360v2c0 196 152 362 367 362s365 -163 365 -360v-2c0 -196 -152 -362 -367 -362zM426 101c139 0 236 111 236 247v2c0 136 -98 249 -238 249c-139 0 -236 -111 -236 -247v-2c0 -136 98 -249 238 -249zM253 768l116 147h112l117 -147h-96
l-78 67l-77 -67h-94z" />
    <glyph glyph-name="ocircumflex" unicode="&#xf4;" horiz-adv-x="657" 
d="M156 595l116 147h112l117 -147h-96l-78 67l-77 -67h-94zM327 -12c-161 0 -280 123 -280 273v2c0 151 120 276 282 276c163 0 281 -123 281 -274v-2c0 -149 -120 -275 -283 -275zM329 93c99 0 160 77 160 168v2c0 93 -67 170 -162 170c-97 0 -159 -76 -159 -168v-2
c0 -92 68 -170 161 -170z" />
    <glyph glyph-name="Odieresis" unicode="&#xd6;" horiz-adv-x="850" 
d="M466 768v112h124v-112h-124zM260 768v112h125v-112h-125zM424 -12c-215 0 -365 163 -365 360v2c0 196 152 362 367 362s365 -163 365 -360v-2c0 -196 -152 -362 -367 -362zM426 101c139 0 236 111 236 247v2c0 136 -98 249 -238 249c-139 0 -236 -111 -236 -247v-2
c0 -136 98 -249 238 -249z" />
    <glyph glyph-name="odieresis" unicode="&#xf6;" horiz-adv-x="657" 
d="M364 595v119h123v-119h-123zM169 595v119h123v-119h-123zM327 -12c-161 0 -280 123 -280 273v2c0 151 120 276 282 276c163 0 281 -123 281 -274v-2c0 -149 -120 -275 -283 -275zM329 93c99 0 160 77 160 168v2c0 93 -67 170 -162 170c-97 0 -159 -76 -159 -168v-2
c0 -92 68 -170 161 -170z" />
    <glyph glyph-name="OE" unicode="&#x152;" horiz-adv-x="1098" 
d="M1042 0h-611c-220 0 -372 151 -372 348v2c0 197 152 350 372 350h606v-110h-374v-182h329v-110h-329v-188h379v-110zM431 112h109v476h-109c-147 0 -243 -99 -243 -236v-2c0 -137 96 -238 243 -238z" />
    <glyph glyph-name="oe" unicode="&#x153;" horiz-adv-x="1040" 
d="M321 -12c-152 0 -274 123 -274 273v2c0 151 122 276 279 276c91 0 166 -44 211 -109c44 67 116 109 204 109c167 0 252 -132 252 -284c0 -11 -1 -22 -2 -34h-388c15 -87 75 -134 152 -134c60 0 101 22 144 63l71 -63c-51 -60 -120 -99 -216 -99c-92 0 -171 42 -218 111
c-47 -68 -123 -111 -215 -111zM602 301h272c-8 78 -55 139 -134 139c-76 0 -127 -56 -138 -139zM326 93c95 0 156 77 156 168v2c0 93 -67 170 -158 170c-95 0 -156 -77 -156 -168v-2c0 -92 65 -170 158 -170z" />
    <glyph glyph-name="Ograve" unicode="&#xd2;" horiz-adv-x="850" 
d="M424 -12c-215 0 -365 163 -365 360v2c0 196 152 362 367 362s365 -163 365 -360v-2c0 -196 -152 -362 -367 -362zM426 101c139 0 236 111 236 247v2c0 136 -98 249 -238 249c-139 0 -236 -111 -236 -247v-2c0 -136 98 -249 238 -249zM425 768l-123 115l110 49l104 -164
h-91z" />
    <glyph glyph-name="ograve" unicode="&#xf2;" horiz-adv-x="657" 
d="M327 -12c-161 0 -280 123 -280 273v2c0 151 120 276 282 276c163 0 281 -123 281 -274v-2c0 -149 -120 -275 -283 -275zM329 93c99 0 160 77 160 168v2c0 93 -67 170 -162 170c-97 0 -159 -76 -159 -168v-2c0 -92 68 -170 161 -170zM328 595l-123 115l110 49l104 -164
h-91z" />
    <glyph glyph-name="Ohungarumlaut" unicode="&#x150;" horiz-adv-x="850" 
d="M424 -12c-215 0 -365 163 -365 360v2c0 196 152 362 367 362s365 -163 365 -360v-2c0 -196 -152 -362 -367 -362zM426 101c139 0 236 111 236 247v2c0 136 -98 249 -238 249c-139 0 -236 -111 -236 -247v-2c0 -136 98 -249 238 -249zM281 768l112 145l106 -48l-127 -97
h-91zM456 768l112 145l106 -48l-127 -97h-91z" />
    <glyph glyph-name="ohungarumlaut" unicode="&#x151;" horiz-adv-x="657" 
d="M358 595l105 164l106 -49l-123 -115h-88zM188 595l103 164l106 -49l-121 -115h-88zM327 -12c-161 0 -280 123 -280 273v2c0 151 120 276 282 276c163 0 281 -123 281 -274v-2c0 -149 -120 -275 -283 -275zM329 93c99 0 160 77 160 168v2c0 93 -67 170 -162 170
c-97 0 -159 -76 -159 -168v-2c0 -92 68 -170 161 -170z" />
    <glyph glyph-name="Omacron" unicode="&#x14c;" horiz-adv-x="850" 
d="M246 779v90h359v-90h-359zM424 -12c-215 0 -365 163 -365 360v2c0 196 152 362 367 362s365 -163 365 -360v-2c0 -196 -152 -362 -367 -362zM426 101c139 0 236 111 236 247v2c0 136 -98 249 -238 249c-139 0 -236 -111 -236 -247v-2c0 -136 98 -249 238 -249z" />
    <glyph glyph-name="omacron" unicode="&#x14d;" horiz-adv-x="657" 
d="M158 606v88h340v-88h-340zM327 -12c-161 0 -280 123 -280 273v2c0 151 120 276 282 276c163 0 281 -123 281 -274v-2c0 -149 -120 -275 -283 -275zM329 93c99 0 160 77 160 168v2c0 93 -67 170 -162 170c-97 0 -159 -76 -159 -168v-2c0 -92 68 -170 161 -170z" />
    <glyph glyph-name="Oslash" unicode="&#xd8;" horiz-adv-x="850" 
d="M424 -12c-79 0 -147 21 -204 60l-48 -53h-121l99 111c-59 64 -91 150 -91 242v2c0 196 152 362 367 362c79 0 147 -21 204 -60l48 53h121l-99 -112c59 -64 91 -149 91 -241v-2c0 -196 -152 -362 -367 -362zM232 201l320 360c-35 25 -79 40 -128 40
c-140 0 -238 -112 -238 -249v-2c0 -57 15 -106 46 -149zM426 99c140 0 238 112 238 249v2c0 57 -15 106 -46 149l-320 -360c35 -25 79 -40 128 -40z" />
    <glyph glyph-name="oslash" unicode="&#xf8;" horiz-adv-x="657" 
d="M327 -12c-56 0 -108 16 -151 43l-34 -36h-110l80 89c-41 48 -65 109 -65 177v2c0 151 120 276 282 276c57 0 108 -16 151 -43l35 38h110c-10 -11 -20 -22 -29 -33c-17 -19 -37 -41 -52 -58c43 -47 66 -109 66 -178v-2c0 -149 -120 -275 -283 -275zM190 172l218 240
c-23 15 -50 24 -81 24c-99 0 -162 -78 -162 -171v-2c0 -33 8 -64 25 -91zM329 91c100 0 163 78 163 170v2c0 35 -10 65 -25 92l-219 -241c23 -15 50 -23 81 -23z" />
    <glyph glyph-name="Oslashacute" unicode="&#x1fe;" horiz-adv-x="850" 
d="M424 -12c-79 0 -147 21 -204 60l-48 -53h-121l99 111c-59 64 -91 150 -91 242v2c0 196 152 362 367 362c79 0 147 -21 204 -60l48 53h121l-99 -112c59 -64 91 -149 91 -241v-2c0 -196 -152 -362 -367 -362zM232 201l320 360c-35 25 -79 40 -128 40
c-140 0 -238 -112 -238 -249v-2c0 -57 15 -106 46 -149zM426 99c140 0 238 112 238 249v2c0 57 -15 106 -46 149l-320 -360c35 -25 79 -40 128 -40zM375 768l112 145l110 -48l-128 -97h-94z" />
    <glyph glyph-name="oslashacute" unicode="&#x1ff;" horiz-adv-x="657" 
d="M327 -12c-56 0 -108 16 -151 43l-34 -36h-110l80 89c-41 48 -65 109 -65 177v2c0 151 120 276 282 276c57 0 108 -16 151 -43l35 38h110c-10 -11 -20 -22 -29 -33c-17 -19 -37 -41 -52 -58c43 -47 66 -109 66 -178v-2c0 -149 -120 -275 -283 -275zM190 172l218 240
c-23 15 -50 24 -81 24c-99 0 -162 -78 -162 -171v-2c0 -33 8 -64 25 -91zM329 91c100 0 163 78 163 170v2c0 35 -10 65 -25 92l-219 -241c23 -15 50 -23 81 -23zM280 595l104 164l110 -49l-123 -115h-91z" />
    <glyph glyph-name="Otilde" unicode="&#xd5;" horiz-adv-x="850" 
d="M305 758l-67 21c21 79 51 123 112 123c56 0 112 -39 147 -39c29 0 40 16 55 48l68 -20c-23 -79 -52 -123 -112 -123c-56 0 -112 39 -147 39c-29 0 -41 -16 -56 -49zM424 -12c-215 0 -365 163 -365 360v2c0 196 152 362 367 362s365 -163 365 -360v-2
c0 -196 -152 -362 -367 -362zM426 101c139 0 236 111 236 247v2c0 136 -98 249 -238 249c-139 0 -236 -111 -236 -247v-2c0 -136 98 -249 238 -249z" />
    <glyph glyph-name="otilde" unicode="&#xf5;" horiz-adv-x="657" 
d="M327 -12c-161 0 -280 123 -280 273v2c0 151 120 276 282 276c163 0 281 -123 281 -274v-2c0 -149 -120 -275 -283 -275zM329 93c99 0 160 77 160 168v2c0 93 -67 170 -162 170c-97 0 -159 -76 -159 -168v-2c0 -92 68 -170 161 -170zM210 585l-67 21c23 80 51 124 112 124
c56 0 108 -40 144 -40c29 0 40 15 55 50l67 -20c-23 -81 -51 -125 -112 -125c-55 0 -109 40 -144 40c-29 0 -40 -15 -55 -50z" />
    <glyph glyph-name="Racute" unicode="&#x154;" horiz-adv-x="723" 
d="M90 0v700h312c88 0 157 -26 202 -70c37 -39 58 -90 58 -151v-2c0 -114 -69 -186 -167 -212l189 -265h-145l-172 244h-154v-244h-123zM213 353h180c88 0 144 45 144 117v2c0 76 -53 116 -145 116h-179v-235zM303 758l112 145l110 -48l-128 -97h-94z" />
    <glyph glyph-name="racute" unicode="&#x155;" horiz-adv-x="413" 
d="M175 595l104 164l110 -49l-123 -115h-91zM76 0v528h121v-119c33 80 94 133 187 129v-128h-7c-107 0 -180 -69 -180 -209v-201h-121z" />
    <glyph glyph-name="Rcaron" unicode="&#x158;" horiz-adv-x="723" 
d="M90 0v700h312c88 0 157 -26 202 -70c37 -39 58 -90 58 -151v-2c0 -114 -69 -186 -167 -212l189 -265h-145l-172 244h-154v-244h-123zM213 353h180c88 0 144 45 144 117v2c0 76 -53 116 -145 116h-179v-235zM530 893l-121 -135h-114l-121 135h102l77 -57l77 57h100z" />
    <glyph glyph-name="rcaron" unicode="&#x159;" horiz-adv-x="413" 
d="M397 742l-117 -147h-112l-116 147h96l77 -67l78 67h94zM76 0v528h121v-119c33 80 94 133 187 129v-128h-7c-107 0 -180 -69 -180 -209v-201h-121z" />
    <glyph glyph-name="Rcommaaccent" unicode="&#x156;" horiz-adv-x="723" 
d="M90 0v700h312c88 0 157 -26 202 -70c37 -39 58 -90 58 -151v-2c0 -114 -69 -186 -167 -212l189 -265h-145l-172 244h-154v-244h-123zM213 353h180c88 0 144 45 144 117v2c0 76 -53 116 -145 116h-179v-235zM285 -267l-8 39c49 7 73 29 70 68h-54v101h118v-86
c0 -83 -43 -118 -126 -122z" />
    <glyph glyph-name="rcommaaccent" unicode="&#x157;" horiz-adv-x="413" 
d="M76 -272l-8 39c49 7 73 29 70 68h-54v101h118v-86c0 -83 -43 -118 -126 -122zM76 0v528h121v-119c33 80 94 133 187 129v-128h-7c-107 0 -180 -69 -180 -209v-201h-121z" />
    <glyph glyph-name="Sacute" unicode="&#x15a;" horiz-adv-x="640" 
d="M335 -10c-108 0 -208 36 -292 112l74 88c68 -59 133 -91 221 -91c76 0 124 35 124 88v2c0 49 -28 78 -158 107c-149 35 -233 81 -233 209v2c0 120 100 203 239 203c103 0 182 -31 254 -88l-66 -93c-64 47 -126 72 -190 72c-72 0 -114 -36 -114 -83v-2
c0 -55 32 -78 166 -110c148 -38 225 -88 225 -205v-2c0 -132 -103 -209 -250 -209zM275 768l112 145l110 -48l-128 -97h-94z" />
    <glyph glyph-name="sacute" unicode="&#x15b;" horiz-adv-x="501" 
d="M205 595l104 164l110 -49l-123 -115h-91zM257 -10c-76 0 -157 27 -224 79l54 82c57 -43 118 -65 173 -65c52 0 82 22 82 57v2c0 40 -56 55 -118 74c-77 21 -165 54 -165 155v2c0 100 83 161 188 161c67 0 138 -23 194 -60l-48 -86c-51 31 -105 50 -149 50
c-47 0 -74 -22 -74 -53v-2c0 -36 58 -55 119 -74c76 -24 164 -59 164 -154v-2c0 -111 -86 -166 -196 -166z" />
    <glyph glyph-name="Scaron" unicode="&#x160;" horiz-adv-x="640" 
d="M335 -10c-108 0 -208 36 -292 112l74 88c68 -59 133 -91 221 -91c76 0 124 35 124 88v2c0 49 -28 78 -158 107c-149 35 -233 81 -233 209v2c0 120 100 203 239 203c103 0 182 -31 254 -88l-66 -93c-64 47 -126 72 -190 72c-72 0 -114 -36 -114 -83v-2
c0 -55 32 -78 166 -110c148 -38 225 -88 225 -205v-2c0 -132 -103 -209 -250 -209zM503 903l-121 -135h-114l-121 135h102l77 -57l77 57h100z" />
    <glyph glyph-name="scaron" unicode="&#x161;" horiz-adv-x="501" 
d="M426 742l-117 -147h-112l-116 147h96l77 -67l78 67h94zM257 -10c-76 0 -157 27 -224 79l54 82c57 -43 118 -65 173 -65c52 0 82 22 82 57v2c0 40 -56 55 -118 74c-77 21 -165 54 -165 155v2c0 100 83 161 188 161c67 0 138 -23 194 -60l-48 -86c-51 31 -105 50 -149 50
c-47 0 -74 -22 -74 -53v-2c0 -36 58 -55 119 -74c76 -24 164 -59 164 -154v-2c0 -111 -86 -166 -196 -166z" />
    <glyph glyph-name="Scedilla" unicode="&#x15e;" horiz-adv-x="640" 
d="M307 -166l-106 45l78 115c-87 11 -167 45 -236 108l74 88c68 -59 133 -91 221 -91c76 0 124 35 124 88v2c0 49 -28 78 -158 107c-149 35 -233 81 -233 209v2c0 120 100 203 239 203c103 0 182 -31 254 -88l-66 -93c-64 47 -126 72 -190 72c-72 0 -114 -36 -114 -83v-2
c0 -55 32 -78 166 -110c148 -38 225 -88 225 -205v-2c0 -120 -86 -194 -211 -207z" />
    <glyph glyph-name="scedilla" unicode="&#x15f;" horiz-adv-x="501" 
d="M226 -166l-106 45l79 116c-59 11 -117 35 -166 74l54 82c57 -43 118 -65 173 -65c52 0 82 22 82 57v2c0 40 -56 55 -118 74c-77 21 -165 54 -165 155v2c0 100 83 161 188 161c67 0 138 -23 194 -60l-48 -86c-51 31 -105 50 -149 50c-47 0 -74 -22 -74 -53v-2
c0 -36 58 -55 119 -74c76 -24 164 -59 164 -154v-2c0 -99 -68 -153 -160 -164z" />
    <glyph glyph-name="Scommaaccent" unicode="&#x218;" horiz-adv-x="640" 
d="M257 -275l-8 39c49 7 73 29 70 68h-54v101h118v-86c0 -83 -43 -118 -126 -122zM335 -10c-108 0 -208 36 -292 112l74 88c68 -59 133 -91 221 -91c76 0 124 35 124 88v2c0 49 -28 78 -158 107c-149 35 -233 81 -233 209v2c0 120 100 203 239 203c103 0 182 -31 254 -88
l-66 -93c-64 47 -126 72 -190 72c-72 0 -114 -36 -114 -83v-2c0 -55 32 -78 166 -110c148 -38 225 -88 225 -205v-2c0 -132 -103 -209 -250 -209z" />
    <glyph glyph-name="scommaaccent" unicode="&#x219;" horiz-adv-x="501" 
d="M186 -272l-8 39c49 7 73 29 70 68h-54v101h118v-86c0 -83 -43 -118 -126 -122zM257 -10c-76 0 -157 27 -224 79l54 82c57 -43 118 -65 173 -65c52 0 82 22 82 57v2c0 40 -56 55 -118 74c-77 21 -165 54 -165 155v2c0 100 83 161 188 161c67 0 138 -23 194 -60l-48 -86
c-51 31 -105 50 -149 50c-47 0 -74 -22 -74 -53v-2c0 -36 58 -55 119 -74c76 -24 164 -59 164 -154v-2c0 -111 -86 -166 -196 -166z" />
    <glyph glyph-name="Tcaron" unicode="&#x164;" horiz-adv-x="648" 
d="M502 893l-121 -135h-114l-121 135h102l77 -57l77 57h100zM262 0v586h-222v114h568v-114h-222v-586h-124z" />
    <glyph glyph-name="tcaron" unicode="&#x165;" horiz-adv-x="411" 
d="M303 589l12 190h94v-3l-56 -187h-50zM253 -9c-89 0 -152 39 -152 155v278h-67v104h67v145h121v-145h142v-104h-142v-259c0 -47 24 -66 65 -66c26 0 51 6 75 18v-99c-31 -17 -64 -27 -109 -27z" />
    <glyph glyph-name="Tcommaaccent" unicode="&#x162;" horiz-adv-x="648" 
d="M256 -272l-8 39c49 7 73 29 70 68h-54v101h118v-86c0 -83 -43 -118 -126 -122zM262 0v586h-222v114h568v-114h-222v-586h-124z" />
    <glyph glyph-name="tcommaaccent" unicode="&#x163;" horiz-adv-x="411" 
d="M156 -272l-8 39c49 7 73 29 70 68h-54v101h118v-86c0 -83 -43 -118 -126 -122zM253 -9c-89 0 -152 39 -152 155v278h-67v104h67v145h121v-145h142v-104h-142v-259c0 -47 24 -66 65 -66c26 0 51 6 75 18v-99c-31 -17 -64 -27 -109 -27z" />
    <glyph glyph-name="Thorn" unicode="&#xde;" horiz-adv-x="673" 
d="M213 227h143c93 0 151 52 151 125v2c0 83 -59 125 -151 125h-143v-252zM352 116h-139v-116h-123v700h123v-109h153c164 0 266 -93 266 -234v-2c0 -156 -125 -239 -280 -239z" />
    <glyph glyph-name="thorn" unicode="&#xfe;" horiz-adv-x="671" 
d="M76 -160v890h121v-290c39 56 94 99 179 99c124 0 246 -98 246 -274v-2c0 -176 -120 -274 -245 -274c-88 0 -143 44 -180 93v-242h-121zM348 94c83 0 151 65 151 169v2c0 102 -68 169 -151 169s-154 -68 -154 -169v-2c0 -102 71 -169 154 -169z" />
    <glyph glyph-name="Uacute" unicode="&#xda;" horiz-adv-x="757" 
d="M377 -11c-181 0 -298 105 -298 308v403h123v-398c0 -131 66 -200 177 -200c109 0 176 66 176 195v403h123v-397c0 -209 -118 -314 -301 -314zM303 757l104 164l110 -49l-123 -115h-91z" />
    <glyph glyph-name="uacute" unicode="&#xfa;" horiz-adv-x="620" 
d="M229 595l104 164l110 -49l-123 -115h-91zM258 -11c-120 0 -188 79 -188 203v336h121v-300c0 -83 41 -129 113 -129c71 0 119 48 119 131v298h121v-528h-121v82c-35 -51 -84 -93 -165 -93z" />
    <glyph glyph-name="Ubreve" unicode="&#x16c;" horiz-adv-x="757" 
d="M378 748c-96 0 -165 47 -173 134h86c12 -31 36 -50 87 -50s75 19 87 50h86c-8 -87 -77 -134 -173 -134zM377 -11c-181 0 -298 105 -298 308v403h123v-398c0 -131 66 -200 177 -200c109 0 176 66 176 195v403h123v-397c0 -209 -118 -314 -301 -314z" />
    <glyph glyph-name="ubreve" unicode="&#x16d;" horiz-adv-x="620" 
d="M258 -11c-120 0 -188 79 -188 203v336h121v-300c0 -83 41 -129 113 -129c71 0 119 48 119 131v298h121v-528h-121v82c-35 -51 -84 -93 -165 -93zM306 593c-96 0 -164 53 -171 145h83c12 -36 37 -61 88 -61s76 25 88 61h84c-8 -92 -76 -145 -172 -145z" />
    <glyph glyph-name="Ucircumflex" unicode="&#xdb;" horiz-adv-x="757" 
d="M377 -11c-181 0 -298 105 -298 308v403h123v-398c0 -131 66 -200 177 -200c109 0 176 66 176 195v403h123v-397c0 -209 -118 -314 -301 -314zM200 757l121 135h114l121 -135h-102l-77 58l-77 -58h-100z" />
    <glyph glyph-name="ucircumflex" unicode="&#xfb;" horiz-adv-x="620" 
d="M134 595l116 147h112l117 -147h-96l-78 67l-77 -67h-94zM258 -11c-120 0 -188 79 -188 203v336h121v-300c0 -83 41 -129 113 -129c71 0 119 48 119 131v298h121v-528h-121v82c-35 -51 -84 -93 -165 -93z" />
    <glyph glyph-name="Udieresis" unicode="&#xdc;" horiz-adv-x="757" 
d="M419 757v112h124v-112h-124zM213 757v112h125v-112h-125zM377 -11c-181 0 -298 105 -298 308v403h123v-398c0 -131 66 -200 177 -200c109 0 176 66 176 195v403h123v-397c0 -209 -118 -314 -301 -314z" />
    <glyph glyph-name="udieresis" unicode="&#xfc;" horiz-adv-x="620" 
d="M342 595v119h123v-119h-123zM147 595v119h123v-119h-123zM258 -11c-120 0 -188 79 -188 203v336h121v-300c0 -83 41 -129 113 -129c71 0 119 48 119 131v298h121v-528h-121v82c-35 -51 -84 -93 -165 -93z" />
    <glyph glyph-name="Ugrave" unicode="&#xd9;" horiz-adv-x="757" 
d="M377 -11c-181 0 -298 105 -298 308v403h123v-398c0 -131 66 -200 177 -200c109 0 176 66 176 195v403h123v-397c0 -209 -118 -314 -301 -314zM367 757l-123 115l110 49l104 -164h-91z" />
    <glyph glyph-name="ugrave" unicode="&#xf9;" horiz-adv-x="620" 
d="M258 -11c-120 0 -188 79 -188 203v336h121v-300c0 -83 41 -129 113 -129c71 0 119 48 119 131v298h121v-528h-121v82c-35 -51 -84 -93 -165 -93zM278 595l-123 115l110 49l104 -164h-91z" />
    <glyph glyph-name="Uhungarumlaut" unicode="&#x170;" horiz-adv-x="757" 
d="M377 -11c-181 0 -298 105 -298 308v403h123v-398c0 -131 66 -200 177 -200c109 0 176 66 176 195v403h123v-397c0 -209 -118 -314 -301 -314zM234 757l112 145l106 -48l-127 -97h-91zM409 757l112 145l106 -48l-127 -97h-91z" />
    <glyph glyph-name="uhungarumlaut" unicode="&#x171;" horiz-adv-x="620" 
d="M258 -11c-120 0 -188 79 -188 203v336h121v-300c0 -83 41 -129 113 -129c71 0 119 48 119 131v298h121v-528h-121v82c-35 -51 -84 -93 -165 -93zM336 595l105 164l106 -49l-123 -115h-88zM166 595l103 164l106 -49l-121 -115h-88z" />
    <glyph glyph-name="Umacron" unicode="&#x16a;" horiz-adv-x="757" 
d="M199 768v90h359v-90h-359zM377 -11c-181 0 -298 105 -298 308v403h123v-398c0 -131 66 -200 177 -200c109 0 176 66 176 195v403h123v-397c0 -209 -118 -314 -301 -314z" />
    <glyph glyph-name="umacron" unicode="&#x16b;" horiz-adv-x="620" 
d="M258 -11c-120 0 -188 79 -188 203v336h121v-300c0 -83 41 -129 113 -129c71 0 119 48 119 131v298h121v-528h-121v82c-35 -51 -84 -93 -165 -93zM136 606v88h340v-88h-340z" />
    <glyph glyph-name="Uogonek" unicode="&#x172;" horiz-adv-x="757" 
d="M458 -106v-58c-107 -11 -164 30 -164 82c0 27 12 50 33 74c-153 19 -248 120 -248 305v403h123v-398c0 -131 66 -200 177 -200c109 0 176 66 176 195v403h123v-397c0 -196 -104 -300 -268 -312c-19 -20 -24 -37 -24 -54c0 -29 24 -43 72 -43z" />
    <glyph glyph-name="uogonek" unicode="&#x173;" horiz-adv-x="620" 
d="M258 -11c-120 0 -188 79 -188 203v336h121v-300c0 -83 41 -129 113 -129c71 0 119 48 119 131v298h121v-528h-27c-24 -24 -33 -44 -33 -63c0 -29 24 -43 72 -43v-58c-107 -11 -164 30 -164 82c0 31 15 55 40 82h-9v82c-35 -51 -84 -93 -165 -93z" />
    <glyph glyph-name="Uring" unicode="&#x16e;" horiz-adv-x="757" 
d="M377 -11c-181 0 -298 105 -298 308v403h123v-398c0 -131 66 -200 177 -200c109 0 176 66 176 195v403h123v-397c0 -209 -118 -314 -301 -314zM259 840c0 60 55 105 119 105s119 -45 119 -105c0 -61 -55 -106 -119 -106s-119 45 -119 106zM314 840c0 -33 25 -59 64 -59
s65 26 65 59c0 32 -26 58 -65 58s-64 -26 -64 -58z" />
    <glyph glyph-name="uring" unicode="&#x16f;" horiz-adv-x="620" 
d="M190 692c0 61 52 112 116 112s116 -51 116 -112s-52 -112 -116 -112s-116 51 -116 112zM239 692c0 -37 30 -67 67 -67s67 30 67 67s-30 67 -67 67s-67 -30 -67 -67zM258 -11c-120 0 -188 79 -188 203v336h121v-300c0 -83 41 -129 113 -129c71 0 119 48 119 131v298h121
v-528h-121v82c-35 -51 -84 -93 -165 -93z" />
    <glyph glyph-name="Wacute" unicode="&#x1e82;" horiz-adv-x="1116" 
d="M508 758l112 145l110 -48l-128 -97h-94zM280 -5l-244 705h133l167 -519l172 521h104l172 -521l167 519h129l-244 -705h-106l-172 503l-172 -503h-106z" />
    <glyph glyph-name="wacute" unicode="&#x1e83;" horiz-adv-x="861" 
d="M381 595l104 164l110 -49l-123 -115h-91zM203 -4l-171 532h124l106 -362l117 364h103l118 -364l108 362h121l-173 -532h-108l-118 361l-119 -361h-108z" />
    <glyph glyph-name="Wcircumflex" unicode="&#x174;" horiz-adv-x="1116" 
d="M280 -5l-244 705h133l167 -519l172 521h104l172 -521l167 519h129l-244 -705h-106l-172 503l-172 -503h-106zM380 758l121 135h114l121 -135h-102l-77 58l-77 -58h-100z" />
    <glyph glyph-name="wcircumflex" unicode="&#x175;" horiz-adv-x="861" 
d="M258 595l116 147h112l117 -147h-96l-78 67l-77 -67h-94zM203 -4l-171 532h124l106 -362l117 364h103l118 -364l108 362h121l-173 -532h-108l-118 361l-119 -361h-108z" />
    <glyph glyph-name="Wdieresis" unicode="&#x1e84;" horiz-adv-x="1116" 
d="M599 758v112h124v-112h-124zM393 758v112h125v-112h-125zM280 -5l-244 705h133l167 -519l172 521h104l172 -521l167 519h129l-244 -705h-106l-172 503l-172 -503h-106z" />
    <glyph glyph-name="wdieresis" unicode="&#x1e85;" horiz-adv-x="861" 
d="M466 595v119h123v-119h-123zM271 595v119h123v-119h-123zM203 -4l-171 532h124l106 -362l117 364h103l118 -364l108 362h121l-173 -532h-108l-118 361l-119 -361h-108z" />
    <glyph glyph-name="Wgrave" unicode="&#x1e80;" horiz-adv-x="1116" 
d="M494 903l113 -145h-95l-127 97zM280 -5l-244 705h133l167 -519l172 521h104l172 -521l167 519h129l-244 -705h-106l-172 503l-172 -503h-106z" />
    <glyph glyph-name="wgrave" unicode="&#x1e81;" horiz-adv-x="861" 
d="M203 -4l-171 532h124l106 -362l117 364h103l118 -364l108 362h121l-173 -532h-108l-118 361l-119 -361h-108zM387 595l-123 115l110 49l104 -164h-91z" />
    <glyph glyph-name="Yacute" unicode="&#xdd;" horiz-adv-x="716" 
d="M296 0v276l-278 424h145l196 -310l198 310h141l-278 -421v-279h-124zM291 757l104 164l110 -49l-123 -115h-91z" />
    <glyph glyph-name="yacute" unicode="&#xfd;" horiz-adv-x="596" 
d="M184 -163c-51 0 -88 12 -125 32l41 90c23 -12 46 -20 71 -20c35 0 55 14 75 61l-220 528h129l150 -392l137 392h126l-210 -543c-42 -108 -89 -148 -174 -148zM230 595l104 164l110 -49l-123 -115h-91z" />
    <glyph glyph-name="Ycircumflex" unicode="&#x176;" horiz-adv-x="716" 
d="M296 0v276l-278 424h145l196 -310l198 310h141l-278 -421v-279h-124zM180 757l121 135h114l121 -135h-102l-77 58l-77 -58h-100z" />
    <glyph glyph-name="ycircumflex" unicode="&#x177;" horiz-adv-x="596" 
d="M184 -163c-51 0 -88 12 -125 32l41 90c23 -12 46 -20 71 -20c35 0 55 14 75 61l-220 528h129l150 -392l137 392h126l-210 -543c-42 -108 -89 -148 -174 -148zM126 595l116 147h112l117 -147h-96l-78 67l-77 -67h-94z" />
    <glyph glyph-name="Ydieresis" unicode="&#x178;" horiz-adv-x="716" 
d="M296 0v276l-278 424h145l196 -310l198 310h141l-278 -421v-279h-124zM399 757v112h124v-112h-124zM193 757v112h125v-112h-125z" />
    <glyph glyph-name="ydieresis" unicode="&#xff;" horiz-adv-x="596" 
d="M184 -163c-51 0 -88 12 -125 32l41 90c23 -12 46 -20 71 -20c35 0 55 14 75 61l-220 528h129l150 -392l137 392h126l-210 -543c-42 -108 -89 -148 -174 -148zM334 595v119h123v-119h-123zM139 595v119h123v-119h-123z" />
    <glyph glyph-name="Ygrave" unicode="&#x1ef2;" horiz-adv-x="716" 
d="M296 0v276l-278 424h145l196 -310l198 310h141l-278 -421v-279h-124zM347 757l-123 115l110 49l104 -164h-91z" />
    <glyph glyph-name="ygrave" unicode="&#x1ef3;" horiz-adv-x="596" 
d="M184 -163c-51 0 -88 12 -125 32l41 90c23 -12 46 -20 71 -20c35 0 55 14 75 61l-220 528h129l150 -392l137 392h126l-210 -543c-42 -108 -89 -148 -174 -148zM255 595l-123 115l110 49l104 -164h-91z" />
    <glyph glyph-name="Zacute" unicode="&#x179;" horiz-adv-x="702" 
d="M65 0v91l413 500h-400v109h560v-91l-413 -500h413v-109h-573zM308 758l112 145l110 -48l-128 -97h-94z" />
    <glyph glyph-name="zacute" unicode="&#x17a;" horiz-adv-x="560" 
d="M234 595l104 164l110 -49l-123 -115h-91zM52 0v83l305 346h-294v99h448v-83l-305 -346h305v-99h-459z" />
    <glyph glyph-name="Zcaron" unicode="&#x17d;" horiz-adv-x="702" 
d="M535 893l-121 -135h-114l-121 135h102l77 -57l77 57h100zM65 0v91l413 500h-400v109h560v-91l-413 -500h413v-109h-573z" />
    <glyph glyph-name="zcaron" unicode="&#x17e;" horiz-adv-x="560" 
d="M455 742l-117 -147h-112l-116 147h96l77 -67l78 67h94zM52 0v83l305 346h-294v99h448v-83l-305 -346h305v-99h-459z" />
    <glyph glyph-name="Zdotaccent" unicode="&#x17b;" horiz-adv-x="702" 
d="M293 758v112h128v-112h-128zM65 0v91l413 500h-400v109h560v-91l-413 -500h413v-109h-573z" />
    <glyph glyph-name="zdotaccent" unicode="&#x17c;" horiz-adv-x="560" 
d="M52 0v83l305 346h-294v99h448v-83l-305 -346h305v-99h-459zM219 595v119h126v-119h-126z" />
    <glyph glyph-name="schwa" unicode="&#x259;" horiz-adv-x="604" 
d="M286 540c152 0 271 -111 271 -274v-2c0 -152 -107 -275 -258 -275c-168 0 -253 132 -253 284c0 11 1 22 2 34h388c-13 87 -73 134 -152 134c-60 0 -100 -22 -143 -63l-71 63c51 60 119 99 216 99zM437 227h-271c8 -78 54 -139 134 -139c75 0 126 56 137 139z" />
    <glyph glyph-name="germandbls" unicode="&#xdf;" horiz-adv-x="620" 
d="M296 -2v93c97 3 154 40 154 108v2c0 65 -62 103 -154 114v82c64 31 113 72 113 139v2c0 59 -40 96 -101 96c-67 0 -112 -49 -112 -128v-506h-120v502c0 144 91 235 238 235c136 0 215 -83 215 -188v-2c0 -91 -51 -139 -110 -171c77 -27 152 -78 152 -178v-2
c0 -129 -107 -203 -275 -198z" />
    <glyph glyph-name="f_f" unicode="&#xfb00;" horiz-adv-x="752" 
d="M479 0v424h-67v101h67v38c0 59 14 102 43 131c28 28 67 42 118 42c43 0 72 -6 99 -14v-102c-24 8 -44 13 -71 13c-47 0 -70 -27 -70 -80v-29h140v-100h-138v-424h-121zM103 0v424h-67v101h67v38c0 59 14 102 43 131c28 28 68 42 119 42c43 0 71 -6 98 -14v-102
c-24 8 -44 13 -71 13c-47 0 -70 -27 -70 -80v-29h140v-100h-138v-424h-121z" />
    <glyph glyph-name="fi" unicode="&#xfb01;" horiz-adv-x="662" 
d="M454 609v115h130v-115h-130zM103 0v424h-67v101h67v38c0 59 14 102 43 131c28 28 68 42 119 42c43 0 71 -6 98 -14v-102c-24 8 -44 13 -71 13c-47 0 -70 -27 -70 -80v-29h140v-100h-138v-424h-121zM459 0v528h121v-528h-121z" />
    <glyph glyph-name="fl" unicode="&#xfb02;" horiz-adv-x="662" 
d="M103 0v424h-67v101h67v38c0 59 14 102 43 131c28 28 68 42 119 42c43 0 71 -6 98 -14v-102c-24 8 -44 13 -71 13c-47 0 -70 -27 -70 -80v-29h140v-100h-138v-424h-121zM459 0v730h121v-730h-121z" />
    <glyph glyph-name="f_f_i" unicode="&#xfb03;" horiz-adv-x="1038" 
d="M830 609v115h130v-115h-130zM479 0v424h-67v101h67v38c0 59 14 102 43 131c28 28 67 42 118 42c43 0 72 -6 99 -14v-102c-24 8 -44 13 -71 13c-47 0 -70 -27 -70 -80v-29h140v-100h-138v-424h-121zM103 0v424h-67v101h67v38c0 59 14 102 43 131c28 28 68 42 119 42
c43 0 71 -6 98 -14v-102c-24 8 -44 13 -71 13c-47 0 -70 -27 -70 -80v-29h140v-100h-138v-424h-121zM834 0v528h122v-528h-122z" />
    <glyph glyph-name="f_f_l" unicode="&#xfb04;" horiz-adv-x="1038" 
d="M479 0v424h-67v101h67v38c0 59 14 102 43 131c28 28 67 42 118 42c43 0 72 -6 99 -14v-102c-24 8 -44 13 -71 13c-47 0 -70 -27 -70 -80v-29h140v-100h-138v-424h-121zM103 0v424h-67v101h67v38c0 59 14 102 43 131c28 28 68 42 119 42c43 0 71 -6 98 -14v-102
c-24 8 -44 13 -71 13c-47 0 -70 -27 -70 -80v-29h140v-100h-138v-424h-121zM834 0v730h122v-730h-122z" />
    <glyph glyph-name="zero" unicode="0" horiz-adv-x="724" 
d="M361 -12c-184 0 -304 160 -304 360v2c0 200 122 362 306 362c183 0 304 -160 304 -360v-2c0 -200 -122 -362 -306 -362zM363 99c108 0 177 110 177 249v2c0 138 -71 251 -179 251s-177 -110 -177 -249v-2c0 -138 70 -251 179 -251z" />
    <glyph glyph-name="one" unicode="1" horiz-adv-x="396" 
d="M178 0v580l-126 -35l-26 100l188 60h86v-705h-122z" />
    <glyph glyph-name="two" unicode="2" horiz-adv-x="613" 
d="M49 0v97l241 205c96 80 131 126 131 189c0 69 -49 109 -113 109s-107 -34 -162 -105l-87 68c67 94 134 147 258 147c136 0 231 -84 231 -209v-2c0 -111 -59 -169 -182 -271l-144 -120h333v-108h-506z" />
    <glyph glyph-name="three" unicode="3" horiz-adv-x="618" 
d="M311 -12c-123 0 -208 51 -268 123l86 80c51 -60 105 -92 184 -92c69 0 121 42 121 106v2c0 69 -62 108 -161 108h-57l-20 77l189 201h-303v107h463v-92l-195 -200c106 -13 206 -67 206 -197v-2c0 -129 -100 -221 -245 -221z" />
    <glyph glyph-name="three.alt" horiz-adv-x="610" 
d="M311 -12c-115 0 -208 49 -272 122l85 79c49 -56 108 -90 189 -90c77 0 125 40 125 101v2c0 64 -57 99 -154 99h-75v104h78c81 0 132 40 132 100v2c0 56 -45 94 -121 94c-68 0 -112 -33 -159 -88l-86 70c60 79 131 129 247 129c144 0 241 -79 241 -187v-2
c0 -88 -47 -136 -104 -164c69 -27 123 -73 123 -158v-2c0 -120 -93 -211 -249 -211z" />
    <glyph glyph-name="four" unicode="4" horiz-adv-x="681" 
d="M412 0v157h-353l-23 88l389 460h105v-447h100v-101h-100v-157h-118zM182 258h230v277z" />
    <glyph glyph-name="five" unicode="5" horiz-adv-x="622" 
d="M304 -12c-108 0 -190 43 -257 107l76 89c56 -52 115 -84 180 -84c84 0 139 48 139 121v2c0 72 -60 116 -145 116c-51 0 -93 -14 -129 -31l-74 49l20 343h418v-109h-312l-11 -164c33 12 64 20 111 20c136 0 243 -72 243 -220v-2c0 -143 -103 -237 -259 -237z" />
    <glyph glyph-name="six" unicode="6" horiz-adv-x="656" 
d="M337 -12c-87 0 -148 26 -195 73c-53 53 -85 127 -85 268v2c0 213 102 381 300 381c91 0 153 -29 214 -78l-66 -95c-49 39 -91 61 -152 61c-104 0 -163 -94 -168 -222c38 35 84 70 167 70c136 0 245 -80 245 -220v-2c0 -140 -113 -238 -260 -238zM334 94
c88 0 140 55 140 127v2c0 71 -55 122 -143 122c-87 0 -142 -56 -142 -123v-2c0 -72 57 -126 145 -126z" />
    <glyph glyph-name="seven" unicode="7" horiz-adv-x="609" 
d="M106 0l314 592h-352v108h492v-93l-316 -607h-138z" />
    <glyph glyph-name="eight" unicode="8" horiz-adv-x="630" 
d="M315 -10c-153 0 -267 80 -267 200v2c0 85 46 138 126 171c-60 31 -102 77 -102 156v2c0 107 103 189 243 189s243 -81 243 -189v-2c0 -79 -42 -125 -102 -156c76 -35 126 -84 126 -168v-2c0 -125 -114 -203 -267 -203zM315 404c72 0 125 43 125 103v2
c0 55 -49 98 -125 98s-125 -44 -125 -97v-2c0 -61 53 -104 125 -104zM315 93c92 0 147 46 147 105v2c0 64 -64 106 -147 106s-147 -42 -147 -106v-2c0 -57 55 -105 147 -105z" />
    <glyph glyph-name="nine" unicode="9" horiz-adv-x="656" 
d="M299 -12c-97 0 -164 35 -224 84l67 94c53 -45 100 -66 160 -66c104 0 164 91 169 220c-35 -43 -88 -74 -164 -74c-148 0 -248 86 -248 222v2c0 137 106 242 261 242c88 0 145 -25 194 -74c52 -52 85 -130 85 -267v-2c0 -225 -112 -381 -300 -381zM325 349
c89 0 142 58 142 126v2c0 73 -57 129 -146 129c-87 0 -139 -58 -139 -130v-2c0 -73 55 -125 143 -125z" />
    <glyph glyph-name="period" unicode="." horiz-adv-x="269" 
d="M68 0v137h133v-137h-133z" />
    <glyph glyph-name="comma" unicode="," horiz-adv-x="269" 
d="M47 -145l-13 51c61 12 90 43 85 94h-51v137h133v-116c0 -112 -53 -158 -154 -166z" />
    <glyph glyph-name="colon" unicode=":" horiz-adv-x="279" 
d="M73 391v137h133v-137h-133zM73 0v137h133v-137h-133z" />
    <glyph glyph-name="semicolon" unicode=";" horiz-adv-x="279" 
d="M73 391v137h133v-137h-133zM52 -145l-13 51c61 12 90 43 85 94h-51v137h133v-116c0 -112 -53 -158 -154 -166z" />
    <glyph glyph-name="ellipsis" unicode="&#x2026;" horiz-adv-x="792" 
d="M594 0v134h130v-134h-130zM331 0v134h130v-134h-130zM68 0v134h130v-134h-130z" />
    <glyph glyph-name="periodcentered" unicode="&#xb7;" horiz-adv-x="269" 
d="M68 238v137h133v-137h-133z" />
    <glyph glyph-name="bullet" unicode="&#x2022;" horiz-adv-x="491" 
d="M245 211c-77 0 -141 63 -141 140v2c0 77 65 140 141 140s142 -63 142 -140v-2c0 -77 -64 -140 -142 -140z" />
    <glyph glyph-name="ampersand" unicode="&#x26;" horiz-adv-x="696" 
d="M575 -14l-93 95c-60 -56 -130 -91 -215 -91c-130 0 -228 79 -228 200v2c0 91 53 155 149 196c-40 51 -58 95 -58 146v2c0 93 77 176 201 176c111 0 186 -75 186 -169v-2c0 -92 -61 -147 -154 -182l120 -122c27 40 52 86 75 135l93 -49c-28 -56 -59 -111 -95 -160
l110 -112zM298 425c72 27 110 58 110 109v2c0 47 -33 79 -80 79c-51 0 -83 -35 -83 -84v-2c0 -35 14 -61 53 -104zM280 92c48 0 92 22 132 61l-156 159c-65 -28 -93 -71 -93 -116v-2c0 -60 49 -102 117 -102z" />
    <glyph glyph-name="exclam" unicode="!" horiz-adv-x="302" 
d="M118 221l-38 444v35h142v-35l-37 -444h-67zM85 0v137h133v-137h-133z" />
    <glyph glyph-name="exclamdown" unicode="&#xa1;" horiz-adv-x="302" 
d="M85 563v137h133v-137h-133zM80 0v35l38 444h67l37 -444v-35h-142z" />
    <glyph glyph-name="question" unicode="?" horiz-adv-x="541" 
d="M207 221l-20 162l5 5c128 5 185 45 185 112v2c0 56 -43 95 -115 95c-64 0 -115 -28 -163 -79l-75 80c59 67 133 111 241 111c140 0 234 -78 234 -203v-2c0 -125 -90 -183 -201 -202l-10 -81h-81zM178 0v137h134v-137h-134z" />
    <glyph glyph-name="questiondown" unicode="&#xbf;" horiz-adv-x="541" 
d="M229 563v137h134v-137h-134zM276 -9c-140 0 -234 78 -234 203v2c0 125 90 183 201 202l10 81h81l20 -162l-5 -5c-128 -5 -185 -45 -185 -112v-2c0 -56 43 -95 115 -95c64 0 115 28 163 79l75 -80c-59 -67 -133 -111 -241 -111z" />
    <glyph glyph-name="quotedblleft" unicode="&#x201c;" horiz-adv-x="501" 
d="M295 422v117c0 112 53 158 154 166l13 -52c-61 -11 -90 -42 -86 -93h52v-138h-133zM63 422v117c0 112 53 158 154 166l13 -52c-61 -11 -90 -42 -85 -93h51v-138h-133z" />
    <glyph glyph-name="quotedblright" unicode="&#x201d;" horiz-adv-x="501" 
d="M284 417l-13 52c61 11 90 43 85 94h-51v137h133v-117c0 -112 -53 -158 -154 -166zM52 417l-13 52c61 11 90 43 85 94h-51v137h133v-117c0 -112 -53 -158 -154 -166z" />
    <glyph glyph-name="quoteleft" unicode="&#x2018;" horiz-adv-x="269" 
d="M63 422v117c0 112 53 158 154 166l13 -52c-61 -11 -90 -42 -85 -93h51v-138h-133z" />
    <glyph glyph-name="quoteright" unicode="&#x2019;" horiz-adv-x="269" 
d="M52 417l-13 52c61 11 90 43 85 94h-51v137h133v-117c0 -112 -53 -158 -154 -166z" />
    <glyph glyph-name="quotedblbase" unicode="&#x201e;" horiz-adv-x="501" 
d="M279 -145l-13 51c61 12 90 43 85 94h-51v137h133v-116c0 -112 -53 -158 -154 -166zM47 -145l-13 51c61 12 90 43 85 94h-51v137h133v-116c0 -112 -53 -158 -154 -166z" />
    <glyph glyph-name="quotesinglbase" unicode="&#x201a;" horiz-adv-x="269" 
d="M47 -145l-13 51c61 12 90 43 85 94h-51v137h133v-116c0 -112 -53 -158 -154 -166z" />
    <glyph glyph-name="guillemotleft" unicode="&#xab;" horiz-adv-x="606" 
d="M461 41l-165 219v8l165 220l92 -47l-132 -176l132 -177zM210 41l-166 219v8l166 220l92 -47l-132 -176l132 -177z" />
    <glyph glyph-name="guillemotright" unicode="&#xbb;" horiz-adv-x="606" 
d="M396 41l-92 46l132 176l-132 177l92 48l166 -220v-8zM145 41l-92 46l132 176l-132 177l92 48l165 -220v-8z" />
    <glyph glyph-name="guilsinglleft" unicode="&#x2039;" horiz-adv-x="354" 
d="M210 41l-166 219v8l166 220l92 -47l-132 -176l132 -177z" />
    <glyph glyph-name="guilsinglright" unicode="&#x203a;" horiz-adv-x="354" 
d="M145 41l-92 46l132 176l-132 177l92 48l165 -220v-8z" />
    <glyph glyph-name="hyphen" unicode="-" horiz-adv-x="408" 
d="M56 247v119h296v-119h-296z" />
    <glyph glyph-name="endash" unicode="&#x2013;" horiz-adv-x="528" 
d="M56 249v115h416v-115h-416z" />
    <glyph glyph-name="emdash" unicode="&#x2014;" horiz-adv-x="898" 
d="M56 249v115h786v-115h-786z" />
    <glyph glyph-name="underscore" unicode="_" horiz-adv-x="600" 
d="M-2 -160v94h604v-94h-604z" />
    <glyph glyph-name="slash" unicode="/" horiz-adv-x="521" 
d="M-25 -128l452 926h105l-452 -926h-105z" />
    <glyph glyph-name="backslash" unicode="\" horiz-adv-x="521" 
d="M441 -128l-452 926h105l452 -926h-105z" />
    <glyph glyph-name="bar" unicode="|" horiz-adv-x="331" 
d="M117 -128v926h97v-926h-97z" />
    <glyph glyph-name="parenleft" unicode="(" horiz-adv-x="440" 
d="M393 -60l-53 -81c-183 100 -277 237 -277 428s94 328 277 428l53 -81c-142 -94 -209 -198 -209 -347s66 -254 209 -347z" />
    <glyph glyph-name="parenright" unicode=")" horiz-adv-x="440" 
d="M101 -141l-53 81c142 94 209 198 209 347s-68 252 -209 347l53 81c181 -100 277 -239 277 -428s-96 -328 -277 -428z" />
    <glyph glyph-name="bracketleft" unicode="[" horiz-adv-x="454" 
d="M88 -130v830h307v-95h-192v-640h192v-95h-307z" />
    <glyph glyph-name="bracketright" unicode="]" horiz-adv-x="454" 
d="M59 -130v95h192v640h-192v95h308v-830h-308z" />
    <glyph glyph-name="braceleft" unicode="{" horiz-adv-x="487" 
d="M437 -61l-21 -80c-181 32 -227 97 -227 200c0 15 2 55 2 72c0 79 -29 110 -113 110h-26v92h26c84 0 113 31 113 110c0 17 -2 57 -2 72c0 102 46 168 227 200l21 -80c-120 -32 -136 -65 -136 -137c0 -20 2 -53 2 -74c0 -79 -37 -116 -104 -137c68 -23 104 -58 104 -137
c0 -21 -2 -54 -2 -74c0 -72 16 -105 136 -137z" />
    <glyph glyph-name="braceright" unicode="}" horiz-adv-x="487" 
d="M71 -141l-21 80c120 32 136 65 136 137c0 20 -2 53 -2 74c0 79 37 116 104 137c-68 23 -104 58 -104 137c0 21 2 54 2 74c0 72 -16 105 -136 137l21 80c181 -32 227 -98 227 -200c0 -15 -2 -55 -2 -72c0 -79 29 -110 113 -110h26v-92h-26c-84 0 -113 -31 -113 -110
c0 -17 2 -57 2 -72c0 -103 -46 -168 -227 -200z" />
    <glyph glyph-name="at" unicode="@" horiz-adv-x="980" 
d="M499 -162c-256 0 -446 197 -446 436s193 438 438 438s436 -189 436 -396c0 -168 -91 -249 -194 -249c-79 0 -125 33 -148 70c-36 -37 -84 -70 -155 -70c-100 0 -181 74 -181 189c0 141 111 250 227 250c72 0 114 -34 141 -74l12 60l97 -15l-44 -252c-3 -19 -5 -34 -5 -43
c0 -43 29 -71 78 -71c72 0 132 69 132 205c0 184 -169 358 -396 358c-228 0 -398 -180 -398 -400c0 -221 169 -398 406 -398c99 0 171 23 247 67l18 -30c-77 -47 -161 -75 -265 -75zM457 154c72 0 138 71 138 158c0 64 -45 108 -105 108c-73 0 -139 -67 -139 -158
c0 -69 43 -108 106 -108z" />
    <glyph glyph-name="copyright" unicode="&#xa9;" horiz-adv-x="830" 
d="M414 -12c-203 0 -361 163 -361 360v2c0 196 159 362 363 362c203 0 361 -163 361 -360v-2c0 -196 -159 -362 -363 -362zM414 24c184 0 325 147 325 326v2c0 179 -139 324 -323 324s-325 -147 -325 -326v-2c0 -179 139 -324 323 -324zM419 159c-110 0 -192 86 -192 194v2
c0 107 81 196 194 196c72 0 113 -24 149 -59l-47 -54c-29 27 -62 45 -102 45c-68 0 -118 -58 -118 -127v-2c0 -69 50 -127 118 -127c45 0 73 18 104 47l48 -47c-40 -43 -82 -68 -154 -68z" />
    <glyph glyph-name="published" unicode="&#x2117;" horiz-adv-x="830" 
d="M414 -12c-203 0 -361 163 -361 360v2c0 196 159 362 363 362c203 0 361 -163 361 -360v-2c0 -196 -159 -362 -363 -362zM414 24c184 0 325 147 325 326v2c0 179 -139 324 -323 324s-325 -147 -325 -326v-2c0 -179 139 -324 323 -324zM286 167v380h153
c91 0 147 -49 147 -128v-2c0 -86 -71 -130 -155 -130h-71v-120h-74zM360 352h73c48 0 78 25 78 64v2c0 41 -30 63 -78 63h-73v-129z" />
    <glyph glyph-name="registered.alt" horiz-adv-x="830" 
d="M414 -12c-203 0 -361 163 -361 360v2c0 196 159 362 363 362c203 0 361 -163 361 -360v-2c0 -196 -159 -362 -363 -362zM414 24c184 0 325 147 325 326v2c0 179 -139 324 -323 324s-325 -147 -325 -326v-2c0 -179 139 -324 323 -324zM269 171v379h169
c51 0 90 -15 115 -40c21 -21 31 -47 31 -80v-2c0 -61 -36 -99 -88 -114l102 -143h-86l-92 131h-79v-131h-72zM341 365h94c47 0 75 23 75 59v2c0 39 -28 59 -75 59h-94v-120z" />
    <glyph glyph-name="registered" unicode="&#xae;" horiz-adv-x="382" 
d="M191 360c-98 0 -174 79 -174 174v1c0 95 77 175 174 175c98 0 174 -79 174 -174v-1c0 -95 -77 -175 -174 -175zM191 379c87 0 154 71 154 156v1c0 84 -66 155 -154 155c-87 0 -154 -71 -154 -156v-1c0 -84 66 -155 154 -155zM119 448v181h85c43 0 73 -19 73 -60
c0 -29 -16 -48 -40 -56l46 -65h-53l-39 57h-28v-57h-44zM163 541h38c21 0 31 8 31 25s-10 25 -31 25h-38v-50z" />
    <glyph glyph-name="servicemark" unicode="&#x2120;" horiz-adv-x="705" 
d="M168 386c-49 0 -101 19 -138 51l32 40c32 -25 66 -43 109 -43c39 0 60 16 60 40c0 23 -16 34 -73 47c-68 16 -113 35 -113 91s45 94 114 94c47 0 89 -14 120 -41l-31 -41c-28 19 -57 32 -90 32c-36 0 -56 -16 -56 -37c0 -24 18 -35 75 -48c68 -15 111 -38 111 -91
c0 -59 -49 -94 -120 -94zM356 392v308h63l93 -146l93 146h61v-308h-57v219l-95 -148h-6l-95 148v-219h-57z" />
    <glyph glyph-name="trademark" unicode="&#x2122;" horiz-adv-x="690" 
d="M341 392v308h63l93 -146l93 146h61v-308h-57v219l-95 -148h-6l-95 148v-219h-57zM121 392v254h-95v54h249v-54h-95v-254h-59z" />
    <glyph glyph-name="asterisk" unicode="*" horiz-adv-x="430" 
d="M180 382l14 122l-100 -73l-36 61l114 50l-114 50l36 61l100 -73l-14 122h70l-14 -122l100 73l36 -61l-114 -50l114 -50l-36 -61l-100 73l14 -122h-70z" />
    <glyph glyph-name="dagger" unicode="&#x2020;" horiz-adv-x="410" 
d="M169 238l9 275l-122 -9v71l121 -9l-12 134h80l-12 -134l121 9v-71l-122 9l9 -275h-72z" />
    <glyph glyph-name="daggerdbl" unicode="&#x2021;" horiz-adv-x="430" 
d="M175 0l12 134l-121 -9v71l121 -9l-8 163l8 163l-121 -9v71l121 -9l-12 134h80l-12 -134l121 9v-71l-121 9l8 -163l-8 -163l121 9v-71l-121 9l12 -134h-80z" />
    <glyph glyph-name="dollar" unicode="$" horiz-adv-x="642" 
d="M285 -98v100c-88 11 -168 44 -236 99l64 91c57 -47 111 -75 176 -86v196c-147 37 -214 93 -214 205v2c0 108 85 180 210 191v58h87v-60c73 -9 132 -35 188 -76l-56 -94c-43 33 -89 54 -136 64v-190c152 -39 217 -99 217 -206v-2c0 -108 -86 -182 -213 -193v-99h-87z
M289 423v176c-64 -5 -96 -39 -96 -83v-2c0 -41 19 -68 96 -91zM368 283v-181c64 5 99 37 99 85v2c0 44 -22 71 -99 94z" />
    <glyph glyph-name="sterling" unicode="&#xa3;" horiz-adv-x="644" 
d="M63 0v78l79 24v176h-79v104h79v92c0 73 22 134 62 174c40 41 96 62 168 62c112 0 173 -48 221 -112l-94 -75c-36 47 -70 73 -126 73c-31 0 -54 -9 -73 -28c-21 -23 -34 -54 -34 -97v-89h249v-104h-249v-171h325v-107h-528z" />
    <glyph glyph-name="Euro" unicode="&#x20ac;" horiz-adv-x="720" 
d="M434 -12c-148 0 -254 96 -291 237h-91v85h77c-1 13 -1 25 -1 38v2c0 15 -1 30 2 45h-78v85h94c40 135 143 232 284 232c123 0 190 -56 244 -132l-93 -69c-43 59 -85 91 -154 91c-72 0 -126 -46 -154 -122h215v-85h-234c-1 -13 -2 -28 -2 -43v-2c0 -15 1 -27 2 -40h234
v-85h-216c27 -79 84 -127 163 -127c65 0 108 34 153 95l88 -64c-56 -83 -128 -141 -242 -141z" />
    <glyph glyph-name="yen" unicode="&#xa5;" horiz-adv-x="686" 
d="M284 0v102h-193v89h193v73h-193v89h159l-231 347h143l183 -293l183 293h139l-232 -347h160v-89h-193v-73h193v-89h-193v-102h-118z" />
    <glyph glyph-name="cent" unicode="&#xa2;" horiz-adv-x="581" 
d="M210 -6l20 102c-105 38 -178 139 -178 257v2c0 152 116 275 273 275h9l15 76h88l-18 -89c49 -15 86 -43 118 -78l-73 -78c-21 21 -44 39 -69 50l-65 -326c56 1 99 28 138 65l70 -69c-52 -59 -118 -101 -217 -101h-6l-17 -86h-88zM255 202l63 323
c-85 -3 -148 -76 -148 -168v-2c0 -68 32 -125 85 -153z" />
    <glyph glyph-name="numbersign" unicode="#" horiz-adv-x="700" 
d="M101 0l28 161h-90v104h108l29 174h-100v104h118l27 157h107l-27 -157h164l26 157h107l-27 -157h89v-104h-107l-29 -174h100v-104h-118l-28 -161h-107l28 161h-164l-27 -161h-107zM253 265h164l30 174h-164z" />
    <glyph glyph-name="paragraph" unicode="&#xb6;" horiz-adv-x="557" 
d="M346 0v244h-18c-164 0 -288 78 -288 227v2c0 141 111 227 271 227h159v-700h-124z" />
    <glyph glyph-name="section" unicode="&#xa7;" horiz-adv-x="632" 
d="M326 -10c-99 0 -175 35 -231 95l69 68c47 -43 97 -71 161 -71c56 0 81 21 81 49v2c0 29 -28 46 -132 70c-155 35 -216 74 -216 146v2c0 65 46 100 107 116c-36 23 -55 56 -55 95v2c0 89 73 146 196 146c99 0 175 -35 231 -95l-69 -68c-47 43 -97 71 -161 71
c-53 0 -81 -20 -81 -49v-2c0 -27 24 -46 132 -70c155 -35 216 -74 216 -146v-2c0 -64 -46 -100 -107 -116c35 -21 55 -56 55 -95v-2c0 -88 -72 -146 -196 -146zM388 278c45 0 77 23 77 54v2c0 29 -32 49 -117 70c-51 13 -81 18 -104 18c-45 0 -77 -23 -77 -54v-2
c0 -29 32 -49 117 -70c51 -13 81 -18 104 -18z" />
    <glyph glyph-name="ordfeminine" unicode="&#xaa;" horiz-adv-x="390" 
d="M159 403c-55 0 -103 31 -103 90v2c0 63 49 93 120 93c32 0 53 -4 76 -11v5c0 41 -23 61 -70 61c-31 0 -55 -8 -83 -19l-19 54c35 16 64 25 111 25c43 0 76 -11 97 -33c21 -20 31 -52 31 -89v-172h-68v34c-21 -24 -49 -40 -92 -40zM53 282v58h270v-58h-270zM177 454
c43 0 75 25 75 60v18c-17 7 -36 11 -63 11c-40 0 -64 -17 -64 -45v-2c0 -27 21 -42 52 -42z" />
    <glyph glyph-name="ordmasculine" unicode="&#xba;" horiz-adv-x="390" 
d="M194 402c-85 0 -150 67 -150 150v2c0 83 65 151 152 151c85 0 150 -67 150 -150v-2c0 -83 -65 -151 -152 -151zM51 282v58h288v-58h-288zM196 464c49 0 80 40 80 88v2c0 48 -34 89 -82 89c-49 0 -80 -40 -80 -88v-2c0 -48 34 -89 82 -89z" />
    <glyph glyph-name="degree" unicode="&#xb0;" horiz-adv-x="471" 
d="M235 381c-88 0 -166 75 -166 162v2c0 87 78 161 166 161s167 -74 167 -161v-2c0 -87 -79 -162 -167 -162zM235 447c55 0 95 45 95 96v2c0 52 -40 95 -95 95c-54 0 -94 -43 -94 -95v-2c0 -51 40 -96 94 -96z" />
    <glyph glyph-name="percent" unicode="%" horiz-adv-x="849" 
d="M212 350c-98 0 -164 81 -164 177v2c0 96 67 179 166 179c98 0 164 -81 164 -177v-2c0 -96 -67 -179 -166 -179zM119 0l512 700h99l-512 -700h-99zM635 -8c-98 0 -164 81 -164 177v2c0 96 67 179 166 179c98 0 164 -81 164 -177v-2c0 -96 -67 -179 -166 -179zM214 427
c47 0 75 45 75 100v2c0 56 -32 102 -77 102c-47 0 -75 -45 -75 -100v-2c0 -57 32 -102 77 -102zM637 69c47 0 75 45 75 100v2c0 56 -32 102 -77 102c-47 0 -75 -45 -75 -100v-2c0 -57 32 -102 77 -102z" />
    <glyph glyph-name="perthousand" unicode="&#x2030;" horiz-adv-x="1228" 
d="M212 350c-98 0 -164 81 -164 177v2c0 96 67 179 166 179c98 0 164 -81 164 -177v-2c0 -96 -67 -179 -166 -179zM119 0l512 700h99l-512 -700h-99zM1014 -8c-100 0 -164 81 -164 177v2c0 96 66 179 166 179c98 0 164 -81 164 -177v-2c0 -96 -67 -179 -166 -179zM635 -8
c-98 0 -164 81 -164 177v2c0 96 67 179 166 179c98 0 164 -81 164 -177v-2c0 -96 -67 -179 -166 -179zM214 427c47 0 75 45 75 100v2c0 56 -32 102 -77 102c-47 0 -75 -45 -75 -100v-2c0 -57 32 -102 77 -102zM1016 69c47 0 75 45 75 100v2c0 56 -32 102 -77 102
c-47 0 -75 -45 -75 -100v-2c0 -57 32 -102 77 -102zM637 69c47 0 75 45 75 100v2c0 56 -32 102 -77 102c-47 0 -75 -45 -75 -100v-2c0 -57 32 -102 77 -102z" />
    <glyph glyph-name="quotedbl" unicode="&#x22;" horiz-adv-x="487" 
d="M279 401l24 299h137v-5l-98 -294h-63zM60 401l23 299h137v-5l-97 -294h-63z" />
    <glyph glyph-name="quotesingle" unicode="'" horiz-adv-x="269" 
d="M60 401l23 299h139v-5l-98 -294h-64z" />
    <glyph glyph-name="plus" unicode="+" horiz-adv-x="634" 
d="M260 106v191h-192v111h192v190h114v-190h192v-111h-192v-191h-114z" />
    <glyph glyph-name="minus" unicode="&#x2212;" horiz-adv-x="634" 
d="M566 296h-498v113h498v-113z" />
    <glyph glyph-name="divide" unicode="&#xf7;" horiz-adv-x="634" 
d="M250 497v127h134v-127h-134zM566 300h-498v104h498v-104zM250 80v128h134v-128h-134z" />
    <glyph glyph-name="equal" unicode="=" horiz-adv-x="634" 
d="M76 421v112h482v-112h-482zM76 171v112h482v-112h-482z" />
    <glyph glyph-name="multiply" unicode="&#xd7;" horiz-adv-x="634" 
d="M479 113l-163 166l-163 -166l-75 75l166 163l-166 163l77 77l163 -166l163 166l75 -75l-166 -163l166 -163z" />
    <glyph glyph-name="less" unicode="&#x3c;" horiz-adv-x="634" 
d="M545 77l-478 221v108l478 221v-115l-358 -159l358 -160v-116z" />
    <glyph glyph-name="greater" unicode="&#x3e;" horiz-adv-x="634" 
d="M90 77v115l357 159l-357 160v116l478 -221v-108z" />
    <glyph glyph-name="plusminus" unicode="&#xb1;" horiz-adv-x="634" 
d="M560 373h-189l1 -184h-110l1 184h-188v107l188 -1l-1 185h110l-1 -185l189 1v-107zM560 0h-485v103h485v-103z" />
    <glyph glyph-name="C" unicode="C" horiz-adv-x="738" 
d="M415 -12c-204 0 -356 159 -356 360v2c0 199 149 362 361 362c128 0 207 -45 274 -109l-79 -91c-56 52 -116 87 -196 87c-134 0 -231 -111 -231 -247v-2c0 -137 97 -249 231 -249c85 0 141 35 201 91l79 -80c-71 -77 -154 -124 -284 -124z" />
    <glyph glyph-name="uni00A0" unicode="&#xa0;" horiz-adv-x="300" 
 />
    <glyph glyph-name="emspace" unicode="&#x2003;" horiz-adv-x="1000" 
 />
    <glyph glyph-name="enspace" unicode="&#x2002;" 
 />
    <glyph glyph-name="threeperemspace" unicode="&#x2004;" horiz-adv-x="333" 
 />
    <glyph glyph-name="fourperemspace" unicode="&#x2005;" horiz-adv-x="250" 
 />
    <glyph glyph-name="thinspace" unicode="&#x2009;" horiz-adv-x="133" 
 />
    <glyph glyph-name="hairspace" unicode="&#x200a;" horiz-adv-x="75" 
 />
    <glyph glyph-name="florin" unicode="&#x192;" horiz-adv-x="527" 
d="M97 -5c-24 0 -40 1 -56 5v99c14 -2 27 -3 40 -3c43 0 65 19 73 67l35 193h-80v101h97l18 93c19 101 67 155 175 155c39 0 67 -4 92 -11v-102c-24 7 -48 10 -69 10c-47 0 -70 -22 -81 -77l-12 -68h127v-101h-145l-38 -211c-19 -108 -72 -150 -176 -150z" />
    <glyph glyph-name="asciicircum" unicode="^" 
d="M56 493l151 208h86l151 -208h-93l-102 132l-102 -132h-91z" />
    <glyph glyph-name="asciitilde" unicode="~" horiz-adv-x="495" 
d="M126 229l-67 21c23 80 51 124 112 124c56 0 107 -40 143 -40c29 0 40 15 55 50l67 -20c-23 -81 -51 -125 -112 -125c-56 0 -107 40 -143 40c-29 0 -40 -15 -55 -50z" />
    <glyph glyph-name="fraction" unicode="&#x2044;" horiz-adv-x="450" 
d="M-48 0l251 364l224 336h71l-251 -364l-224 -336h-71z" />
    <glyph glyph-name="A" unicode="A" horiz-adv-x="790" 
d="M30 0l308 705h114l308 -705h-130l-71 169h-331l-72 -169h-126zM273 278h241l-121 280z" />
    <glyph glyph-name="hfjslug" horiz-adv-x="694" 
d="M644 -200h-208l-8 14h-163l-8 -14h-207v303c19 0 32 13 32 32c0 17 -13 32 -32 32v554h100l30 79h334l29 -79h101v-921zM400 563v-172h15v78h38v14h-38v66h43v14h-58zM184 563v-172h15v79h47v-79h15v172h-15v-79h-47v79h-15zM460 409v-15c7 -3 14 -4 21 -4
c21 0 31 12 31 36v137h-16v-137c0 -15 -5 -22 -16 -22c-7 0 -15 2 -20 5zM371 465l-13 3c-3 -9 -5 -21 -8 -30h-1l-16 31c13 12 23 26 23 42c0 17 -8 31 -27 31c-17 0 -28 -14 -28 -31c0 -15 6 -24 14 -39c-15 -12 -23 -28 -23 -47c0 -23 12 -37 29 -37c13 0 22 8 29 24h1
l12 -24l12 6l-17 32c5 12 9 24 13 39zM523 323v-46h8v12l8 8l15 -20h10l-20 26l18 20h-10l-20 -24h-1v24h-8zM488 292l10 -15h9l-12 17c7 3 10 7 10 14c0 10 -6 15 -17 15h-20v-46h8v15h12zM426 276c15 0 24 11 24 24c0 12 -9 24 -24 24s-24 -12 -24 -24c0 -13 9 -24 24 -24
zM370 301l-13 22h-9l18 -29v-17h8v17l18 29h-9zM193 323v-46h34v7h-26v13h23v7h-23v12h26v7h-34zM132 323v-46h8v32l25 -32h7v46h-8v-32l-25 32h-7zM241 323l14 -47h8l11 34h1l11 -34h8l14 47h-8l-10 -35h-1l-11 35h-7l-11 -35h-1l-10 35h-8zM327 479c-7 13 -12 21 -12 32
c0 13 5 19 14 19s13 -6 13 -19c0 -11 -5 -21 -15 -32zM322 462l20 -39c-5 -14 -12 -21 -20 -21c-11 0 -16 8 -16 25c0 13 7 26 16 35zM487 299h-11v17h11c7 0 10 -3 10 -8c0 -6 -3 -9 -10 -9zM426 283c-11 0 -16 8 -16 17c0 8 5 17 16 17s16 -9 16 -17c0 -9 -5 -17 -16 -17z
" />
    <glyph glyph-name="i.dot" horiz-adv-x="286" 
d="M78 609v115h130v-115h-130zM83 0v528h121v-528h-121z" />
    <glyph glyph-name="acute" unicode="&#xb4;" 
d="M162 595l104 164l110 -49l-123 -115h-91z" />
    <glyph glyph-name="hungarumlaut" unicode="&#x2dd;" 
d="M233 595l105 164l106 -49l-123 -115h-88zM63 595l103 164l106 -49l-121 -115h-88z" />
    <glyph glyph-name="caron.alt" 
d="M203 540l12 190h94v-3l-56 -187h-50z" />
    <glyph glyph-name="grave" unicode="`" 
d="M247 595l-123 115l110 49l104 -164h-91z" />
    <glyph glyph-name="circumflex" unicode="&#x2c6;" 
d="M78 595l116 147h112l117 -147h-96l-78 67l-77 -67h-94z" />
    <glyph glyph-name="caron" unicode="&#x2c7;" 
d="M423 742l-117 -147h-112l-116 147h96l77 -67l78 67h94z" />
    <glyph glyph-name="breve" unicode="&#x2d8;" 
d="M250 593c-96 0 -164 53 -171 145h83c12 -36 37 -61 88 -61s76 25 88 61h84c-8 -92 -76 -145 -172 -145z" />
    <glyph glyph-name="tilde" unicode="&#x2dc;" 
d="M128 585l-67 21c23 80 51 124 112 124c56 0 108 -40 144 -40c29 0 40 15 55 50l67 -20c-23 -81 -51 -125 -112 -125c-55 0 -109 40 -144 40c-29 0 -40 -15 -55 -50z" />
    <glyph glyph-name="macron" unicode="&#xaf;" 
d="M80 606v88h340v-88h-340z" />
    <glyph glyph-name="dieresis" unicode="&#xa8;" 
d="M286 595v119h123v-119h-123zM91 595v119h123v-119h-123z" />
    <glyph glyph-name="dotaccent" unicode="&#x2d9;" 
d="M187 595v119h126v-119h-126z" />
    <glyph glyph-name="ring" unicode="&#x2da;" 
d="M134 705c0 61 52 112 116 112s116 -51 116 -112s-52 -112 -116 -112s-116 51 -116 112zM183 705c0 -37 30 -67 67 -67s67 30 67 67s-30 67 -67 67s-67 -30 -67 -67z" />
    <glyph glyph-name="acute.cap" 
d="M157 758l112 145l110 -48l-128 -97h-94z" />
    <glyph glyph-name="hungarumlaut.cap" 
d="M56 758l112 145l106 -48l-127 -97h-91zM231 758l112 145l106 -48l-127 -97h-91z" />
    <glyph glyph-name="grave.cap" 
d="M229 903l113 -145h-95l-127 97z" />
    <glyph glyph-name="circumflex.cap" 
d="M72 758l121 135h114l121 -135h-102l-77 58l-77 -58h-100z" />
    <glyph glyph-name="caron.cap" 
d="M428 893l-121 -135h-114l-121 135h102l77 -57l77 57h100z" />
    <glyph glyph-name="breve.cap" 
d="M250 756c-96 0 -165 47 -173 134h86c12 -31 36 -50 87 -50s75 19 87 50h86c-8 -87 -77 -134 -173 -134z" />
    <glyph glyph-name="tilde.cap" 
d="M126 748l-67 21c21 79 51 123 112 123c56 0 112 -39 147 -39c29 0 40 16 55 48l68 -20c-23 -79 -52 -123 -112 -123c-56 0 -112 39 -147 39c-29 0 -41 -16 -56 -49z" />
    <glyph glyph-name="macron.cap" 
d="M71 769v90h359v-90h-359z" />
    <glyph glyph-name="dieresis.cap" 
d="M291 758v112h124v-112h-124zM85 758v112h125v-112h-125z" />
    <glyph glyph-name="dotaccent.cap" 
d="M186 758v112h128v-112h-128z" />
    <glyph glyph-name="ring.cap" 
d="M131 862c0 60 55 105 119 105s119 -45 119 -105c0 -61 -55 -106 -119 -106s-119 45 -119 106zM186 862c0 -33 25 -59 64 -59s65 26 65 59c0 32 -26 58 -65 58s-64 -26 -64 -58z" />
    <glyph glyph-name="commaaccent" unicode="&#x326;" 
d="M183 -272l-8 39c49 7 73 29 70 68h-54v101h118v-86c0 -83 -43 -118 -126 -122z" />
    <glyph glyph-name="cedilla" unicode="&#xb8;" 
d="M237 -166l-106 45l94 138h90z" />
    <glyph glyph-name="ogonek" unicode="&#x2db;" 
d="M346 -106v-58c-107 -11 -164 30 -164 82c0 35 20 63 52 94l81 -5c-31 -28 -41 -49 -41 -70c0 -29 24 -43 72 -43z" />
    <glyph glyph-name="uni1EFA" unicode="&#x1efa;" horiz-adv-x="0" 
d="M655 805h119c16 -45 15 -98 15 -106c-1 -77 -61 -121 -181 -124v105c48 3 74 17 74 36c0 15 -4 48 -27 89z" />
    <glyph glyph-name="uni1EFB" unicode="&#x1efb;" horiz-adv-x="0" 
d="M319 689l-7 83c44 4 68 23 68 63c0 11 -11 29 -36 29c-15 0 -43 -8 -56 -43l-61 34c32 72 75 84 120 84c67 0 112 -44 112 -104c0 -71 -35 -92 -75 -105c0 -15 -3 -21 -4 -41h-61z" />
    <glyph glyph-name="Ohorn" unicode="&#x1a0;" horiz-adv-x="850" 
d="M424 -12c-215 0 -365 163 -365 360v2c0 196 152 362 367 362c81 0 151 -23 210 -63c27 7 41 18 41 32c0 15 -4 48 -27 89h119c16 -45 15 -98 15 -106c-1 -45 -22 -78 -61 -99c43 -60 68 -133 68 -213v-2c0 -196 -152 -362 -367 -362zM426 101c139 0 236 111 236 247v2
c0 136 -98 249 -238 249c-139 0 -236 -111 -236 -247v-2c0 -136 98 -249 238 -249z" />
    <glyph glyph-name="ohorn" unicode="&#x1a1;" horiz-adv-x="657" 
d="M327 -12c-161 0 -280 123 -280 273v2c0 151 120 276 282 276c68 0 128 -22 176 -59c21 7 32 17 32 29c0 15 -4 47 -27 87h116c15 -64 15 -95 15 -104c-1 -44 -22 -77 -63 -98c20 -39 32 -82 32 -129v-2c0 -149 -120 -275 -283 -275zM329 93c99 0 160 77 160 168v2
c0 93 -67 170 -162 170c-97 0 -159 -76 -159 -168v-2c0 -92 68 -170 161 -170z" />
    <glyph glyph-name="Uhorn" unicode="&#x1af;" horiz-adv-x="810" 
d="M377 -11c-181 0 -298 105 -298 308v403h123v-398c0 -131 66 -200 177 -200c109 0 176 66 176 195v403h95c18 6 27 15 27 27c0 15 -4 48 -27 89h119c16 -45 15 -98 15 -106c-1 -59 -37 -98 -106 -115v-292c0 -209 -118 -314 -301 -314z" />
    <glyph glyph-name="uhorn" unicode="&#x1b0;" horiz-adv-x="673" 
d="M258 -11c-120 0 -188 79 -188 203v336h121v-300c0 -83 41 -129 113 -129c71 0 119 48 119 131v298h99c21 6 31 15 31 28c0 15 -4 47 -27 87h116c15 -64 15 -95 15 -104c-1 -61 -39 -100 -113 -115v-424h-121v82c-35 -51 -84 -93 -165 -93z" />
    <glyph glyph-name="uni1EA2" unicode="&#x1ea2;" horiz-adv-x="790" 
d="M369 765l-7 83c39 4 63 17 63 53c0 9 -8 25 -31 25c-12 0 -30 -8 -42 -37l-66 31c30 68 80 81 111 81c59 0 106 -43 106 -99c0 -58 -38 -85 -75 -98l-5 -39h-54zM30 0l308 705h114l308 -705h-130l-71 169h-331l-72 -169h-126zM273 278h241l-121 280z" />
    <glyph glyph-name="uni1EA3" unicode="&#x1ea3;" horiz-adv-x="587" 
d="M290 595l-7 83c39 4 63 17 63 53c0 9 -8 25 -31 25c-12 0 -30 -8 -42 -37l-66 31c30 68 80 81 111 81c59 0 106 -43 106 -99c0 -58 -38 -85 -75 -98l-5 -39h-54zM519 0h-120v65c-36 -43 -91 -76 -171 -76c-100 0 -188 56 -188 163v2c0 117 90 173 214 173
c64 0 105 -9 146 -22v10c0 73 -46 113 -130 113c-60 0 -103 -13 -151 -33l-33 97c59 27 114 44 201 44c157 0 232 -82 232 -223v-313zM402 191v30c-31 12 -74 21 -121 21c-76 0 -121 -31 -121 -82v-2c0 -51 45 -78 102 -78c80 0 140 44 140 111z" />
    <glyph glyph-name="Itilde" unicode="&#x128;" horiz-adv-x="317" 
d="M97 0v700h123v-700h-123zM42 757l-67 21c23 80 51 124 112 124c56 0 108 -40 144 -40c29 0 40 15 55 50l67 -20c-23 -81 -51 -125 -112 -125c-55 0 -109 40 -144 40c-29 0 -40 -15 -55 -50z" />
    <glyph glyph-name="itilde" unicode="&#x129;" horiz-adv-x="286" 
d="M83 0v528h121v-528h-121zM21 585l-67 21c23 80 51 124 112 124c56 0 108 -40 144 -40c29 0 40 15 55 50l67 -20c-23 -81 -51 -125 -112 -125c-55 0 -109 40 -144 40c-29 0 -40 -15 -55 -50z" />
    <glyph glyph-name="Utilde" unicode="&#x168;" horiz-adv-x="757" 
d="M377 -11c-181 0 -298 105 -298 308v403h123v-398c0 -131 66 -200 177 -200c109 0 176 66 176 195v403h123v-397c0 -209 -118 -314 -301 -314zM256 757l-67 21c23 80 51 124 112 124c56 0 108 -40 144 -40c29 0 40 15 55 50l67 -20c-23 -81 -51 -125 -112 -125
c-55 0 -109 40 -144 40c-29 0 -40 -15 -55 -50z" />
    <glyph glyph-name="utilde" unicode="&#x169;" horiz-adv-x="620" 
d="M258 -11c-120 0 -188 79 -188 203v336h121v-300c0 -83 41 -129 113 -129c71 0 119 48 119 131v298h121v-528h-121v82c-35 -51 -84 -93 -165 -93zM188 585l-67 21c23 80 51 124 112 124c56 0 108 -40 144 -40c29 0 40 15 55 50l67 -20c-23 -81 -51 -125 -112 -125
c-55 0 -109 40 -144 40c-29 0 -40 -15 -55 -50z" />
    <glyph glyph-name="uni1EA0" unicode="&#x1ea0;" horiz-adv-x="790" 
d="M331 -192v125h112v-125h-112zM30 0l308 705h114l308 -705h-130l-71 169h-331l-72 -169h-126zM273 278h241l-121 280z" />
    <glyph glyph-name="uni1EA1" unicode="&#x1ea1;" horiz-adv-x="587" 
d="M239 -192v125h112v-125h-112zM519 0h-120v65c-36 -43 -91 -76 -171 -76c-100 0 -188 56 -188 163v2c0 117 90 173 214 173c64 0 105 -9 146 -22v10c0 73 -46 113 -130 113c-60 0 -103 -13 -151 -33l-33 97c59 27 114 44 201 44c157 0 232 -82 232 -223v-313zM402 191v30
c-31 12 -74 21 -121 21c-76 0 -121 -31 -121 -82v-2c0 -51 45 -78 102 -78c80 0 140 44 140 111z" />
    <glyph glyph-name="uni1EB8" unicode="&#x1eb8;" horiz-adv-x="670" 
d="M293 -192v125h112v-125h-112zM90 0v700h519v-110h-396v-182h351v-110h-351v-188h401v-110h-524z" />
    <glyph glyph-name="uni1EB9" unicode="&#x1eb9;" horiz-adv-x="604" 
d="M248 -192v125h112v-125h-112zM318 -12c-152 0 -271 111 -271 274v2c0 152 107 275 258 275c168 0 253 -132 253 -284c0 -11 -1 -22 -2 -34h-388c13 -87 73 -134 152 -134c60 0 100 22 143 63l71 -63c-51 -60 -119 -99 -216 -99zM167 301h271c-8 77 -54 139 -134 139
c-75 0 -126 -56 -137 -139z" />
    <glyph glyph-name="uni1EBA" unicode="&#x1eba;" horiz-adv-x="670" 
d="M328 765l-7 83c39 4 63 17 63 53c0 9 -8 25 -31 25c-12 0 -30 -8 -42 -37l-66 31c30 68 80 81 111 81c59 0 106 -43 106 -99c0 -58 -38 -85 -75 -98l-5 -39h-54zM90 0v700h519v-110h-396v-182h351v-110h-351v-188h401v-110h-524z" />
    <glyph glyph-name="uni1EBB" unicode="&#x1ebb;" horiz-adv-x="604" 
d="M292 595l-7 83c39 4 63 17 63 53c0 9 -8 25 -31 25c-12 0 -30 -8 -42 -37l-66 31c30 68 80 81 111 81c59 0 106 -43 106 -99c0 -58 -38 -85 -75 -98l-5 -39h-54zM318 -12c-152 0 -271 111 -271 274v2c0 152 107 275 258 275c168 0 253 -132 253 -284c0 -11 -1 -22 -2 -34
h-388c13 -87 73 -134 152 -134c60 0 100 22 143 63l71 -63c-51 -60 -119 -99 -216 -99zM167 301h271c-8 77 -54 139 -134 139c-75 0 -126 -56 -137 -139z" />
    <glyph glyph-name="uni1EBC" unicode="&#x1ebc;" horiz-adv-x="670" 
d="M90 0v700h519v-110h-396v-182h351v-110h-351v-188h401v-110h-524zM229 757l-67 21c23 80 51 124 112 124c56 0 108 -40 144 -40c29 0 40 15 55 50l67 -20c-23 -81 -51 -125 -112 -125c-55 0 -109 40 -144 40c-29 0 -40 -15 -55 -50z" />
    <glyph glyph-name="uni1EBD" unicode="&#x1ebd;" horiz-adv-x="604" 
d="M318 -12c-152 0 -271 111 -271 274v2c0 152 107 275 258 275c168 0 253 -132 253 -284c0 -11 -1 -22 -2 -34h-388c13 -87 73 -134 152 -134c60 0 100 22 143 63l71 -63c-51 -60 -119 -99 -216 -99zM167 301h271c-8 77 -54 139 -134 139c-75 0 -126 -56 -137 -139z
M187 585l-67 21c23 80 51 124 112 124c56 0 108 -40 144 -40c29 0 40 15 55 50l67 -20c-23 -81 -51 -125 -112 -125c-55 0 -109 40 -144 40c-29 0 -40 -15 -55 -50z" />
    <glyph glyph-name="uni1EC8" unicode="&#x1ec8;" horiz-adv-x="317" 
d="M133 765l-7 83c39 4 63 17 63 53c0 9 -8 25 -31 25c-12 0 -30 -8 -42 -37l-66 31c30 68 80 81 111 81c59 0 106 -43 106 -99c0 -58 -38 -85 -75 -98l-5 -39h-54zM97 0v700h123v-700h-123z" />
    <glyph glyph-name="uni1EC9" unicode="&#x1ec9;" horiz-adv-x="286" 
d="M83 0v528h121v-528h-121zM118 595l-7 83c39 4 63 17 63 53c0 9 -8 25 -31 25c-12 0 -30 -8 -42 -37l-66 31c30 68 80 81 111 81c59 0 106 -43 106 -99c0 -58 -38 -85 -75 -98l-5 -39h-54z" />
    <glyph glyph-name="uni1ECA" unicode="&#x1eca;" horiz-adv-x="317" 
d="M104 -192v125h112v-125h-112zM97 0v700h123v-700h-123z" />
    <glyph glyph-name="uni1ECB" unicode="&#x1ecb;" horiz-adv-x="286" 
d="M89 -192v125h112v-125h-112zM78 609v115h130v-115h-130zM83 0v528h121v-528h-121z" />
    <glyph glyph-name="uni1ECC" unicode="&#x1ecc;" horiz-adv-x="850" 
d="M370 -192v125h112v-125h-112zM424 -12c-215 0 -365 163 -365 360v2c0 196 152 362 367 362s365 -163 365 -360v-2c0 -196 -152 -362 -367 -362zM426 101c139 0 236 111 236 247v2c0 136 -98 249 -238 249c-139 0 -236 -111 -236 -247v-2c0 -136 98 -249 238 -249z" />
    <glyph glyph-name="uni1ECD" unicode="&#x1ecd;" horiz-adv-x="657" 
d="M271 -192v125h112v-125h-112zM327 -12c-161 0 -280 123 -280 273v2c0 151 120 276 282 276c163 0 281 -123 281 -274v-2c0 -149 -120 -275 -283 -275zM329 93c99 0 160 77 160 168v2c0 93 -67 170 -162 170c-97 0 -159 -76 -159 -168v-2c0 -92 68 -170 161 -170z" />
    <glyph glyph-name="uni1ECE" unicode="&#x1ece;" horiz-adv-x="850" 
d="M424 -12c-215 0 -365 163 -365 360v2c0 196 152 362 367 362s365 -163 365 -360v-2c0 -196 -152 -362 -367 -362zM426 101c139 0 236 111 236 247v2c0 136 -98 249 -238 249c-139 0 -236 -111 -236 -247v-2c0 -136 98 -249 238 -249zM400 765l-7 83c39 4 63 17 63 53
c0 9 -8 25 -31 25c-12 0 -30 -8 -42 -37l-66 31c30 68 80 81 111 81c59 0 106 -43 106 -99c0 -58 -38 -85 -75 -98l-5 -39h-54z" />
    <glyph glyph-name="uni1ECF" unicode="&#x1ecf;" horiz-adv-x="657" 
d="M327 -12c-161 0 -280 123 -280 273v2c0 151 120 276 282 276c163 0 281 -123 281 -274v-2c0 -149 -120 -275 -283 -275zM329 93c99 0 160 77 160 168v2c0 93 -67 170 -162 170c-97 0 -159 -76 -159 -168v-2c0 -92 68 -170 161 -170zM303 595l-7 83c39 4 63 17 63 53
c0 9 -8 25 -31 25c-12 0 -30 -8 -42 -37l-66 31c30 68 80 81 111 81c59 0 106 -43 106 -99c0 -58 -38 -85 -75 -98l-5 -39h-54z" />
    <glyph glyph-name="uni1EE4" unicode="&#x1ee4;" horiz-adv-x="757" 
d="M377 -11c-181 0 -298 105 -298 308v403h123v-398c0 -131 66 -200 177 -200c109 0 176 66 176 195v403h123v-397c0 -209 -118 -314 -301 -314zM321 -192v125h112v-125h-112z" />
    <glyph glyph-name="uni1EE5" unicode="&#x1ee5;" horiz-adv-x="620" 
d="M250 -192v125h112v-125h-112zM258 -11c-120 0 -188 79 -188 203v336h121v-300c0 -83 41 -129 113 -129c71 0 119 48 119 131v298h121v-528h-121v82c-35 -51 -84 -93 -165 -93z" />
    <glyph glyph-name="uni1EE6" unicode="&#x1ee6;" horiz-adv-x="757" 
d="M361 765l-7 83c39 4 63 17 63 53c0 9 -8 25 -31 25c-12 0 -30 -8 -42 -37l-66 31c30 68 80 81 111 81c59 0 106 -43 106 -99c0 -58 -38 -85 -75 -98l-5 -39h-54zM377 -11c-181 0 -298 105 -298 308v403h123v-398c0 -131 66 -200 177 -200c109 0 176 66 176 195v403h123
v-397c0 -209 -118 -314 -301 -314z" />
    <glyph glyph-name="uni1EE7" unicode="&#x1ee7;" horiz-adv-x="620" 
d="M282 595l-7 83c39 4 63 17 63 53c0 9 -8 25 -31 25c-12 0 -30 -8 -42 -37l-66 31c30 68 80 81 111 81c59 0 106 -43 106 -99c0 -58 -38 -85 -75 -98l-5 -39h-54zM258 -11c-120 0 -188 79 -188 203v336h121v-300c0 -83 41 -129 113 -129c71 0 119 48 119 131v298h121v-528
h-121v82c-35 -51 -84 -93 -165 -93z" />
    <glyph glyph-name="uni1EF4" unicode="&#x1ef4;" horiz-adv-x="716" 
d="M302 -192v125h112v-125h-112zM296 0v276l-278 424h145l196 -310l198 310h141l-278 -421v-279h-124z" />
    <glyph glyph-name="uni1EF5" unicode="&#x1ef5;" horiz-adv-x="596" 
d="M390 -192v125h112v-125h-112zM184 -163c-51 0 -88 12 -125 32l41 90c23 -12 46 -20 71 -20c35 0 55 14 75 61l-220 528h129l150 -392l137 392h126l-210 -543c-42 -108 -89 -148 -174 -148z" />
    <glyph glyph-name="uni1EF6" unicode="&#x1ef6;" horiz-adv-x="716" 
d="M342 765l-7 83c39 4 63 17 63 53c0 9 -8 25 -31 25c-12 0 -30 -8 -42 -37l-66 31c30 68 80 81 111 81c59 0 106 -43 106 -99c0 -58 -38 -85 -75 -98l-5 -39h-54zM296 0v276l-278 424h145l196 -310l198 310h141l-278 -421v-279h-124z" />
    <glyph glyph-name="uni1EF7" unicode="&#x1ef7;" horiz-adv-x="596" 
d="M277 595l-7 83c39 4 63 17 63 53c0 9 -8 25 -31 25c-12 0 -30 -8 -42 -37l-66 31c30 68 80 81 111 81c59 0 106 -43 106 -99c0 -58 -38 -85 -75 -98l-5 -39h-54zM184 -163c-51 0 -88 12 -125 32l41 90c23 -12 46 -20 71 -20c35 0 55 14 75 61l-220 528h129l150 -392
l137 392h126l-210 -543c-42 -108 -89 -148 -174 -148z" />
    <glyph glyph-name="uni1EF8" unicode="&#x1ef8;" horiz-adv-x="716" 
d="M296 0v276l-278 424h145l196 -310l198 310h141l-278 -421v-279h-124zM236 757l-67 21c23 80 51 124 112 124c56 0 108 -40 144 -40c29 0 40 15 55 50l67 -20c-23 -81 -51 -125 -112 -125c-55 0 -109 40 -144 40c-29 0 -40 -15 -55 -50z" />
    <glyph glyph-name="uni1EF9" unicode="&#x1ef9;" horiz-adv-x="596" 
d="M184 -163c-51 0 -88 12 -125 32l41 90c23 -12 46 -20 71 -20c35 0 55 14 75 61l-220 528h129l150 -392l137 392h126l-210 -543c-42 -108 -89 -148 -174 -148zM183 585l-67 21c23 80 51 124 112 124c56 0 108 -40 144 -40c29 0 40 15 55 50l67 -20
c-23 -81 -51 -125 -112 -125c-55 0 -109 40 -144 40c-29 0 -40 -15 -55 -50z" />
    <glyph glyph-name="uni1EA4" unicode="&#x1ea4;" horiz-adv-x="790" 
d="M30 0l308 705h114l308 -705h-130l-71 169h-331l-72 -169h-126zM273 278h241l-121 280zM223 764l116 147h112l117 -147h-96l-78 67l-77 -67h-94zM521 874l104 164l110 -49l-123 -115h-91z" />
    <glyph glyph-name="uni1EA5" unicode="&#x1ea5;" horiz-adv-x="587" 
d="M519 0h-120v65c-36 -43 -91 -76 -171 -76c-100 0 -188 56 -188 163v2c0 117 90 173 214 173c64 0 105 -9 146 -22v10c0 73 -46 113 -130 113c-60 0 -103 -13 -151 -33l-33 97c59 27 114 44 201 44c157 0 232 -82 232 -223v-313zM402 191v30c-31 12 -74 21 -121 21
c-76 0 -121 -31 -121 -82v-2c0 -51 45 -78 102 -78c80 0 140 44 140 111zM129 595l116 147h112l117 -147h-96l-78 67l-77 -67h-94zM427 705l104 164l110 -49l-123 -115h-91z" />
    <glyph glyph-name="uni1EA6" unicode="&#x1ea6;" horiz-adv-x="790" 
d="M30 0l308 705h114l308 -705h-130l-71 169h-331l-72 -169h-126zM273 278h241l-121 280zM223 764l116 147h112l117 -147h-96l-78 67l-77 -67h-94zM556 874l-123 115l110 49l104 -164h-91z" />
    <glyph glyph-name="uni1EA7" unicode="&#x1ea7;" horiz-adv-x="587" 
d="M519 0h-120v65c-36 -43 -91 -76 -171 -76c-100 0 -188 56 -188 163v2c0 117 90 173 214 173c64 0 105 -9 146 -22v10c0 73 -46 113 -130 113c-60 0 -103 -13 -151 -33l-33 97c59 27 114 44 201 44c157 0 232 -82 232 -223v-313zM402 191v30c-31 12 -74 21 -121 21
c-76 0 -121 -31 -121 -82v-2c0 -51 45 -78 102 -78c80 0 140 44 140 111zM129 595l116 147h112l117 -147h-96l-78 67l-77 -67h-94zM462 705l-123 115l110 49l104 -164h-91z" />
    <glyph glyph-name="uni1EA8" unicode="&#x1ea8;" horiz-adv-x="790" 
d="M30 0l308 705h114l308 -705h-130l-71 169h-331l-72 -169h-126zM273 278h241l-121 280zM223 764l116 147h112l117 -147h-96l-78 67l-77 -67h-94zM541 849l-7 83c39 4 63 17 63 53c0 9 -8 25 -31 25c-12 0 -30 -8 -42 -37l-66 31c30 68 80 81 111 81c59 0 106 -43 106 -99
c0 -58 -38 -85 -75 -98l-5 -39h-54z" />
    <glyph glyph-name="uni1EA9" unicode="&#x1ea9;" horiz-adv-x="587" 
d="M519 0h-120v65c-36 -43 -91 -76 -171 -76c-100 0 -188 56 -188 163v2c0 117 90 173 214 173c64 0 105 -9 146 -22v10c0 73 -46 113 -130 113c-60 0 -103 -13 -151 -33l-33 97c59 27 114 44 201 44c157 0 232 -82 232 -223v-313zM402 191v30c-31 12 -74 21 -121 21
c-76 0 -121 -31 -121 -82v-2c0 -51 45 -78 102 -78c80 0 140 44 140 111zM129 595l116 147h112l117 -147h-96l-78 67l-77 -67h-94zM447 680l-7 83c39 4 63 17 63 53c0 9 -8 25 -31 25c-12 0 -30 -8 -42 -37l-66 31c30 68 80 81 111 81c59 0 106 -43 106 -99
c0 -58 -38 -85 -75 -98l-5 -39h-54z" />
    <glyph glyph-name="uni1EAA" unicode="&#x1eaa;" horiz-adv-x="790" 
d="M30 0l308 705h114l308 -705h-130l-71 169h-331l-72 -169h-126zM273 278h241l-121 280zM223 764l116 147h112l117 -147h-96l-78 67l-77 -67h-94zM284 943l-62 19c19 72 46 113 102 113c52 0 104 -35 136 -35c27 0 37 14 50 43l62 -18c-20 -72 -46 -112 -102 -112
c-51 0 -103 35 -135 35c-27 0 -38 -14 -51 -45z" />
    <glyph glyph-name="uni1EAB" unicode="&#x1eab;" horiz-adv-x="587" 
d="M519 0h-120v65c-36 -43 -91 -76 -171 -76c-100 0 -188 56 -188 163v2c0 117 90 173 214 173c64 0 105 -9 146 -22v10c0 73 -46 113 -130 113c-60 0 -103 -13 -151 -33l-33 97c59 27 114 44 201 44c157 0 232 -82 232 -223v-313zM402 191v30c-31 12 -74 21 -121 21
c-76 0 -121 -31 -121 -82v-2c0 -51 45 -78 102 -78c80 0 140 44 140 111zM129 595l116 147h112l117 -147h-96l-78 67l-77 -67h-94zM190 774l-62 19c19 72 46 113 102 113c52 0 104 -35 136 -35c27 0 37 14 50 43l62 -18c-20 -72 -46 -112 -102 -112c-51 0 -103 35 -135 35
c-27 0 -38 -14 -51 -45z" />
    <glyph glyph-name="uni1EAC" unicode="&#x1eac;" horiz-adv-x="790" 
d="M30 0l308 705h114l308 -705h-130l-71 169h-331l-72 -169h-126zM273 278h241l-121 280zM223 764l116 147h112l117 -147h-96l-78 67l-77 -67h-94zM331 -192v125h112v-125h-112z" />
    <glyph glyph-name="uni1EAD" unicode="&#x1ead;" horiz-adv-x="587" 
d="M519 0h-120v65c-36 -43 -91 -76 -171 -76c-100 0 -188 56 -188 163v2c0 117 90 173 214 173c64 0 105 -9 146 -22v10c0 73 -46 113 -130 113c-60 0 -103 -13 -151 -33l-33 97c59 27 114 44 201 44c157 0 232 -82 232 -223v-313zM402 191v30c-31 12 -74 21 -121 21
c-76 0 -121 -31 -121 -82v-2c0 -51 45 -78 102 -78c80 0 140 44 140 111zM129 595l116 147h112l117 -147h-96l-78 67l-77 -67h-94zM239 -192v125h112v-125h-112z" />
    <glyph glyph-name="uni1EAE" unicode="&#x1eae;" horiz-adv-x="790" 
d="M30 0l308 705h114l308 -705h-130l-71 169h-331l-72 -169h-126zM273 278h241l-121 280zM395 765c-96 0 -164 53 -171 145h83c12 -36 37 -61 88 -61s76 25 88 61h84c-8 -92 -76 -145 -172 -145zM337 911l104 164l110 -49l-123 -115h-91z" />
    <glyph glyph-name="uni1EAF" unicode="&#x1eaf;" horiz-adv-x="587" 
d="M519 0h-120v65c-36 -43 -91 -76 -171 -76c-100 0 -188 56 -188 163v2c0 117 90 173 214 173c64 0 105 -9 146 -22v10c0 73 -46 113 -130 113c-60 0 -103 -13 -151 -33l-33 97c59 27 114 44 201 44c157 0 232 -82 232 -223v-313zM402 191v30c-31 12 -74 21 -121 21
c-76 0 -121 -31 -121 -82v-2c0 -51 45 -78 102 -78c80 0 140 44 140 111zM317 593c-96 0 -164 53 -171 145h83c12 -36 37 -61 88 -61s76 25 88 61h84c-8 -92 -76 -145 -172 -145zM259 739l104 164l110 -49l-123 -115h-91z" />
    <glyph glyph-name="uni1EB0" unicode="&#x1eb0;" horiz-adv-x="790" 
d="M30 0l308 705h114l308 -705h-130l-71 169h-331l-72 -169h-126zM273 278h241l-121 280zM395 765c-96 0 -164 53 -171 145h83c12 -36 37 -61 88 -61s76 25 88 61h84c-8 -92 -76 -145 -172 -145zM365 911l-123 115l110 49l104 -164h-91z" />
    <glyph glyph-name="uni1EB1" unicode="&#x1eb1;" horiz-adv-x="587" 
d="M519 0h-120v65c-36 -43 -91 -76 -171 -76c-100 0 -188 56 -188 163v2c0 117 90 173 214 173c64 0 105 -9 146 -22v10c0 73 -46 113 -130 113c-60 0 -103 -13 -151 -33l-33 97c59 27 114 44 201 44c157 0 232 -82 232 -223v-313zM402 191v30c-31 12 -74 21 -121 21
c-76 0 -121 -31 -121 -82v-2c0 -51 45 -78 102 -78c80 0 140 44 140 111zM317 593c-96 0 -164 53 -171 145h83c12 -36 37 -61 88 -61s76 25 88 61h84c-8 -92 -76 -145 -172 -145zM287 739l-123 115l110 49l104 -164h-91z" />
    <glyph glyph-name="uni1EB2" unicode="&#x1eb2;" horiz-adv-x="790" 
d="M30 0l308 705h114l308 -705h-130l-71 169h-331l-72 -169h-126zM273 278h241l-121 280zM395 765c-96 0 -164 53 -171 145h83c12 -36 37 -61 88 -61s76 25 88 61h84c-8 -92 -76 -145 -172 -145zM369 903l-7 83c39 4 63 17 63 53c0 9 -8 25 -31 25c-12 0 -30 -8 -42 -37
l-66 31c30 68 80 81 111 81c59 0 106 -43 106 -99c0 -58 -38 -85 -75 -98l-5 -39h-54z" />
    <glyph glyph-name="uni1EB3" unicode="&#x1eb3;" horiz-adv-x="587" 
d="M519 0h-120v65c-36 -43 -91 -76 -171 -76c-100 0 -188 56 -188 163v2c0 117 90 173 214 173c64 0 105 -9 146 -22v10c0 73 -46 113 -130 113c-60 0 -103 -13 -151 -33l-33 97c59 27 114 44 201 44c157 0 232 -82 232 -223v-313zM402 191v30c-31 12 -74 21 -121 21
c-76 0 -121 -31 -121 -82v-2c0 -51 45 -78 102 -78c80 0 140 44 140 111zM317 593c-96 0 -164 53 -171 145h83c12 -36 37 -61 88 -61s76 25 88 61h84c-8 -92 -76 -145 -172 -145zM291 731l-7 83c39 4 63 17 63 53c0 9 -8 25 -31 25c-12 0 -30 -8 -42 -37l-66 31
c30 68 80 81 111 81c59 0 106 -43 106 -99c0 -58 -38 -85 -75 -98l-5 -39h-54z" />
    <glyph glyph-name="uni1EB4" unicode="&#x1eb4;" horiz-adv-x="790" 
d="M30 0l308 705h114l308 -705h-130l-71 169h-331l-72 -169h-126zM273 278h241l-121 280zM395 765c-96 0 -164 53 -171 145h83c12 -36 37 -61 88 -61s76 25 88 61h84c-8 -92 -76 -145 -172 -145zM280 946l-62 19c19 73 47 115 104 115c51 0 103 -37 136 -37
c27 0 38 14 51 45l64 -18c-21 -73 -48 -115 -105 -115c-50 0 -104 36 -136 36c-27 0 -37 -14 -52 -45z" />
    <glyph glyph-name="uni1EB5" unicode="&#x1eb5;" horiz-adv-x="587" 
d="M519 0h-120v65c-36 -43 -91 -76 -171 -76c-100 0 -188 56 -188 163v2c0 117 90 173 214 173c64 0 105 -9 146 -22v10c0 73 -46 113 -130 113c-60 0 -103 -13 -151 -33l-33 97c59 27 114 44 201 44c157 0 232 -82 232 -223v-313zM402 191v30c-31 12 -74 21 -121 21
c-76 0 -121 -31 -121 -82v-2c0 -51 45 -78 102 -78c80 0 140 44 140 111zM317 593c-96 0 -164 53 -171 145h83c12 -36 37 -61 88 -61s76 25 88 61h84c-8 -92 -76 -145 -172 -145zM202 774l-62 19c19 73 47 115 104 115c51 0 103 -37 136 -37c27 0 38 14 51 45l64 -18
c-21 -73 -48 -115 -105 -115c-50 0 -104 36 -136 36c-27 0 -37 -14 -52 -45z" />
    <glyph glyph-name="uni1EB6" unicode="&#x1eb6;" horiz-adv-x="790" 
d="M30 0l308 705h114l308 -705h-130l-71 169h-331l-72 -169h-126zM273 278h241l-121 280zM395 765c-96 0 -164 53 -171 145h83c12 -36 37 -61 88 -61s76 25 88 61h84c-8 -92 -76 -145 -172 -145zM331 -192v125h112v-125h-112z" />
    <glyph glyph-name="uni1EB7" unicode="&#x1eb7;" horiz-adv-x="587" 
d="M519 0h-120v65c-36 -43 -91 -76 -171 -76c-100 0 -188 56 -188 163v2c0 117 90 173 214 173c64 0 105 -9 146 -22v10c0 73 -46 113 -130 113c-60 0 -103 -13 -151 -33l-33 97c59 27 114 44 201 44c157 0 232 -82 232 -223v-313zM402 191v30c-31 12 -74 21 -121 21
c-76 0 -121 -31 -121 -82v-2c0 -51 45 -78 102 -78c80 0 140 44 140 111zM317 593c-96 0 -164 53 -171 145h83c12 -36 37 -61 88 -61s76 25 88 61h84c-8 -92 -76 -145 -172 -145zM239 -192v125h112v-125h-112z" />
    <glyph glyph-name="uni1EBE" unicode="&#x1ebe;" horiz-adv-x="670" 
d="M90 0v700h519v-110h-396v-182h351v-110h-351v-188h401v-110h-524zM179 758l116 147h112l117 -147h-96l-78 67l-77 -67h-94zM477 868l104 164l110 -49l-123 -115h-91z" />
    <glyph glyph-name="uni1EBF" unicode="&#x1ebf;" horiz-adv-x="604" 
d="M131 595l116 147h112l117 -147h-96l-78 67l-77 -67h-94zM318 -12c-152 0 -271 111 -271 274v2c0 152 107 275 258 275c168 0 253 -132 253 -284c0 -11 -1 -22 -2 -34h-388c13 -87 73 -134 152 -134c60 0 100 22 143 63l71 -63c-51 -60 -119 -99 -216 -99zM167 301h271
c-8 77 -54 139 -134 139c-75 0 -126 -56 -137 -139zM429 705l104 164l110 -49l-123 -115h-91z" />
    <glyph glyph-name="uni1EC0" unicode="&#x1ec0;" horiz-adv-x="670" 
d="M90 0v700h519v-110h-396v-182h351v-110h-351v-188h401v-110h-524zM179 758l116 147h112l117 -147h-96l-78 67l-77 -67h-94zM512 868l-123 115l110 49l104 -164h-91z" />
    <glyph glyph-name="uni1EC1" unicode="&#x1ec1;" horiz-adv-x="604" 
d="M131 595l116 147h112l117 -147h-96l-78 67l-77 -67h-94zM318 -12c-152 0 -271 111 -271 274v2c0 152 107 275 258 275c168 0 253 -132 253 -284c0 -11 -1 -22 -2 -34h-388c13 -87 73 -134 152 -134c60 0 100 22 143 63l71 -63c-51 -60 -119 -99 -216 -99zM167 301h271
c-8 77 -54 139 -134 139c-75 0 -126 -56 -137 -139zM464 705l-123 115l110 49l104 -164h-91z" />
    <glyph glyph-name="uni1EC2" unicode="&#x1ec2;" horiz-adv-x="670" 
d="M90 0v700h519v-110h-396v-182h351v-110h-351v-188h401v-110h-524zM179 758l116 147h112l117 -147h-96l-78 67l-77 -67h-94zM497 843l-7 83c39 4 63 17 63 53c0 9 -8 25 -31 25c-12 0 -30 -8 -42 -37l-66 31c30 68 80 81 111 81c59 0 106 -43 106 -99
c0 -58 -38 -85 -75 -98l-5 -39h-54z" />
    <glyph glyph-name="uni1EC3" unicode="&#x1ec3;" horiz-adv-x="604" 
d="M131 595l116 147h112l117 -147h-96l-78 67l-77 -67h-94zM318 -12c-152 0 -271 111 -271 274v2c0 152 107 275 258 275c168 0 253 -132 253 -284c0 -11 -1 -22 -2 -34h-388c13 -87 73 -134 152 -134c60 0 100 22 143 63l71 -63c-51 -60 -119 -99 -216 -99zM167 301h271
c-8 77 -54 139 -134 139c-75 0 -126 -56 -137 -139zM449 680l-7 83c39 4 63 17 63 53c0 9 -8 25 -31 25c-12 0 -30 -8 -42 -37l-66 31c30 68 80 81 111 81c59 0 106 -43 106 -99c0 -58 -38 -85 -75 -98l-5 -39h-54z" />
    <glyph glyph-name="uni1EC4" unicode="&#x1ec4;" horiz-adv-x="670" 
d="M90 0v700h519v-110h-396v-182h351v-110h-351v-188h401v-110h-524zM179 758l116 147h112l117 -147h-96l-78 67l-77 -67h-94zM240 937l-62 19c19 72 46 113 102 113c52 0 104 -35 136 -35c27 0 37 14 50 43l62 -18c-20 -72 -46 -112 -102 -112c-51 0 -103 35 -135 35
c-27 0 -38 -14 -51 -45z" />
    <glyph glyph-name="uni1EC5" unicode="&#x1ec5;" horiz-adv-x="604" 
d="M131 595l116 147h112l117 -147h-96l-78 67l-77 -67h-94zM318 -12c-152 0 -271 111 -271 274v2c0 152 107 275 258 275c168 0 253 -132 253 -284c0 -11 -1 -22 -2 -34h-388c13 -87 73 -134 152 -134c60 0 100 22 143 63l71 -63c-51 -60 -119 -99 -216 -99zM167 301h271
c-8 77 -54 139 -134 139c-75 0 -126 -56 -137 -139zM192 774l-62 19c19 72 46 113 102 113c52 0 104 -35 136 -35c27 0 37 14 50 43l62 -18c-20 -72 -46 -112 -102 -112c-51 0 -103 35 -135 35c-27 0 -38 -14 -51 -45z" />
    <glyph glyph-name="uni1EC6" unicode="&#x1ec6;" horiz-adv-x="670" 
d="M90 0v700h519v-110h-396v-182h351v-110h-351v-188h401v-110h-524zM179 758l116 147h112l117 -147h-96l-78 67l-77 -67h-94zM293 -192v125h112v-125h-112z" />
    <glyph glyph-name="uni1EC7" unicode="&#x1ec7;" horiz-adv-x="604" 
d="M131 595l116 147h112l117 -147h-96l-78 67l-77 -67h-94zM318 -12c-152 0 -271 111 -271 274v2c0 152 107 275 258 275c168 0 253 -132 253 -284c0 -11 -1 -22 -2 -34h-388c13 -87 73 -134 152 -134c60 0 100 22 143 63l71 -63c-51 -60 -119 -99 -216 -99zM167 301h271
c-8 77 -54 139 -134 139c-75 0 -126 -56 -137 -139zM248 -192v125h112v-125h-112z" />
    <glyph glyph-name="uni1ED0" unicode="&#x1ed0;" horiz-adv-x="850" 
d="M424 -12c-215 0 -365 163 -365 360v2c0 196 152 362 367 362s365 -163 365 -360v-2c0 -196 -152 -362 -367 -362zM426 101c139 0 236 111 236 247v2c0 136 -98 249 -238 249c-139 0 -236 -111 -236 -247v-2c0 -136 98 -249 238 -249zM253 768l116 147h112l117 -147h-96
l-78 67l-77 -67h-94zM551 878l104 164l110 -49l-123 -115h-91z" />
    <glyph glyph-name="uni1ED1" unicode="&#x1ed1;" horiz-adv-x="657" 
d="M156 595l116 147h112l117 -147h-96l-78 67l-77 -67h-94zM327 -12c-161 0 -280 123 -280 273v2c0 151 120 276 282 276c163 0 281 -123 281 -274v-2c0 -149 -120 -275 -283 -275zM329 93c99 0 160 77 160 168v2c0 93 -67 170 -162 170c-97 0 -159 -76 -159 -168v-2
c0 -92 68 -170 161 -170zM454 705l104 164l110 -49l-123 -115h-91z" />
    <glyph glyph-name="uni1ED2" unicode="&#x1ed2;" horiz-adv-x="850" 
d="M424 -12c-215 0 -365 163 -365 360v2c0 196 152 362 367 362s365 -163 365 -360v-2c0 -196 -152 -362 -367 -362zM426 101c139 0 236 111 236 247v2c0 136 -98 249 -238 249c-139 0 -236 -111 -236 -247v-2c0 -136 98 -249 238 -249zM253 768l116 147h112l117 -147h-96
l-78 67l-77 -67h-94zM586 877l-123 115l110 49l104 -164h-91z" />
    <glyph glyph-name="uni1ED3" unicode="&#x1ed3;" horiz-adv-x="657" 
d="M156 595l116 147h112l117 -147h-96l-78 67l-77 -67h-94zM327 -12c-161 0 -280 123 -280 273v2c0 151 120 276 282 276c163 0 281 -123 281 -274v-2c0 -149 -120 -275 -283 -275zM329 93c99 0 160 77 160 168v2c0 93 -67 170 -162 170c-97 0 -159 -76 -159 -168v-2
c0 -92 68 -170 161 -170zM489 705l-123 115l110 49l104 -164h-91z" />
    <glyph glyph-name="uni1ED4" unicode="&#x1ed4;" horiz-adv-x="850" 
d="M424 -12c-215 0 -365 163 -365 360v2c0 196 152 362 367 362s365 -163 365 -360v-2c0 -196 -152 -362 -367 -362zM426 101c139 0 236 111 236 247v2c0 136 -98 249 -238 249c-139 0 -236 -111 -236 -247v-2c0 -136 98 -249 238 -249zM253 768l116 147h112l117 -147h-96
l-78 67l-77 -67h-94zM571 853l-7 83c39 4 63 17 63 53c0 9 -8 25 -31 25c-12 0 -30 -8 -42 -37l-66 31c30 68 80 81 111 81c59 0 106 -43 106 -99c0 -58 -38 -85 -75 -98l-5 -39h-54z" />
    <glyph glyph-name="uni1ED5" unicode="&#x1ed5;" horiz-adv-x="657" 
d="M156 595l116 147h112l117 -147h-96l-78 67l-77 -67h-94zM327 -12c-161 0 -280 123 -280 273v2c0 151 120 276 282 276c163 0 281 -123 281 -274v-2c0 -149 -120 -275 -283 -275zM329 93c99 0 160 77 160 168v2c0 93 -67 170 -162 170c-97 0 -159 -76 -159 -168v-2
c0 -92 68 -170 161 -170zM474 680l-7 83c39 4 63 17 63 53c0 9 -8 25 -31 25c-12 0 -30 -8 -42 -37l-66 31c30 68 80 81 111 81c59 0 106 -43 106 -99c0 -58 -38 -85 -75 -98l-5 -39h-54z" />
    <glyph glyph-name="uni1ED6" unicode="&#x1ed6;" horiz-adv-x="850" 
d="M424 -12c-215 0 -365 163 -365 360v2c0 196 152 362 367 362s365 -163 365 -360v-2c0 -196 -152 -362 -367 -362zM426 101c139 0 236 111 236 247v2c0 136 -98 249 -238 249c-139 0 -236 -111 -236 -247v-2c0 -136 98 -249 238 -249zM253 768l116 147h112l117 -147h-96
l-78 67l-77 -67h-94zM314 947l-62 19c19 72 46 113 102 113c52 0 104 -35 136 -35c27 0 37 14 50 43l62 -18c-20 -72 -46 -112 -102 -112c-51 0 -103 35 -135 35c-27 0 -38 -14 -51 -45z" />
    <glyph glyph-name="uni1ED7" unicode="&#x1ed7;" horiz-adv-x="657" 
d="M156 595l116 147h112l117 -147h-96l-78 67l-77 -67h-94zM327 -12c-161 0 -280 123 -280 273v2c0 151 120 276 282 276c163 0 281 -123 281 -274v-2c0 -149 -120 -275 -283 -275zM329 93c99 0 160 77 160 168v2c0 93 -67 170 -162 170c-97 0 -159 -76 -159 -168v-2
c0 -92 68 -170 161 -170zM217 774l-62 19c19 72 46 113 102 113c52 0 104 -35 136 -35c27 0 37 14 50 43l62 -18c-20 -72 -46 -112 -102 -112c-51 0 -103 35 -135 35c-27 0 -38 -14 -51 -45z" />
    <glyph glyph-name="uni1ED8" unicode="&#x1ed8;" horiz-adv-x="850" 
d="M424 -12c-215 0 -365 163 -365 360v2c0 196 152 362 367 362s365 -163 365 -360v-2c0 -196 -152 -362 -367 -362zM426 101c139 0 236 111 236 247v2c0 136 -98 249 -238 249c-139 0 -236 -111 -236 -247v-2c0 -136 98 -249 238 -249zM253 768l116 147h112l117 -147h-96
l-78 67l-77 -67h-94zM370 -192v125h112v-125h-112z" />
    <glyph glyph-name="uni1ED9" unicode="&#x1ed9;" horiz-adv-x="657" 
d="M156 595l116 147h112l117 -147h-96l-78 67l-77 -67h-94zM327 -12c-161 0 -280 123 -280 273v2c0 151 120 276 282 276c163 0 281 -123 281 -274v-2c0 -149 -120 -275 -283 -275zM329 93c99 0 160 77 160 168v2c0 93 -67 170 -162 170c-97 0 -159 -76 -159 -168v-2
c0 -92 68 -170 161 -170zM271 -192v125h112v-125h-112z" />
    <glyph glyph-name="uni1EDA" unicode="&#x1eda;" horiz-adv-x="850" 
d="M424 -12c-215 0 -365 163 -365 360v2c0 196 152 362 367 362c81 0 151 -23 210 -63c27 7 41 18 41 32c0 15 -4 48 -27 89h119c16 -45 15 -98 15 -106c-1 -45 -22 -78 -61 -99c43 -60 68 -133 68 -213v-2c0 -196 -152 -362 -367 -362zM426 101c139 0 236 111 236 247v2
c0 136 -98 249 -238 249c-139 0 -236 -111 -236 -247v-2c0 -136 98 -249 238 -249zM335 768l104 164l110 -49l-123 -115h-91z" />
    <glyph glyph-name="uni1EDB" unicode="&#x1edb;" horiz-adv-x="657" 
d="M327 -12c-161 0 -280 123 -280 273v2c0 151 120 276 282 276c68 0 128 -22 176 -59c21 7 32 17 32 29c0 15 -4 47 -27 87h116c15 -64 15 -95 15 -104c-1 -44 -22 -77 -63 -98c20 -39 32 -82 32 -129v-2c0 -149 -120 -275 -283 -275zM329 93c99 0 160 77 160 168v2
c0 93 -67 170 -162 170c-97 0 -159 -76 -159 -168v-2c0 -92 68 -170 161 -170zM237 595l104 164l110 -49l-123 -115h-91z" />
    <glyph glyph-name="uni1EDC" unicode="&#x1edc;" horiz-adv-x="850" 
d="M424 -12c-215 0 -365 163 -365 360v2c0 196 152 362 367 362c81 0 151 -23 210 -63c27 7 41 18 41 32c0 15 -4 48 -27 89h119c16 -45 15 -98 15 -106c-1 -45 -22 -78 -61 -99c43 -60 68 -133 68 -213v-2c0 -196 -152 -362 -367 -362zM426 101c139 0 236 111 236 247v2
c0 136 -98 249 -238 249c-139 0 -236 -111 -236 -247v-2c0 -136 98 -249 238 -249zM425 768l-123 115l110 49l104 -164h-91z" />
    <glyph glyph-name="uni1EDD" unicode="&#x1edd;" horiz-adv-x="657" 
d="M327 -12c-161 0 -280 123 -280 273v2c0 151 120 276 282 276c68 0 128 -22 176 -59c21 7 32 17 32 29c0 15 -4 47 -27 87h116c15 -64 15 -95 15 -104c-1 -44 -22 -77 -63 -98c20 -39 32 -82 32 -129v-2c0 -149 -120 -275 -283 -275zM329 93c99 0 160 77 160 168v2
c0 93 -67 170 -162 170c-97 0 -159 -76 -159 -168v-2c0 -92 68 -170 161 -170zM328 595l-123 115l110 49l104 -164h-91z" />
    <glyph glyph-name="uni1EDE" unicode="&#x1ede;" horiz-adv-x="850" 
d="M424 -12c-215 0 -365 163 -365 360v2c0 196 152 362 367 362c81 0 151 -23 210 -63c27 7 41 18 41 32c0 15 -4 48 -27 89h119c16 -45 15 -98 15 -106c-1 -45 -22 -78 -61 -99c43 -60 68 -133 68 -213v-2c0 -196 -152 -362 -367 -362zM426 101c139 0 236 111 236 247v2
c0 136 -98 249 -238 249c-139 0 -236 -111 -236 -247v-2c0 -136 98 -249 238 -249zM400 765l-7 83c39 4 63 17 63 53c0 9 -8 25 -31 25c-12 0 -30 -8 -42 -37l-66 31c30 68 80 81 111 81c59 0 106 -43 106 -99c0 -58 -38 -85 -75 -98l-5 -39h-54z" />
    <glyph glyph-name="uni1EDF" unicode="&#x1edf;" horiz-adv-x="657" 
d="M327 -12c-161 0 -280 123 -280 273v2c0 151 120 276 282 276c68 0 128 -22 176 -59c21 7 32 17 32 29c0 15 -4 47 -27 87h116c15 -64 15 -95 15 -104c-1 -44 -22 -77 -63 -98c20 -39 32 -82 32 -129v-2c0 -149 -120 -275 -283 -275zM329 93c99 0 160 77 160 168v2
c0 93 -67 170 -162 170c-97 0 -159 -76 -159 -168v-2c0 -92 68 -170 161 -170zM303 595l-7 83c39 4 63 17 63 53c0 9 -8 25 -31 25c-12 0 -30 -8 -42 -37l-66 31c30 68 80 81 111 81c59 0 106 -43 106 -99c0 -58 -38 -85 -75 -98l-5 -39h-54z" />
    <glyph glyph-name="uni1EE0" unicode="&#x1ee0;" horiz-adv-x="850" 
d="M424 -12c-215 0 -365 163 -365 360v2c0 196 152 362 367 362c81 0 151 -23 210 -63c27 7 41 18 41 32c0 15 -4 48 -27 89h119c16 -45 15 -98 15 -106c-1 -45 -22 -78 -61 -99c43 -60 68 -133 68 -213v-2c0 -196 -152 -362 -367 -362zM426 101c139 0 236 111 236 247v2
c0 136 -98 249 -238 249c-139 0 -236 -111 -236 -247v-2c0 -136 98 -249 238 -249zM305 758l-67 21c21 79 51 123 112 123c56 0 112 -39 147 -39c29 0 40 16 55 48l68 -20c-23 -79 -52 -123 -112 -123c-56 0 -112 39 -147 39c-29 0 -41 -16 -56 -49z" />
    <glyph glyph-name="uni1EE1" unicode="&#x1ee1;" horiz-adv-x="657" 
d="M327 -12c-161 0 -280 123 -280 273v2c0 151 120 276 282 276c68 0 128 -22 176 -59c21 7 32 17 32 29c0 15 -4 47 -27 87h116c15 -64 15 -95 15 -104c-1 -44 -22 -77 -63 -98c20 -39 32 -82 32 -129v-2c0 -149 -120 -275 -283 -275zM329 93c99 0 160 77 160 168v2
c0 93 -67 170 -162 170c-97 0 -159 -76 -159 -168v-2c0 -92 68 -170 161 -170zM210 585l-67 21c23 80 51 124 112 124c56 0 108 -40 144 -40c29 0 40 15 55 50l67 -20c-23 -81 -51 -125 -112 -125c-55 0 -109 40 -144 40c-29 0 -40 -15 -55 -50z" />
    <glyph glyph-name="uni1EE2" unicode="&#x1ee2;" horiz-adv-x="850" 
d="M424 -12c-215 0 -365 163 -365 360v2c0 196 152 362 367 362c81 0 151 -23 210 -63c27 7 41 18 41 32c0 15 -4 48 -27 89h119c16 -45 15 -98 15 -106c-1 -45 -22 -78 -61 -99c43 -60 68 -133 68 -213v-2c0 -196 -152 -362 -367 -362zM426 101c139 0 236 111 236 247v2
c0 136 -98 249 -238 249c-139 0 -236 -111 -236 -247v-2c0 -136 98 -249 238 -249zM370 -192v125h112v-125h-112z" />
    <glyph glyph-name="uni1EE3" unicode="&#x1ee3;" horiz-adv-x="657" 
d="M327 -12c-161 0 -280 123 -280 273v2c0 151 120 276 282 276c68 0 128 -22 176 -59c21 7 32 17 32 29c0 15 -4 47 -27 87h116c15 -64 15 -95 15 -104c-1 -44 -22 -77 -63 -98c20 -39 32 -82 32 -129v-2c0 -149 -120 -275 -283 -275zM329 93c99 0 160 77 160 168v2
c0 93 -67 170 -162 170c-97 0 -159 -76 -159 -168v-2c0 -92 68 -170 161 -170zM271 -192v125h112v-125h-112z" />
    <glyph glyph-name="uni1EE8" unicode="&#x1ee8;" horiz-adv-x="810" 
d="M377 -11c-181 0 -298 105 -298 308v403h123v-398c0 -131 66 -200 177 -200c109 0 176 66 176 195v403h95c18 6 27 15 27 27c0 15 -4 48 -27 89h119c16 -45 15 -98 15 -106c-1 -59 -37 -98 -106 -115v-292c0 -209 -118 -314 -301 -314zM303 757l104 164l110 -49l-123 -115
h-91z" />
    <glyph glyph-name="uni1EE9" unicode="&#x1ee9;" horiz-adv-x="673" 
d="M258 -11c-120 0 -188 79 -188 203v336h121v-300c0 -83 41 -129 113 -129c71 0 119 48 119 131v298h99c21 6 31 15 31 28c0 15 -4 47 -27 87h116c15 -64 15 -95 15 -104c-1 -61 -39 -100 -113 -115v-424h-121v82c-35 -51 -84 -93 -165 -93zM229 595l104 164l110 -49
l-123 -115h-91z" />
    <glyph glyph-name="uni1EEA" unicode="&#x1eea;" horiz-adv-x="810" 
d="M377 -11c-181 0 -298 105 -298 308v403h123v-398c0 -131 66 -200 177 -200c109 0 176 66 176 195v403h95c18 6 27 15 27 27c0 15 -4 48 -27 89h119c16 -45 15 -98 15 -106c-1 -59 -37 -98 -106 -115v-292c0 -209 -118 -314 -301 -314zM367 757l-123 115l110 49l104 -164
h-91z" />
    <glyph glyph-name="uni1EEB" unicode="&#x1eeb;" horiz-adv-x="673" 
d="M258 -11c-120 0 -188 79 -188 203v336h121v-300c0 -83 41 -129 113 -129c71 0 119 48 119 131v298h99c21 6 31 15 31 28c0 15 -4 47 -27 87h116c15 -64 15 -95 15 -104c-1 -61 -39 -100 -113 -115v-424h-121v82c-35 -51 -84 -93 -165 -93zM278 595l-123 115l110 49
l104 -164h-91z" />
    <glyph glyph-name="uni1EEC" unicode="&#x1eec;" horiz-adv-x="810" 
d="M377 -11c-181 0 -298 105 -298 308v403h123v-398c0 -131 66 -200 177 -200c109 0 176 66 176 195v403h95c18 6 27 15 27 27c0 15 -4 48 -27 89h119c16 -45 15 -98 15 -106c-1 -59 -37 -98 -106 -115v-292c0 -209 -118 -314 -301 -314zM361 765l-7 83c39 4 63 17 63 53
c0 9 -8 25 -31 25c-12 0 -30 -8 -42 -37l-66 31c30 68 80 81 111 81c59 0 106 -43 106 -99c0 -58 -38 -85 -75 -98l-5 -39h-54z" />
    <glyph glyph-name="uni1EED" unicode="&#x1eed;" horiz-adv-x="673" 
d="M258 -11c-120 0 -188 79 -188 203v336h121v-300c0 -83 41 -129 113 -129c71 0 119 48 119 131v298h99c21 6 31 15 31 28c0 15 -4 47 -27 87h116c15 -64 15 -95 15 -104c-1 -61 -39 -100 -113 -115v-424h-121v82c-35 -51 -84 -93 -165 -93zM282 595l-7 83
c39 4 63 17 63 53c0 9 -8 25 -31 25c-12 0 -30 -8 -42 -37l-66 31c30 68 80 81 111 81c59 0 106 -43 106 -99c0 -58 -38 -85 -75 -98l-5 -39h-54z" />
    <glyph glyph-name="uni1EEE" unicode="&#x1eee;" horiz-adv-x="810" 
d="M377 -11c-181 0 -298 105 -298 308v403h123v-398c0 -131 66 -200 177 -200c109 0 176 66 176 195v403h95c18 6 27 15 27 27c0 15 -4 48 -27 89h119c16 -45 15 -98 15 -106c-1 -59 -37 -98 -106 -115v-292c0 -209 -118 -314 -301 -314zM256 757l-67 21
c23 80 51 124 112 124c56 0 108 -40 144 -40c29 0 40 15 55 50l67 -20c-23 -81 -51 -125 -112 -125c-55 0 -109 40 -144 40c-29 0 -40 -15 -55 -50z" />
    <glyph glyph-name="uni1EEF" unicode="&#x1eef;" horiz-adv-x="673" 
d="M258 -11c-120 0 -188 79 -188 203v336h121v-300c0 -83 41 -129 113 -129c71 0 119 48 119 131v298h99c21 6 31 15 31 28c0 15 -4 47 -27 87h116c15 -64 15 -95 15 -104c-1 -61 -39 -100 -113 -115v-424h-121v82c-35 -51 -84 -93 -165 -93zM188 585l-67 21
c23 80 51 124 112 124c56 0 108 -40 144 -40c29 0 40 15 55 50l67 -20c-23 -81 -51 -125 -112 -125c-55 0 -109 40 -144 40c-29 0 -40 -15 -55 -50z" />
    <glyph glyph-name="uni1EF0" unicode="&#x1ef0;" horiz-adv-x="810" 
d="M377 -11c-181 0 -298 105 -298 308v403h123v-398c0 -131 66 -200 177 -200c109 0 176 66 176 195v403h95c18 6 27 15 27 27c0 15 -4 48 -27 89h119c16 -45 15 -98 15 -106c-1 -59 -37 -98 -106 -115v-292c0 -209 -118 -314 -301 -314zM321 -192v125h112v-125h-112z" />
    <glyph glyph-name="uni1EF1" unicode="&#x1ef1;" horiz-adv-x="673" 
d="M258 -11c-120 0 -188 79 -188 203v336h121v-300c0 -83 41 -129 113 -129c71 0 119 48 119 131v298h99c21 6 31 15 31 28c0 15 -4 47 -27 87h116c15 -64 15 -95 15 -104c-1 -61 -39 -100 -113 -115v-424h-121v82c-35 -51 -84 -93 -165 -93zM250 -192v125h112v-125h-112z
" />
    <glyph glyph-name="B" unicode="B" horiz-adv-x="722" 
d="M90 0v700h314c81 0 142 -21 183 -62c31 -31 47 -70 47 -116v-2c0 -85 -48 -129 -100 -156c83 -29 139 -74 139 -170v-2c0 -125 -103 -192 -259 -192h-324zM211 405h168c80 0 132 31 132 95v2c0 56 -43 89 -123 89h-177v-186zM211 109h204c84 0 135 32 135 96v2
c0 60 -47 94 -144 94h-195v-192z" />
    </font>
</defs>
</svg>
